<?xml version="1.0" standalone="no"?>
<!DOCTYPE svg PUBLIC "-//W3C//DTD SVG 1.1//EN" "http://www.w3.org/Graphics/SVG/1.1/DTD/svg11.dtd" >
<svg xmlns="http://www.w3.org/2000/svg" xmlns:xlink="http://www.w3.org/1999/xlink" version="1.1">
<metadata>
Created by FontForge 20170731 at Thu Mar 15 02:50:49 2018
 By Aleksey,,,
Copyright 2011-2017 The Montserrat-Arabic Project Authors (gaber@kieftype.com)
</metadata>
<defs>
<font id="Montserrat-Arabic-Bold" horiz-adv-x="0" >
  <font-face 
    font-family="Montserrat-Arabic"
    font-weight="700"
    font-stretch="normal"
    units-per-em="1000"
    panose-1="0 0 8 0 0 0 0 0 0 0"
    ascent="800"
    descent="-200"
    x-height="541"
    cap-height="701"
    bbox="-521 -543 2147 1158"
    underline-thickness="50"
    underline-position="-150"
    unicode-range="U+000D-FEFC"
  />
<missing-glyph horiz-adv-x="587" 
d="M40 700h507v-700h-507v700zM467 70v560h-347v-560h347z" />
    <glyph glyph-name="fi" unicode="fi" horiz-adv-x="709" 
d="M294 593q-17 -15 -17 -43v-35h120v-118h-120v-397h-177v397h-73v118h73v50q0 86 57.5 135.5t147.5 49.5q59 0 116 -21l-23 -135q-40 14 -60 14q-27 0 -44 -15zM641 541v-541h-177v541h177zM620.5 763.5q26.5 -26.5 26.5 -68.5q0 -41 -26.5 -68t-67.5 -27t-67.5 27
t-26.5 68q0 42 26.5 68.5t67.5 26.5t67.5 -26.5z" />
    <glyph glyph-name="fl" unicode="fl" horiz-adv-x="743" 
d="M294 593q-17 -15 -17 -43v-35h120v-118h-120v-397h-177v397h-73v118h73v50q0 86 57.5 135.5t147.5 49.5q59 0 116 -21l-23 -135q-40 14 -60 14q-27 0 -44 -15zM670 742v-742h-178v742h178z" />
    <glyph glyph-name="uniFC03" unicode="&#xfe8b;&#xfef0;" horiz-adv-x="1117" arabic-form="isolated" 
d="M1093 675v-89h-258v89h19q-5 20 -5 38q0 57 40 93t102 36q49 0 93 -21l-40 -87q-9 5 -23.5 8.5t-28.5 3.5q-25 0 -39.5 -10t-14.5 -27q0 -11 7 -20.5t19 -13.5h129zM872 515h178v-515h-124q-7 -121 -111 -178.5t-332 -57.5q-214 0 -328.5 69.5t-114.5 220.5q0 33 5 78.5
t15 85.5l173 -37q-7 -26 -11 -62t-4 -66q0 -47 20 -75t77 -42.5t164 -14.5q143 0 197.5 20.5t57.5 59.5q-142 11 -216 85l125 111q23 -23 51 -32t82 -9h96v359z" />
    <glyph glyph-name="uniFC04" unicode="&#xfe8b;&#xfef2;" horiz-adv-x="1117" arabic-form="isolated" 
d="M1093 675v-89h-258v89h19q-5 20 -5 38q0 57 40 93t102 36q49 0 93 -21l-40 -87q-9 5 -23.5 8.5t-28.5 3.5q-25 0 -39.5 -10t-14.5 -27q0 -11 7 -20.5t19 -13.5h129zM872 515h178v-515h-124q-7 -121 -111 -178.5t-332 -57.5q-214 0 -328.5 69.5t-114.5 220.5q0 33 5 78.5
t15 85.5l173 -37q-7 -26 -11 -62t-4 -66q0 -47 20 -75t77 -42.5t164 -14.5q143 0 197.5 20.5t57.5 59.5q-142 11 -216 85l125 111q23 -23 51 -32t82 -9h96v359zM528.939 -428.245q-20.7461 20.7451 -20.7461 53.1094q0 32.3633 20.7461 53.1094
q20.7461 20.7451 52.2793 20.7451t52.2793 -20.7451q20.7461 -20.7461 20.7461 -53.1094q0 -32.3643 -20.7461 -53.1094q-20.7461 -20.7461 -52.2793 -20.7461t-52.2793 20.7461zM356.939 -428.245q-20.7461 20.7451 -20.7461 53.1094q0 32.3633 20.7461 53.1094
q20.7461 20.7451 52.2793 20.7451t52.2793 -20.7451q20.7461 -20.7461 20.7461 -53.1094q0 -32.3643 -20.7461 -53.1094q-20.7461 -20.7461 -52.2793 -20.7461t-52.2793 20.7461z" />
    <glyph glyph-name="uniFC09" unicode="&#xfe91;&#xfef0;" horiz-adv-x="1120" arabic-form="isolated" 
d="M815 -178.5q-104 -57.5 -332 -57.5q-214 0 -328.5 69.5t-114.5 220.5q0 33 5 78.5t15 85.5l173 -37q-7 -26 -11 -62t-4 -66q0 -47 20 -75t77 -42.5t164 -14.5q143 0 197.5 20.5t57.5 59.5q-142 11 -216 85l125 111q23 -23 51 -32t82 -9h96v359h178v-515h-124
q-7 -121 -111 -178.5zM1026 -227q25 -25 25 -64t-25 -64t-63 -25t-63 25t-25 64t25 64t63 25t63 -25z" />
    <glyph glyph-name="uniFC0A" unicode="&#xfe91;&#xfef2;" horiz-adv-x="1120" arabic-form="isolated" 
d="M815 -178.5q-104 -57.5 -332 -57.5q-214 0 -328.5 69.5t-114.5 220.5q0 33 5 78.5t15 85.5l173 -37q-7 -26 -11 -62t-4 -66q0 -47 20 -75t77 -42.5t164 -14.5q143 0 197.5 20.5t57.5 59.5q-142 11 -216 85l125 111q23 -23 51 -32t82 -9h96v359h178v-515h-124
q-7 -121 -111 -178.5zM1026 -227q25 -25 25 -64t-25 -64t-63 -25t-63 25t-25 64t25 64t63 25t63 -25zM528.939 -440.245q-20.7461 20.7451 -20.7461 53.1094q0 32.3633 20.7461 53.1094q20.7461 20.7451 52.2793 20.7451t52.2793 -20.7451
q20.7461 -20.7461 20.7461 -53.1094q0 -32.3643 -20.7461 -53.1094q-20.7461 -20.7461 -52.2793 -20.7461t-52.2793 20.7461zM356.939 -440.245q-20.7461 20.7451 -20.7461 53.1094q0 32.3633 20.7461 53.1094q20.7461 20.7451 52.2793 20.7451t52.2793 -20.7451
q20.7461 -20.7461 20.7461 -53.1094q0 -32.3643 -20.7461 -53.1094q-20.7461 -20.7461 -52.2793 -20.7461t-52.2793 20.7461z" />
    <glyph glyph-name="uniFC0F" unicode="&#xfe97;&#xfef0;" horiz-adv-x="1120" arabic-form="isolated" 
d="M825.5 615q-20.5 21 -20.5 53t20.5 53t52.5 21t52.5 -21t20.5 -53t-20.5 -53t-52.5 -21t-52.5 21zM1102.5 721q20.5 -21 20.5 -53t-20.5 -53t-52.5 -21t-52.5 21t-20.5 53t20.5 53t52.5 21t52.5 -21zM872 515h178v-515h-124q-7 -121 -111 -178.5t-332 -57.5
q-214 0 -328.5 69.5t-114.5 220.5q0 33 5 78.5t15 85.5l173 -37q-7 -26 -11 -62t-4 -66q0 -47 20 -75t77 -42.5t164 -14.5q143 0 197.5 20.5t57.5 59.5q-142 11 -216 85l125 111q23 -23 51 -32t82 -9h96v359z" />
    <glyph glyph-name="uniFC10" unicode="&#xfe97;&#xfef2;" horiz-adv-x="1120" arabic-form="isolated" 
d="M825.5 615q-20.5 21 -20.5 53t20.5 53t52.5 21t52.5 -21t20.5 -53t-20.5 -53t-52.5 -21t-52.5 21zM1102.5 721q20.5 -21 20.5 -53t-20.5 -53t-52.5 -21t-52.5 21t-20.5 53t20.5 53t52.5 21t52.5 -21zM872 515h178v-515h-124q-7 -121 -111 -178.5t-332 -57.5
q-214 0 -328.5 69.5t-114.5 220.5q0 33 5 78.5t15 85.5l173 -37q-7 -26 -11 -62t-4 -66q0 -47 20 -75t77 -42.5t164 -14.5q143 0 197.5 20.5t57.5 59.5q-142 11 -216 85l125 111q23 -23 51 -32t82 -9h96v359zM528.939 -428.245q-20.7461 20.7451 -20.7461 53.1094
q0 32.3633 20.7461 53.1094q20.7461 20.7451 52.2793 20.7451t52.2793 -20.7451q20.7461 -20.7461 20.7461 -53.1094q0 -32.3643 -20.7461 -53.1094q-20.7461 -20.7461 -52.2793 -20.7461t-52.2793 20.7461zM356.939 -428.245q-20.7461 20.7451 -20.7461 53.1094
q0 32.3633 20.7461 53.1094q20.7461 20.7451 52.2793 20.7451t52.2793 -20.7451q20.7461 -20.7461 20.7461 -53.1094q0 -32.3643 -20.7461 -53.1094q-20.7461 -20.7461 -52.2793 -20.7461t-52.2793 20.7461z" />
    <glyph glyph-name="uniFC13" unicode="&#xfe9b;&#xfef0;" horiz-adv-x="1120" arabic-form="isolated" 
d="M914 779q-19 19 -19 50q0 29 19 48.5t49 19.5q29 0 48.5 -19.5t19.5 -48.5q0 -30 -19 -49.5t-49 -19.5t-49 19zM824.5 615q-20.5 21 -20.5 53t20.5 53t52.5 21t52.5 -21t20.5 -53t-20.5 -53t-52.5 -21t-52.5 21zM1101.5 721q20.5 -21 20.5 -53t-20.5 -53t-52.5 -21
t-52.5 21t-20.5 53t20.5 53t52.5 21t52.5 -21zM872 515h178v-515h-124q-7 -121 -111 -178.5t-332 -57.5q-214 0 -328.5 69.5t-114.5 220.5q0 33 5 78.5t15 85.5l173 -37q-7 -26 -11 -62t-4 -66q0 -47 20 -75t77 -42.5t164 -14.5q143 0 197.5 20.5t57.5 59.5q-142 11 -216 85
l125 111q23 -23 51 -32t82 -9h96v359z" />
    <glyph glyph-name="uniFC14" unicode="&#xfe9b;&#xfef2;" horiz-adv-x="1120" arabic-form="isolated" 
d="M914 779q-19 19 -19 50q0 29 19 48.5t49 19.5q29 0 48.5 -19.5t19.5 -48.5q0 -30 -19 -49.5t-49 -19.5t-49 19zM824.5 615q-20.5 21 -20.5 53t20.5 53t52.5 21t52.5 -21t20.5 -53t-20.5 -53t-52.5 -21t-52.5 21zM1101.5 721q20.5 -21 20.5 -53t-20.5 -53t-52.5 -21
t-52.5 21t-20.5 53t20.5 53t52.5 21t52.5 -21zM872 515h178v-515h-124q-7 -121 -111 -178.5t-332 -57.5q-214 0 -328.5 69.5t-114.5 220.5q0 33 5 78.5t15 85.5l173 -37q-7 -26 -11 -62t-4 -66q0 -47 20 -75t77 -42.5t164 -14.5q143 0 197.5 20.5t57.5 59.5q-142 11 -216 85
l125 111q23 -23 51 -32t82 -9h96v359zM528.939 -428.245q-20.7461 20.7451 -20.7461 53.1094q0 32.3633 20.7461 53.1094q20.7461 20.7451 52.2793 20.7451t52.2793 -20.7451q20.7461 -20.7461 20.7461 -53.1094q0 -32.3643 -20.7461 -53.1094
q-20.7461 -20.7461 -52.2793 -20.7461t-52.2793 20.7461zM356.939 -428.245q-20.7461 20.7451 -20.7461 53.1094q0 32.3633 20.7461 53.1094q20.7461 20.7451 52.2793 20.7451t52.2793 -20.7451q20.7461 -20.7461 20.7461 -53.1094q0 -32.3643 -20.7461 -53.1094
q-20.7461 -20.7461 -52.2793 -20.7461t-52.2793 20.7461z" />
    <glyph glyph-name="uniFC31" unicode="&#xfed3;&#xfef0;" horiz-adv-x="1313" arabic-form="isolated" 
d="M968 637q-25 25 -25 64t25 64t63 25t63 -25t25 -64t-25 -64t-63 -25t-63 25zM1273 464v-464h-347q-7 -121 -111 -178.5t-332 -57.5q-214 0 -328.5 69.5t-114.5 220.5q0 33 5 78.5t15 85.5l173 -37q-7 -26 -11 -62t-4 -66q0 -47 20 -75t77 -42.5t164 -14.5
q143 0 197.5 20.5t57.5 59.5q-140 10 -216 85l125 111q22 -21 47 -30.5t70 -10.5q-22 50 -22 105q0 77 39 139.5t106 98t148 35.5q107 0 242 -70zM948.5 345.5q-32.5 -32.5 -32.5 -83.5q0 -40 22 -68.5t60 -36.5h97v212q-28 9 -62 9q-52 0 -84.5 -32.5z" />
    <glyph glyph-name="uniFC32" unicode="&#xfed3;&#xfef2;" horiz-adv-x="1313" arabic-form="isolated" 
d="M968 637q-25 25 -25 64t25 64t63 25t63 -25t25 -64t-25 -64t-63 -25t-63 25zM1273 464v-464h-347q-7 -121 -111 -178.5t-332 -57.5q-214 0 -328.5 69.5t-114.5 220.5q0 33 5 78.5t15 85.5l173 -37q-7 -26 -11 -62t-4 -66q0 -47 20 -75t77 -42.5t164 -14.5
q143 0 197.5 20.5t57.5 59.5q-140 10 -216 85l125 111q22 -21 47 -30.5t70 -10.5q-22 50 -22 105q0 77 39 139.5t106 98t148 35.5q107 0 242 -70zM948.5 345.5q-32.5 -32.5 -32.5 -83.5q0 -40 22 -68.5t60 -36.5h97v212q-28 9 -62 9q-52 0 -84.5 -32.5zM528.939 -427.245
q-20.7461 20.7451 -20.7461 53.1094q0 32.3633 20.7461 53.1094q20.7461 20.7451 52.2793 20.7451t52.2793 -20.7451q20.7461 -20.7461 20.7461 -53.1094q0 -32.3643 -20.7461 -53.1094q-20.7461 -20.7461 -52.2793 -20.7461t-52.2793 20.7461zM356.939 -427.245
q-20.7461 20.7451 -20.7461 53.1094q0 32.3633 20.7461 53.1094q20.7461 20.7451 52.2793 20.7451t52.2793 -20.7451q20.7461 -20.7461 20.7461 -53.1094q0 -32.3643 -20.7461 -53.1094q-20.7461 -20.7461 -52.2793 -20.7461t-52.2793 20.7461z" />
    <glyph glyph-name="uniFC35" unicode="&#xfed7;&#xfef0;" horiz-adv-x="1313" arabic-form="isolated" 
d="M890.5 632q-20.5 21 -20.5 53t20.5 53t52.5 21t52.5 -21t20.5 -53t-20.5 -53t-52.5 -21t-52.5 21zM1062.5 632q-20.5 21 -20.5 53t20.5 53t52.5 21t52.5 -21t20.5 -53t-20.5 -53t-52.5 -21t-52.5 21zM1273 464v-464h-347q-7 -121 -111 -178.5t-332 -57.5
q-214 0 -328.5 69.5t-114.5 220.5q0 33 5 78.5t15 85.5l173 -37q-7 -26 -11 -62t-4 -66q0 -47 20 -75t77 -42.5t164 -14.5q143 0 197.5 20.5t57.5 59.5q-142 11 -216 85l125 111q22 -21 47 -30.5t70 -10.5q-22 50 -22 105q0 77 39 139.5t106 98t148 35.5q107 0 242 -70z
M948.5 345.5q-32.5 -32.5 -32.5 -83.5q0 -40 22 -68.5t60 -36.5h97v212q-28 9 -62 9q-52 0 -84.5 -32.5z" />
    <glyph glyph-name="uniFC36" unicode="&#xfed7;&#xfef2;" horiz-adv-x="1313" arabic-form="isolated" 
d="M890.5 632q-20.5 21 -20.5 53t20.5 53t52.5 21t52.5 -21t20.5 -53t-20.5 -53t-52.5 -21t-52.5 21zM1062.5 632q-20.5 21 -20.5 53t20.5 53t52.5 21t52.5 -21t20.5 -53t-20.5 -53t-52.5 -21t-52.5 21zM1273 464v-464h-347q-7 -121 -111 -178.5t-332 -57.5
q-214 0 -328.5 69.5t-114.5 220.5q0 33 5 78.5t15 85.5l173 -37q-7 -26 -11 -62t-4 -66q0 -47 20 -75t77 -42.5t164 -14.5q143 0 197.5 20.5t57.5 59.5q-142 11 -216 85l125 111q22 -21 47 -30.5t70 -10.5q-22 50 -22 105q0 77 39 139.5t106 98t148 35.5q107 0 242 -70z
M948.5 345.5q-32.5 -32.5 -32.5 -83.5q0 -40 22 -68.5t60 -36.5h97v212q-28 9 -62 9q-52 0 -84.5 -32.5zM528.939 -427.245q-20.7461 20.7451 -20.7461 53.1094q0 32.3633 20.7461 53.1094q20.7461 20.7451 52.2793 20.7451t52.2793 -20.7451
q20.7461 -20.7461 20.7461 -53.1094q0 -32.3643 -20.7461 -53.1094q-20.7461 -20.7461 -52.2793 -20.7461t-52.2793 20.7461zM356.939 -427.245q-20.7461 20.7451 -20.7461 53.1094q0 32.3633 20.7461 53.1094q20.7461 20.7451 52.2793 20.7451t52.2793 -20.7451
q20.7461 -20.7461 20.7461 -53.1094q0 -32.3643 -20.7461 -53.1094q-20.7461 -20.7461 -52.2793 -20.7461t-52.2793 20.7461z" />
    <glyph glyph-name="uniFC3B" unicode="&#xfedb;&#xfede;" horiz-adv-x="1309" arabic-form="isolated" 
d="M1193 359.5q52 -80.5 52 -203.5v-156h-367v1q-1 -1 -4 -1h-19q-66 0 -117 27q-38 -107 -125 -171t-211 -64q-111 0 -193 52.5t-125.5 142.5t-43.5 198q0 35 7 86l176 -23q-5 -38 -5 -64q0 -72 23 -125t64.5 -82t96.5 -29q85 0 135 64t50 174v567h178v-565v-6
q20 -26 62 -26h47q3 0 4 -1v1h188v9q0 83 -39 126.5t-114 43.5l-109 111l275 276l109 -110l-140 -141q93 -31 145 -111.5z" />
    <glyph glyph-name="uniFC3D" unicode="&#xfedb;&#xfef0;" horiz-adv-x="1161" arabic-form="isolated" 
d="M1045 359.5q52 -80.5 52 -203.5v-156h-171q-7 -121 -111 -178.5t-332 -57.5q-214 0 -328.5 69.5t-114.5 220.5q0 33 5 78.5t15 85.5l173 -37q-7 -26 -11 -62t-4 -66q0 -47 20 -75t77 -42.5t164 -14.5q143 0 197.5 20.5t57.5 59.5q-142 11 -216 85l125 111q23 -23 51 -32
t82 -9h142v9q0 83 -39 126.5t-114 43.5l-109 111l275 276l109 -110l-140 -141q93 -31 145 -111.5z" />
    <glyph glyph-name="uniFC3E" unicode="&#xfedb;&#xfef2;" horiz-adv-x="1161" arabic-form="isolated" 
d="M1045 359.5q52 -80.5 52 -203.5v-156h-171q-7 -121 -111 -178.5t-332 -57.5q-214 0 -328.5 69.5t-114.5 220.5q0 33 5 78.5t15 85.5l173 -37q-7 -26 -11 -62t-4 -66q0 -47 20 -75t77 -42.5t164 -14.5q143 0 197.5 20.5t57.5 59.5q-142 11 -216 85l125 111q23 -23 51 -32
t82 -9h142v9q0 83 -39 126.5t-114 43.5l-109 111l275 276l109 -110l-140 -141q93 -31 145 -111.5zM528.939 -428.245q-20.7461 20.7451 -20.7461 53.1094q0 32.3633 20.7461 53.1094q20.7461 20.7451 52.2793 20.7451t52.2793 -20.7451q20.7461 -20.7461 20.7461 -53.1094
q0 -32.3643 -20.7461 -53.1094q-20.7461 -20.7461 -52.2793 -20.7461t-52.2793 20.7461zM356.939 -428.245q-20.7461 20.7451 -20.7461 53.1094q0 32.3633 20.7461 53.1094q20.7461 20.7451 52.2793 20.7451t52.2793 -20.7451q20.7461 -20.7461 20.7461 -53.1094
q0 -32.3643 -20.7461 -53.1094q-20.7461 -20.7461 -52.2793 -20.7461t-52.2793 20.7461z" />
    <glyph glyph-name="uniFC43" unicode="&#xfedf;&#xfef0;" horiz-adv-x="1111" arabic-form="isolated" 
d="M1036 753v-753h-258q-10 0 -15 21t-5 58q0 36 5 56.5t15 20.5h80v597h178zM1001 135.5q5 -20.5 5 -56.5q0 -37 -5 -58t-15 -21h-60q-7 -121 -111 -178.5t-332 -57.5q-214 0 -328.5 69.5t-114.5 220.5q0 33 5 78.5t15 85.5l173 -37q-7 -26 -11 -62t-4 -66q0 -47 20 -75
t77 -42.5t164 -14.5q143 0 197.5 20.5t57.5 59.5q-142 11 -216 85l125 111q23 -23 51 -32t82 -9h210q10 0 15 -20.5z" />
    <glyph glyph-name="uniFC44" unicode="&#xfedf;&#xfef2;" horiz-adv-x="1111" arabic-form="isolated" 
d="M1036 753v-753h-258q-10 0 -15 21t-5 58q0 36 5 56.5t15 20.5h80v597h178zM1001 135.5q5 -20.5 5 -56.5q0 -37 -5 -58t-15 -21h-60q-7 -121 -111 -178.5t-332 -57.5q-214 0 -328.5 69.5t-114.5 220.5q0 33 5 78.5t15 85.5l173 -37q-7 -26 -11 -62t-4 -66q0 -47 20 -75
t77 -42.5t164 -14.5q143 0 197.5 20.5t57.5 59.5q-142 11 -216 85l125 111q23 -23 51 -32t82 -9h210q10 0 15 -20.5zM528.939 -427.245q-20.7461 20.7451 -20.7461 53.1094q0 32.3633 20.7461 53.1094q20.7461 20.7451 52.2793 20.7451t52.2793 -20.7451
q20.7461 -20.7461 20.7461 -53.1094q0 -32.3643 -20.7461 -53.1094q-20.7461 -20.7461 -52.2793 -20.7461t-52.2793 20.7461zM356.939 -427.245q-20.7461 20.7451 -20.7461 53.1094q0 32.3633 20.7461 53.1094q20.7461 20.7451 52.2793 20.7451t52.2793 -20.7451
q20.7461 -20.7461 20.7461 -53.1094q0 -32.3643 -20.7461 -53.1094q-20.7461 -20.7461 -52.2793 -20.7461t-52.2793 20.7461z" />
    <glyph glyph-name="uniFC4F" unicode="&#xfee7;&#xfef0;" horiz-adv-x="1115" arabic-form="isolated" 
d="M899 611q-25 25 -25 64t25 64t63 25t63 -25t25 -64t-25 -64t-63 -25t-63 25zM872 515h178v-515h-124q-7 -121 -111 -178.5t-332 -57.5q-214 0 -328.5 69.5t-114.5 220.5q0 33 5 78.5t15 85.5l173 -37q-7 -26 -11 -62t-4 -66q0 -47 20 -75t77 -42.5t164 -14.5
q143 0 197.5 20.5t57.5 59.5q-142 11 -216 85l125 111q23 -23 51 -32t82 -9h96v359z" />
    <glyph glyph-name="uniFC50" unicode="&#xfee7;&#xfef2;" horiz-adv-x="1115" arabic-form="isolated" 
d="M899 611q-25 25 -25 64t25 64t63 25t63 -25t25 -64t-25 -64t-63 -25t-63 25zM872 515h178v-515h-124q-7 -121 -111 -178.5t-332 -57.5q-214 0 -328.5 69.5t-114.5 220.5q0 33 5 78.5t15 85.5l173 -37q-7 -26 -11 -62t-4 -66q0 -47 20 -75t77 -42.5t164 -14.5
q143 0 197.5 20.5t57.5 59.5q-142 11 -216 85l125 111q23 -23 51 -32t82 -9h96v359zM528.939 -428.245q-20.7461 20.7451 -20.7461 53.1094q0 32.3633 20.7461 53.1094q20.7461 20.7451 52.2793 20.7451t52.2793 -20.7451q20.7461 -20.7461 20.7461 -53.1094
q0 -32.3643 -20.7461 -53.1094q-20.7461 -20.7461 -52.2793 -20.7461t-52.2793 20.7461zM356.939 -428.245q-20.7461 20.7451 -20.7461 53.1094q0 32.3633 20.7461 53.1094q20.7461 20.7451 52.2793 20.7451t52.2793 -20.7451q20.7461 -20.7461 20.7461 -53.1094
q0 -32.3643 -20.7461 -53.1094q-20.7461 -20.7461 -52.2793 -20.7461t-52.2793 20.7461z" />
    <glyph glyph-name="uniFC5A" unicode="&#xfef3;&#xfef2;" horiz-adv-x="1117" arabic-form="isolated" 
d="M815 -178.5q-104 -57.5 -332 -57.5q-214 0 -328.5 69.5t-114.5 220.5q0 33 5 78.5t15 85.5l173 -37q-7 -26 -11 -62t-4 -66q0 -47 20 -75t77 -42.5t164 -14.5q143 0 197.5 20.5t57.5 59.5q-142 11 -216 85l125 111q23 -23 51 -32t82 -9h96v359h178v-515h-124
q-7 -121 -111 -178.5zM930.5 -253q20.5 -21 20.5 -53t-20.5 -53t-52.5 -21t-52.5 21t-20.5 53t20.5 53t52.5 21t52.5 -21zM1102.5 -253q20.5 -21 20.5 -53t-20.5 -53t-52.5 -21t-52.5 21t-20.5 53t20.5 53t52.5 21t52.5 -21zM461.5 -321q20.5 -21 20.5 -53t-20.5 -53
t-52.5 -21t-52.5 21t-20.5 53t20.5 53t52.5 21t52.5 -21zM633.5 -321q20.5 -21 20.5 -53t-20.5 -53t-52.5 -21t-52.5 21t-20.5 53t20.5 53t52.5 21t52.5 -21z" />
    <glyph glyph-name="uniFC64" unicode="&#xfe8c;&#xfeae;" horiz-adv-x="754" arabic-form="final" 
d="M769 135.5q5 -20.5 5 -56.5q0 -37 -5 -58t-15 -21h-77q-102 0 -159 51t-66 148q-42 -13 -94 -13q-51 0 -98 14v-168q0 -118 -68.5 -188t-187.5 -76l-24 156q56 -1 79 23.5t23 84.5v483h178v-159q47 -14 98 -14q50 0 92 12v161h178v-276q0 -44 16.5 -63.5t57.5 -19.5h52
q10 0 15 -20.5zM669 675v-89h-258v89h19q-5 20 -5 38q0 57 40 93t102 36q49 0 93 -21l-40 -87q-9 5 -23.5 8.5t-28.5 3.5q-25 0 -39.5 -10t-14.5 -27q0 -11 7 -20.5t19 -13.5h129z" />
    <glyph glyph-name="uniFC65" unicode="&#xfe8c;&#xfeb0;" horiz-adv-x="754" arabic-form="final" 
d="M769 135.5q5 -20.5 5 -56.5q0 -37 -5 -58t-15 -21h-77q-102 0 -159 51t-66 148q-42 -13 -94 -13q-51 0 -98 14v-168q0 -118 -68.5 -188t-187.5 -76l-24 156q56 -1 79 23.5t23 84.5v483h178v-159q47 -14 98 -14q50 0 92 12v161h178v-276q0 -44 16.5 -63.5t57.5 -19.5h52
q10 0 15 -20.5zM669 675v-89h-258v89h19q-5 20 -5 38q0 57 40 93t102 36q49 0 93 -21l-40 -87q-9 5 -23.5 8.5t-28.5 3.5q-25 0 -39.5 -10t-14.5 -27q0 -11 7 -20.5t19 -13.5h129zM108 632q-25 25 -25 64t25 64t63 25t63 -25t25 -64t-25 -64t-63 -25t-63 25z" />
    <glyph glyph-name="uniFC67" unicode="&#xfe8c;&#xfee6;" horiz-adv-x="1258" arabic-form="final" 
d="M338 489q-25 25 -25 64t25 64t63 25t63 -25t25 -64t-25 -64t-63 -25t-63 25zM1273 135.5q5 -20.5 5 -56.5q0 -37 -5 -58t-15 -21h-77q-80 0 -133 32t-76 94q-55 -23 -123 -23q-45 0 -86 11q-9 -93 -57 -166t-126.5 -114.5t-177.5 -41.5q-105 0 -187.5 47.5t-128.5 130.5
t-46 185q0 80 30 175l161 -76q-13 -54 -13 -100q0 -59 22 -105.5t64 -73.5t98 -27t98 27t64.5 74t22.5 106q0 44 -12 95t-31 86l153 82q37 -64 56 -145q45 -14 96 -14q55 0 105 16v186h178v-222q0 -44 17 -63.5t57 -19.5h52q10 0 15 -20.5zM1170 607v-89h-258v89h19
q-5 20 -5 38q0 57 40 93t102 36q49 0 93 -21l-40 -87q-9 5 -23.5 8.5t-28.5 3.5q-25 0 -39.5 -10t-14.5 -27q0 -11 7 -20.5t19 -13.5h129z" />
    <glyph glyph-name="uniFC68" unicode="&#xfe8c;&#xfef0;" horiz-adv-x="1237" arabic-form="final" 
d="M790 586h-258v89h19q-5 20 -5 38q0 57 40 93t102 36q49 0 93 -21l-40 -87q-9 5 -23.5 8.5t-28.5 3.5q-25 0 -39.5 -10t-14.5 -27q0 -11 7 -20.5t19 -13.5h129v-89zM1252 135.5q5 -20.5 5 -56.5q0 -37 -5 -58t-15 -21h-47q-77 0 -133.5 48.5t-83.5 114.5
q-53 106 -139 159.5t-180 53.5q-104 0 -104 -56q0 -21 16.5 -35.5t41 -23.5t71.5 -22q75 -20 125 -42t86 -67.5t36 -121.5q0 -122 -106 -183t-336 -61q-215 0 -329.5 69.5t-114.5 220.5q0 33 5 78.5t15 85.5l173 -37q-7 -26 -11 -62t-4 -66q0 -47 20 -75t77 -42.5t164 -14.5
q104 0 161.5 11t79 30t21.5 47q0 32 -32.5 48.5t-102.5 35.5q-74 19 -122.5 39.5t-83.5 62.5t-35 111q0 68 34.5 119t102 79t163.5 28q118 0 201 -40t134 -97.5t105 -141.5q26 -49 53.5 -73t62.5 -24h16q10 0 15 -20.5z" />
    <glyph glyph-name="uniFC69" unicode="&#xfe8c;&#xfef2;" horiz-adv-x="1237" arabic-form="final" 
d="M790 586h-258v89h19q-5 20 -5 38q0 57 40 93t102 36q49 0 93 -21l-40 -87q-9 5 -23.5 8.5t-28.5 3.5q-25 0 -39.5 -10t-14.5 -27q0 -11 7 -20.5t19 -13.5h129v-89zM1252 135.5q5 -20.5 5 -56.5q0 -37 -5 -58t-15 -21h-47q-77 0 -133.5 48.5t-83.5 114.5
q-53 106 -139 159.5t-180 53.5q-104 0 -104 -56q0 -21 16.5 -35.5t41 -23.5t71.5 -22q75 -20 125 -42t86 -67.5t36 -121.5q0 -122 -106 -183t-336 -61q-215 0 -329.5 69.5t-114.5 220.5q0 33 5 78.5t15 85.5l173 -37q-7 -26 -11 -62t-4 -66q0 -47 20 -75t77 -42.5t164 -14.5
q104 0 161.5 11t79 30t21.5 47q0 32 -32.5 48.5t-102.5 35.5q-74 19 -122.5 39.5t-83.5 62.5t-35 111q0 68 34.5 119t102 79t163.5 28q118 0 201 -40t134 -97.5t105 -141.5q26 -49 53.5 -73t62.5 -24h16q10 0 15 -20.5zM528.939 -428.245q-20.7461 20.7451 -20.7461 53.1094
q0 32.3633 20.7461 53.1094q20.7461 20.7451 52.2793 20.7451t52.2793 -20.7451q20.7461 -20.7461 20.7461 -53.1094q0 -32.3643 -20.7461 -53.1094q-20.7461 -20.7461 -52.2793 -20.7461t-52.2793 20.7461zM356.939 -428.245q-20.7461 20.7451 -20.7461 53.1094
q0 32.3633 20.7461 53.1094q20.7461 20.7451 52.2793 20.7451t52.2793 -20.7451q20.7461 -20.7461 20.7461 -53.1094q0 -32.3643 -20.7461 -53.1094q-20.7461 -20.7461 -52.2793 -20.7461t-52.2793 20.7461z" />
    <glyph glyph-name="uniFC6A" unicode="&#xfe92;&#xfeae;" horiz-adv-x="754" arabic-form="final" 
d="M769 135.5q5 -20.5 5 -56.5q0 -37 -5 -58t-15 -21h-77q-102 0 -159 51t-66 148q-42 -13 -94 -13q-51 0 -98 14v-168q0 -118 -68.5 -188t-187.5 -76l-24 156q56 -1 79 23.5t23 84.5v483h178v-159q47 -14 98 -14q50 0 92 12v161h178v-276q0 -44 16.5 -63.5t57.5 -19.5h52
q10 0 15 -20.5zM472 -233q-25 25 -25 64t25 64t63 25t63 -25t25 -64t-25 -64t-63 -25t-63 25z" />
    <glyph glyph-name="uniFC6B" unicode="&#xfe92;&#xfeb0;" horiz-adv-x="754" arabic-form="final" 
d="M769 135.5q5 -20.5 5 -56.5q0 -37 -5 -58t-15 -21h-77q-102 0 -159 51t-66 148q-42 -13 -94 -13q-51 0 -98 14v-168q0 -118 -68.5 -188t-187.5 -76l-24 156q56 -1 79 23.5t23 84.5v483h178v-159q47 -14 98 -14q50 0 92 12v161h178v-276q0 -44 16.5 -63.5t57.5 -19.5h52
q10 0 15 -20.5zM472 -233q-25 25 -25 64t25 64t63 25t63 -25t25 -64t-25 -64t-63 -25t-63 25zM107 632q-25 25 -25 64t25 64t63 25t63 -25t25 -64t-25 -64t-63 -25t-63 25z" />
    <glyph glyph-name="uniFC6D" unicode="&#xfe92;&#xfee6;" horiz-adv-x="1258" arabic-form="final" 
d="M338 489q-25 25 -25 64t25 64t63 25t63 -25t25 -64t-25 -64t-63 -25t-63 25zM1273 135.5q5 -20.5 5 -56.5q0 -37 -5 -58t-15 -21h-77q-80 0 -133 32t-76 94q-55 -23 -123 -23q-45 0 -86 11q-9 -93 -57 -166t-126.5 -114.5t-177.5 -41.5q-105 0 -187.5 47.5t-128.5 130.5
t-46 185q0 80 30 175l161 -76q-13 -54 -13 -100q0 -59 22 -105.5t64 -73.5t98 -27t98 27t64.5 74t22.5 106q0 44 -12 95t-31 86l153 82q37 -64 56 -145q45 -14 96 -14q55 0 105 16v186h178v-222q0 -44 17 -63.5t57 -19.5h52q10 0 15 -20.5zM973 -233q-25 25 -25 64t25 64
t63 25t63 -25t25 -64t-25 -64t-63 -25t-63 25z" />
    <glyph glyph-name="uniFC6E" unicode="&#xfe92;&#xfef0;" horiz-adv-x="1237" arabic-form="final" 
d="M1252 135.5q5 -20.5 5 -56.5q0 -37 -5 -58t-15 -21h-47q-77 0 -133.5 48.5t-83.5 114.5q-53 106 -139 159.5t-180 53.5q-104 0 -104 -56q0 -21 16.5 -35.5t41 -23.5t71.5 -22q75 -20 125 -42t86 -67.5t36 -121.5q0 -122 -106 -183t-336 -61q-215 0 -329.5 69.5
t-114.5 220.5q0 33 5 78.5t15 85.5l173 -37q-7 -26 -11 -62t-4 -66q0 -47 20 -75t77 -42.5t164 -14.5q104 0 161.5 11t79 30t21.5 47q0 32 -32.5 48.5t-102.5 35.5q-74 19 -122.5 39.5t-83.5 62.5t-35 111q0 68 34.5 119t102 79t163.5 28q118 0 201 -40t134 -97.5
t105 -141.5q26 -49 53.5 -73t62.5 -24h16q10 0 15 -20.5zM1199 -105q25 -25 25 -64t-25 -64t-63 -25t-63 25t-25 64t25 64t63 25t63 -25z" />
    <glyph glyph-name="uniFC6F" unicode="&#xfe92;&#xfef2;" horiz-adv-x="1237" arabic-form="final" 
d="M1252 135.5q5 -20.5 5 -56.5q0 -37 -5 -58t-15 -21h-47q-77 0 -133.5 48.5t-83.5 114.5q-53 106 -139 159.5t-180 53.5q-104 0 -104 -56q0 -21 16.5 -35.5t41 -23.5t71.5 -22q75 -20 125 -42t86 -67.5t36 -121.5q0 -122 -106 -183t-336 -61q-215 0 -329.5 69.5
t-114.5 220.5q0 33 5 78.5t15 85.5l173 -37q-7 -26 -11 -62t-4 -66q0 -47 20 -75t77 -42.5t164 -14.5q104 0 161.5 11t79 30t21.5 47q0 32 -32.5 48.5t-102.5 35.5q-74 19 -122.5 39.5t-83.5 62.5t-35 111q0 68 34.5 119t102 79t163.5 28q118 0 201 -40t134 -97.5
t105 -141.5q26 -49 53.5 -73t62.5 -24h16q10 0 15 -20.5zM1199 -105q25 -25 25 -64t-25 -64t-63 -25t-63 25t-25 64t25 64t63 25t63 -25zM528.939 -428.245q-20.7461 20.7451 -20.7461 53.1094q0 32.3633 20.7461 53.1094q20.7461 20.7451 52.2793 20.7451t52.2793 -20.7451
q20.7461 -20.7461 20.7461 -53.1094q0 -32.3643 -20.7461 -53.1094q-20.7461 -20.7461 -52.2793 -20.7461t-52.2793 20.7461zM356.939 -428.245q-20.7461 20.7451 -20.7461 53.1094q0 32.3633 20.7461 53.1094q20.7461 20.7451 52.2793 20.7451t52.2793 -20.7451
q20.7461 -20.7461 20.7461 -53.1094q0 -32.3643 -20.7461 -53.1094q-20.7461 -20.7461 -52.2793 -20.7461t-52.2793 20.7461z" />
    <glyph glyph-name="uniFC70" unicode="&#xfe98;&#xfeae;" horiz-adv-x="754" arabic-form="final" 
d="M769 135.5q5 -20.5 5 -56.5q0 -37 -5 -58t-15 -21h-77q-102 0 -159 51t-66 148q-42 -13 -94 -13q-51 0 -98 14v-168q0 -118 -68.5 -188t-187.5 -76l-24 156q56 -1 79 23.5t23 84.5v483h178v-159q47 -14 98 -14q50 0 92 12v161h178v-276q0 -44 16.5 -63.5t57.5 -19.5h52
q10 0 15 -20.5zM574.939 605.755q-20.7461 20.7451 -20.7461 53.1094q0 32.3633 20.7461 53.1094q20.7461 20.7451 52.2793 20.7451t52.2793 -20.7451q20.7461 -20.7461 20.7461 -53.1094q0 -32.3643 -20.7461 -53.1094q-20.7461 -20.7461 -52.2793 -20.7461
t-52.2793 20.7461zM402.939 605.755q-20.7461 20.7451 -20.7461 53.1094q0 32.3633 20.7461 53.1094q20.7461 20.7451 52.2793 20.7451t52.2793 -20.7451q20.7461 -20.7461 20.7461 -53.1094q0 -32.3643 -20.7461 -53.1094q-20.7461 -20.7461 -52.2793 -20.7461
t-52.2793 20.7461z" />
    <glyph glyph-name="uniFC71" unicode="&#xfe98;&#xfeb0;" horiz-adv-x="754" arabic-form="final" 
d="M769 135.5q5 -20.5 5 -56.5q0 -37 -5 -58t-15 -21h-77q-102 0 -159 51t-66 148q-42 -13 -94 -13q-51 0 -98 14v-168q0 -118 -68.5 -188t-187.5 -76l-24 156q56 -1 79 23.5t23 84.5v483h178v-159q47 -14 98 -14q50 0 92 12v161h178v-276q0 -44 16.5 -63.5t57.5 -19.5h52
q10 0 15 -20.5zM574.939 605.755q-20.7461 20.7451 -20.7461 53.1094q0 32.3633 20.7461 53.1094q20.7461 20.7451 52.2793 20.7451t52.2793 -20.7451q20.7461 -20.7461 20.7461 -53.1094q0 -32.3643 -20.7461 -53.1094q-20.7461 -20.7461 -52.2793 -20.7461
t-52.2793 20.7461zM402.939 605.755q-20.7461 20.7451 -20.7461 53.1094q0 32.3633 20.7461 53.1094q20.7461 20.7451 52.2793 20.7451t52.2793 -20.7451q20.7461 -20.7461 20.7461 -53.1094q0 -32.3643 -20.7461 -53.1094q-20.7461 -20.7461 -52.2793 -20.7461
t-52.2793 20.7461zM107 632q-25 25 -25 64t25 64t63 25t63 -25t25 -64t-25 -64t-63 -25t-63 25z" />
    <glyph glyph-name="uniFC73" unicode="&#xfe98;&#xfee6;" horiz-adv-x="1258" arabic-form="final" 
d="M338 489q-25 25 -25 64t25 64t63 25t63 -25t25 -64t-25 -64t-63 -25t-63 25zM1273 135.5q5 -20.5 5 -56.5q0 -37 -5 -58t-15 -21h-77q-80 0 -133 32t-76 94q-55 -23 -123 -23q-45 0 -86 11q-9 -93 -57 -166t-126.5 -114.5t-177.5 -41.5q-105 0 -187.5 47.5t-128.5 130.5
t-46 185q0 80 30 175l161 -76q-13 -54 -13 -100q0 -59 22 -105.5t64 -73.5t98 -27t98 27t64.5 74t22.5 106q0 44 -12 95t-31 86l153 82q37 -64 56 -145q45 -14 96 -14q55 0 105 16v186h178v-222q0 -44 17 -63.5t57 -19.5h52q10 0 15 -20.5zM1075.94 537.755
q-20.7461 20.7451 -20.7461 53.1094q0 32.3633 20.7461 53.1094q20.7461 20.7451 52.2793 20.7451t52.2793 -20.7451q20.7461 -20.7461 20.7461 -53.1094q0 -32.3643 -20.7461 -53.1094q-20.7461 -20.7461 -52.2793 -20.7461t-52.2793 20.7461zM903.939 537.755
q-20.7461 20.7451 -20.7461 53.1094q0 32.3633 20.7461 53.1094q20.7461 20.7451 52.2793 20.7451t52.2793 -20.7451q20.7461 -20.7461 20.7461 -53.1094q0 -32.3643 -20.7461 -53.1094q-20.7461 -20.7461 -52.2793 -20.7461t-52.2793 20.7461z" />
    <glyph glyph-name="uniFC74" unicode="&#xfe98;&#xfef0;" horiz-adv-x="1237" arabic-form="final" 
d="M525.5 623q-20.5 21 -20.5 53t20.5 53t52.5 21t52.5 -21t20.5 -53t-20.5 -53t-52.5 -21t-52.5 21zM697.5 623q-20.5 21 -20.5 53t20.5 53t52.5 21t52.5 -21t20.5 -53t-20.5 -53t-52.5 -21t-52.5 21zM1252 135.5q5 -20.5 5 -56.5q0 -37 -5 -58t-15 -21h-47
q-77 0 -133.5 48.5t-83.5 114.5q-53 106 -139 159.5t-180 53.5q-104 0 -104 -56q0 -21 16.5 -35.5t41 -23.5t71.5 -22q75 -20 125 -42t86 -67.5t36 -121.5q0 -122 -106 -183t-336 -61q-215 0 -329.5 69.5t-114.5 220.5q0 33 5 78.5t15 85.5l173 -37q-7 -26 -11 -62t-4 -66
q0 -47 20 -75t77 -42.5t164 -14.5q104 0 161.5 11t79 30t21.5 47q0 32 -32.5 48.5t-102.5 35.5q-74 19 -122.5 39.5t-83.5 62.5t-35 111q0 68 34.5 119t102 79t163.5 28q118 0 201 -40t134 -97.5t105 -141.5q26 -49 53.5 -73t62.5 -24h16q10 0 15 -20.5z" />
    <glyph glyph-name="uniFC75" unicode="&#xfe98;&#xfef2;" horiz-adv-x="1237" arabic-form="final" 
d="M525.5 623q-20.5 21 -20.5 53t20.5 53t52.5 21t52.5 -21t20.5 -53t-20.5 -53t-52.5 -21t-52.5 21zM697.5 623q-20.5 21 -20.5 53t20.5 53t52.5 21t52.5 -21t20.5 -53t-20.5 -53t-52.5 -21t-52.5 21zM1252 135.5q5 -20.5 5 -56.5q0 -37 -5 -58t-15 -21h-47
q-77 0 -133.5 48.5t-83.5 114.5q-53 106 -139 159.5t-180 53.5q-104 0 -104 -56q0 -21 16.5 -35.5t41 -23.5t71.5 -22q75 -20 125 -42t86 -67.5t36 -121.5q0 -122 -106 -183t-336 -61q-215 0 -329.5 69.5t-114.5 220.5q0 33 5 78.5t15 85.5l173 -37q-7 -26 -11 -62t-4 -66
q0 -47 20 -75t77 -42.5t164 -14.5q104 0 161.5 11t79 30t21.5 47q0 32 -32.5 48.5t-102.5 35.5q-74 19 -122.5 39.5t-83.5 62.5t-35 111q0 68 34.5 119t102 79t163.5 28q118 0 201 -40t134 -97.5t105 -141.5q26 -49 53.5 -73t62.5 -24h16q10 0 15 -20.5zM528.939 -428.245
q-20.7461 20.7451 -20.7461 53.1094q0 32.3633 20.7461 53.1094q20.7461 20.7451 52.2793 20.7451t52.2793 -20.7451q20.7461 -20.7461 20.7461 -53.1094q0 -32.3643 -20.7461 -53.1094q-20.7461 -20.7461 -52.2793 -20.7461t-52.2793 20.7461zM356.939 -428.245
q-20.7461 20.7451 -20.7461 53.1094q0 32.3633 20.7461 53.1094q20.7461 20.7451 52.2793 20.7451t52.2793 -20.7451q20.7461 -20.7461 20.7461 -53.1094q0 -32.3643 -20.7461 -53.1094q-20.7461 -20.7461 -52.2793 -20.7461t-52.2793 20.7461z" />
    <glyph glyph-name="uniFC76" unicode="&#xfe9c;&#xfeae;" horiz-adv-x="754" arabic-form="final" 
d="M769 135.5q5 -20.5 5 -56.5q0 -37 -5 -58t-15 -21h-77q-102 0 -159 51t-66 148q-42 -13 -94 -13q-51 0 -98 14v-168q0 -118 -68.5 -188t-187.5 -76l-24 156q56 -1 79 23.5t23 84.5v483h178v-159q47 -14 98 -14q50 0 92 12v161h178v-276q0 -44 16.5 -63.5t57.5 -19.5h52
q10 0 15 -20.5zM588.5 868.5q19.5 -19.5 19.5 -48.5q0 -30 -19 -49.5t-49 -19.5t-49 19t-19 50q0 29 19 48.5t49 19.5q29 0 48.5 -19.5zM506.5 712q20.5 -21 20.5 -53t-20.5 -53t-52.5 -21t-52.5 21t-20.5 53t20.5 53t52.5 21t52.5 -21zM678.5 712q20.5 -21 20.5 -53
t-20.5 -53t-52.5 -21t-52.5 21t-20.5 53t20.5 53t52.5 21t52.5 -21z" />
    <glyph glyph-name="uniFC77" unicode="&#xfe9c;&#xfeb0;" horiz-adv-x="754" arabic-form="final" 
d="M769 135.5q5 -20.5 5 -56.5q0 -37 -5 -58t-15 -21h-77q-102 0 -159 51t-66 148q-42 -13 -94 -13q-51 0 -98 14v-168q0 -118 -68.5 -188t-187.5 -76l-24 156q56 -1 79 23.5t23 84.5v483h178v-159q47 -14 98 -14q50 0 92 12v161h178v-276q0 -44 16.5 -63.5t57.5 -19.5h52
q10 0 15 -20.5zM588.5 868.5q19.5 -19.5 19.5 -48.5q0 -30 -19 -49.5t-49 -19.5t-49 19t-19 50q0 29 19 48.5t49 19.5q29 0 48.5 -19.5zM506.5 712q20.5 -21 20.5 -53t-20.5 -53t-52.5 -21t-52.5 21t-20.5 53t20.5 53t52.5 21t52.5 -21zM678.5 712q20.5 -21 20.5 -53
t-20.5 -53t-52.5 -21t-52.5 21t-20.5 53t20.5 53t52.5 21t52.5 -21zM107 632q-25 25 -25 64t25 64t63 25t63 -25t25 -64t-25 -64t-63 -25t-63 25z" />
    <glyph glyph-name="uniFC79" unicode="&#xfe9c;&#xfee6;" horiz-adv-x="1258" arabic-form="final" 
d="M338 489q-25 25 -25 64t25 64t63 25t63 -25t25 -64t-25 -64t-63 -25t-63 25zM1273 135.5q5 -20.5 5 -56.5q0 -37 -5 -58t-15 -21h-77q-80 0 -133 32t-76 94q-55 -23 -123 -23q-45 0 -86 11q-9 -93 -57 -166t-126.5 -114.5t-177.5 -41.5q-105 0 -187.5 47.5t-128.5 130.5
t-46 185q0 80 30 175l161 -76q-13 -54 -13 -100q0 -59 22 -105.5t64 -73.5t98 -27t98 27t64.5 74t22.5 106q0 44 -12 95t-31 86l153 82q37 -64 56 -145q45 -14 96 -14q55 0 105 16v186h178v-222q0 -44 17 -63.5t57 -19.5h52q10 0 15 -20.5zM1089.5 799.5
q19.5 -19.5 19.5 -48.5q0 -30 -19 -49.5t-49 -19.5t-49 19t-19 50q0 29 19 48.5t49 19.5q29 0 48.5 -19.5zM1007.5 643q20.5 -21 20.5 -53t-20.5 -53t-52.5 -21t-52.5 21t-20.5 53t20.5 53t52.5 21t52.5 -21zM1179.5 643q20.5 -21 20.5 -53t-20.5 -53t-52.5 -21t-52.5 21
t-20.5 53t20.5 53t52.5 21t52.5 -21z" />
    <glyph glyph-name="uniFC7A" unicode="&#xfe9c;&#xfef0;" horiz-adv-x="1237" arabic-form="final" 
d="M614 786q-19 19 -19 50q0 29 19 48.5t49 19.5q29 0 48.5 -19.5t19.5 -48.5q0 -30 -19 -49.5t-49 -19.5t-49 19zM524.5 622q-20.5 21 -20.5 53t20.5 53t52.5 21t52.5 -21t20.5 -53t-20.5 -53t-52.5 -21t-52.5 21zM696.5 728q20.5 21 52.5 21t52.5 -21t20.5 -53t-20.5 -53
t-52.5 -21t-52.5 21t-20.5 53t20.5 53zM1252 135.5q5 -20.5 5 -56.5q0 -37 -5 -58t-15 -21h-47q-77 0 -133.5 48.5t-83.5 114.5q-53 106 -139 159.5t-180 53.5q-104 0 -104 -56q0 -21 16.5 -35.5t41 -23.5t71.5 -22q75 -20 125 -42t86 -67.5t36 -121.5q0 -122 -106 -183
t-336 -61q-215 0 -329.5 69.5t-114.5 220.5q0 33 5 78.5t15 85.5l173 -37q-7 -26 -11 -62t-4 -66q0 -47 20 -75t77 -42.5t164 -14.5q104 0 161.5 11t79 30t21.5 47q0 32 -32.5 48.5t-102.5 35.5q-74 19 -122.5 39.5t-83.5 62.5t-35 111q0 68 34.5 119t102 79t163.5 28
q118 0 201 -40t134 -97.5t105 -141.5q26 -49 53.5 -73t62.5 -24h16q10 0 15 -20.5z" />
    <glyph glyph-name="uniFC7B" unicode="&#xfe9c;&#xfef2;" horiz-adv-x="1237" arabic-form="final" 
d="M614 786q-19 19 -19 50q0 29 19 48.5t49 19.5q29 0 48.5 -19.5t19.5 -48.5q0 -30 -19 -49.5t-49 -19.5t-49 19zM524.5 622q-20.5 21 -20.5 53t20.5 53t52.5 21t52.5 -21t20.5 -53t-20.5 -53t-52.5 -21t-52.5 21zM696.5 728q20.5 21 52.5 21t52.5 -21t20.5 -53t-20.5 -53
t-52.5 -21t-52.5 21t-20.5 53t20.5 53zM1252 135.5q5 -20.5 5 -56.5q0 -37 -5 -58t-15 -21h-47q-77 0 -133.5 48.5t-83.5 114.5q-53 106 -139 159.5t-180 53.5q-104 0 -104 -56q0 -21 16.5 -35.5t41 -23.5t71.5 -22q75 -20 125 -42t86 -67.5t36 -121.5q0 -122 -106 -183
t-336 -61q-215 0 -329.5 69.5t-114.5 220.5q0 33 5 78.5t15 85.5l173 -37q-7 -26 -11 -62t-4 -66q0 -47 20 -75t77 -42.5t164 -14.5q104 0 161.5 11t79 30t21.5 47q0 32 -32.5 48.5t-102.5 35.5q-74 19 -122.5 39.5t-83.5 62.5t-35 111q0 68 34.5 119t102 79t163.5 28
q118 0 201 -40t134 -97.5t105 -141.5q26 -49 53.5 -73t62.5 -24h16q10 0 15 -20.5zM528.939 -428.245q-20.7461 20.7451 -20.7461 53.1094q0 32.3633 20.7461 53.1094q20.7461 20.7451 52.2793 20.7451t52.2793 -20.7451q20.7461 -20.7461 20.7461 -53.1094
q0 -32.3643 -20.7461 -53.1094q-20.7461 -20.7461 -52.2793 -20.7461t-52.2793 20.7461zM356.939 -428.245q-20.7461 20.7451 -20.7461 53.1094q0 32.3633 20.7461 53.1094q20.7461 20.7451 52.2793 20.7451t52.2793 -20.7451q20.7461 -20.7461 20.7461 -53.1094
q0 -32.3643 -20.7461 -53.1094q-20.7461 -20.7461 -52.2793 -20.7461t-52.2793 20.7461z" />
    <glyph glyph-name="uniFC83" unicode="&#xfedc;&#xfef0;" horiz-adv-x="1236" arabic-form="final" 
d="M1251 135.5q5 -20.5 5 -56.5q0 -37 -5 -58t-15 -21h-310q-7 -121 -111 -178.5t-332 -57.5q-214 0 -328.5 69.5t-114.5 220.5q0 33 5 78.5t15 85.5l173 -37q-7 -26 -11 -62t-4 -66q0 -47 20 -75t77 -42.5t164 -14.5q143 0 197.5 20.5t57.5 59.5q-142 11 -216 85l125 111
q23 -23 51 -32t82 -9h142v9q0 83 -39 126.5t-114 43.5l-109 111l275 276l109 -110l-140 -141q93 -31 145 -111.5t52 -203.5h139q10 0 15 -20.5z" />
    <glyph glyph-name="uniFC84" unicode="&#xfedc;&#xfef2;" horiz-adv-x="1236" arabic-form="final" 
d="M1251 135.5q5 -20.5 5 -56.5q0 -37 -5 -58t-15 -21h-310q-7 -121 -111 -178.5t-332 -57.5q-214 0 -328.5 69.5t-114.5 220.5q0 33 5 78.5t15 85.5l173 -37q-7 -26 -11 -62t-4 -66q0 -47 20 -75t77 -42.5t164 -14.5q143 0 197.5 20.5t57.5 59.5q-142 11 -216 85l125 111
q23 -23 51 -32t82 -9h142v9q0 83 -39 126.5t-114 43.5l-109 111l275 276l109 -110l-140 -141q93 -31 145 -111.5t52 -203.5h139q10 0 15 -20.5zM528.939 -428.245q-20.7461 20.7451 -20.7461 53.1094q0 32.3633 20.7461 53.1094q20.7461 20.7451 52.2793 20.7451
t52.2793 -20.7451q20.7461 -20.7461 20.7461 -53.1094q0 -32.3643 -20.7461 -53.1094q-20.7461 -20.7461 -52.2793 -20.7461t-52.2793 20.7461zM356.939 -428.245q-20.7461 20.7451 -20.7461 53.1094q0 32.3633 20.7461 53.1094q20.7461 20.7451 52.2793 20.7451
t52.2793 -20.7451q20.7461 -20.7461 20.7461 -53.1094q0 -32.3643 -20.7461 -53.1094q-20.7461 -20.7461 -52.2793 -20.7461t-52.2793 20.7461z" />
    <glyph glyph-name="uniFC86" unicode="&#xfee0;&#xfef0;" horiz-adv-x="1143" arabic-form="final" 
d="M858 753h178v-753h-110q-7 -121 -111 -178.5t-332 -57.5q-214 0 -328.5 69.5t-114.5 220.5q0 33 5 78.5t15 85.5l173 -37q-7 -26 -11 -62t-4 -66q0 -47 20 -75t77 -42.5t164 -14.5q143 0 197.5 20.5t57.5 59.5q-142 11 -216 85l125 111q23 -23 51 -32t82 -9h82v597z
M1158 135.5q5 -20.5 5 -56.5q0 -37 -5 -58t-15 -21h-106v156h106q10 0 15 -20.5z" />
    <glyph glyph-name="uniFC87" unicode="&#xfee0;&#xfef2;" horiz-adv-x="1143" arabic-form="final" 
d="M858 753h178v-753h-110q-7 -121 -111 -178.5t-332 -57.5q-214 0 -328.5 69.5t-114.5 220.5q0 33 5 78.5t15 85.5l173 -37q-7 -26 -11 -62t-4 -66q0 -47 20 -75t77 -42.5t164 -14.5q143 0 197.5 20.5t57.5 59.5q-142 11 -216 85l125 111q23 -23 51 -32t82 -9h82v597z
M1158 135.5q5 -20.5 5 -56.5q0 -37 -5 -58t-15 -21h-106v156h106q10 0 15 -20.5zM528.939 -427.245q-20.7461 20.7451 -20.7461 53.1094q0 32.3633 20.7461 53.1094q20.7461 20.7451 52.2793 20.7451t52.2793 -20.7451q20.7461 -20.7461 20.7461 -53.1094
q0 -32.3643 -20.7461 -53.1094q-20.7461 -20.7461 -52.2793 -20.7461t-52.2793 20.7461zM356.939 -427.245q-20.7461 20.7451 -20.7461 53.1094q0 32.3633 20.7461 53.1094q20.7461 20.7451 52.2793 20.7451t52.2793 -20.7451q20.7461 -20.7461 20.7461 -53.1094
q0 -32.3643 -20.7461 -53.1094q-20.7461 -20.7461 -52.2793 -20.7461t-52.2793 20.7461z" />
    <glyph glyph-name="uniFC8A" unicode="&#xfee8;&#xfeae;" horiz-adv-x="754" arabic-form="final" 
d="M769 135.5q5 -20.5 5 -56.5q0 -37 -5 -58t-15 -21h-77q-102 0 -159 51t-66 148q-42 -13 -94 -13q-51 0 -98 14v-168q0 -118 -68.5 -188t-187.5 -76l-24 156q56 -1 79 23.5t23 84.5v483h178v-159q47 -14 98 -14q50 0 92 12v161h178v-276q0 -44 16.5 -63.5t57.5 -19.5h52
q10 0 15 -20.5zM477 611q-25 25 -25 64t25 64t63 25t63 -25t25 -64t-25 -64t-63 -25t-63 25z" />
    <glyph glyph-name="uniFC8B" unicode="&#xfee8;&#xfeb0;" horiz-adv-x="754" arabic-form="final" 
d="M769 135.5q5 -20.5 5 -56.5q0 -37 -5 -58t-15 -21h-77q-102 0 -159 51t-66 148q-42 -13 -94 -13q-51 0 -98 14v-168q0 -118 -68.5 -188t-187.5 -76l-24 156q56 -1 79 23.5t23 84.5v483h178v-159q47 -14 98 -14q50 0 92 12v161h178v-276q0 -44 16.5 -63.5t57.5 -19.5h52
q10 0 15 -20.5zM477 611q-25 25 -25 64t25 64t63 25t63 -25t25 -64t-25 -64t-63 -25t-63 25zM107 632q-25 25 -25 64t25 64t63 25t63 -25t25 -64t-25 -64t-63 -25t-63 25z" />
    <glyph glyph-name="uniFC8D" unicode="&#xfee8;&#xfee6;" horiz-adv-x="1258" arabic-form="final" 
d="M338 489q-25 25 -25 64t25 64t63 25t63 -25t25 -64t-25 -64t-63 -25t-63 25zM1273 135.5q5 -20.5 5 -56.5q0 -37 -5 -58t-15 -21h-77q-80 0 -133 32t-76 94q-55 -23 -123 -23q-45 0 -86 11q-9 -93 -57 -166t-126.5 -114.5t-177.5 -41.5q-105 0 -187.5 47.5t-128.5 130.5
t-46 185q0 80 30 175l161 -76q-13 -54 -13 -100q0 -59 22 -105.5t64 -73.5t98 -27t98 27t64.5 74t22.5 106q0 44 -12 95t-31 86l153 82q37 -64 56 -145q45 -14 96 -14q55 0 105 16v186h178v-222q0 -44 17 -63.5t57 -19.5h52q10 0 15 -20.5zM978 543q-25 25 -25 64t25 64
t63 25t63 -25t25 -64t-25 -64t-63 -25t-63 25z" />
    <glyph glyph-name="uniFC8E" unicode="&#xfee8;&#xfef0;" horiz-adv-x="1237" arabic-form="final" 
d="M600 611q-25 25 -25 64t25 64t63 25t63 -25t25 -64t-25 -64t-63 -25t-63 25zM1252 135.5q5 -20.5 5 -56.5q0 -37 -5 -58t-15 -21h-47q-77 0 -133.5 48.5t-83.5 114.5q-53 106 -139 159.5t-180 53.5q-104 0 -104 -56q0 -21 16.5 -35.5t41 -23.5t71.5 -22q75 -20 125 -42
t86 -67.5t36 -121.5q0 -122 -106 -183t-336 -61q-215 0 -329.5 69.5t-114.5 220.5q0 33 5 78.5t15 85.5l173 -37q-7 -26 -11 -62t-4 -66q0 -47 20 -75t77 -42.5t164 -14.5q104 0 161.5 11t79 30t21.5 47q0 32 -32.5 48.5t-102.5 35.5q-74 19 -122.5 39.5t-83.5 62.5t-35 111
q0 68 34.5 119t102 79t163.5 28q118 0 201 -40t134 -97.5t105 -141.5q26 -49 53.5 -73t62.5 -24h16q10 0 15 -20.5z" />
    <glyph glyph-name="uniFC8F" unicode="&#xfee8;&#xfef2;" horiz-adv-x="1237" arabic-form="final" 
d="M600 611q-25 25 -25 64t25 64t63 25t63 -25t25 -64t-25 -64t-63 -25t-63 25zM1252 135.5q5 -20.5 5 -56.5q0 -37 -5 -58t-15 -21h-47q-77 0 -133.5 48.5t-83.5 114.5q-53 106 -139 159.5t-180 53.5q-104 0 -104 -56q0 -21 16.5 -35.5t41 -23.5t71.5 -22q75 -20 125 -42
t86 -67.5t36 -121.5q0 -122 -106 -183t-336 -61q-215 0 -329.5 69.5t-114.5 220.5q0 33 5 78.5t15 85.5l173 -37q-7 -26 -11 -62t-4 -66q0 -47 20 -75t77 -42.5t164 -14.5q104 0 161.5 11t79 30t21.5 47q0 32 -32.5 48.5t-102.5 35.5q-74 19 -122.5 39.5t-83.5 62.5t-35 111
q0 68 34.5 119t102 79t163.5 28q118 0 201 -40t134 -97.5t105 -141.5q26 -49 53.5 -73t62.5 -24h16q10 0 15 -20.5zM528.939 -428.245q-20.7461 20.7451 -20.7461 53.1094q0 32.3633 20.7461 53.1094q20.7461 20.7451 52.2793 20.7451t52.2793 -20.7451
q20.7461 -20.7461 20.7461 -53.1094q0 -32.3643 -20.7461 -53.1094q-20.7461 -20.7461 -52.2793 -20.7461t-52.2793 20.7461zM356.939 -428.245q-20.7461 20.7451 -20.7461 53.1094q0 32.3633 20.7461 53.1094q20.7461 20.7451 52.2793 20.7451t52.2793 -20.7451
q20.7461 -20.7461 20.7461 -53.1094q0 -32.3643 -20.7461 -53.1094q-20.7461 -20.7461 -52.2793 -20.7461t-52.2793 20.7461z" />
    <glyph glyph-name="uniFC91" unicode="&#xfef4;&#xfeae;" horiz-adv-x="754" arabic-form="final" 
d="M769 135.5q5 -20.5 5 -56.5q0 -37 -5 -58t-15 -21h-77q-102 0 -159 51t-66 148q-42 -13 -94 -13q-51 0 -98 14v-168q0 -118 -68.5 -188t-187.5 -76l-24 156q56 -1 79 23.5t23 84.5v483h178v-159q47 -14 98 -14q50 0 92 12v161h178v-276q0 -44 16.5 -63.5t57.5 -19.5h52
q10 0 15 -20.5zM573.939 -205.245q-20.7461 20.7451 -20.7461 53.1094q0 32.3633 20.7461 53.1094q20.7461 20.7451 52.2793 20.7451t52.2793 -20.7451q20.7461 -20.7461 20.7461 -53.1094q0 -32.3643 -20.7461 -53.1094q-20.7461 -20.7461 -52.2793 -20.7461
t-52.2793 20.7461zM401.939 -205.245q-20.7461 20.7451 -20.7461 53.1094q0 32.3633 20.7461 53.1094q20.7461 20.7451 52.2793 20.7451t52.2793 -20.7451q20.7461 -20.7461 20.7461 -53.1094q0 -32.3643 -20.7461 -53.1094q-20.7461 -20.7461 -52.2793 -20.7461
t-52.2793 20.7461z" />
    <glyph glyph-name="uniFC92" unicode="&#xfef4;&#xfeb0;" horiz-adv-x="754" arabic-form="final" 
d="M769 135.5q5 -20.5 5 -56.5q0 -37 -5 -58t-15 -21h-77q-102 0 -159 51t-66 148q-42 -13 -94 -13q-51 0 -98 14v-168q0 -118 -68.5 -188t-187.5 -76l-24 156q56 -1 79 23.5t23 84.5v483h178v-159q47 -14 98 -14q50 0 92 12v161h178v-276q0 -44 16.5 -63.5t57.5 -19.5h52
q10 0 15 -20.5zM108 632q-25 25 -25 64t25 64t63 25t63 -25t25 -64t-25 -64t-63 -25t-63 25zM573.939 -205.245q-20.7461 20.7451 -20.7461 53.1094q0 32.3633 20.7461 53.1094q20.7461 20.7451 52.2793 20.7451t52.2793 -20.7451q20.7461 -20.7461 20.7461 -53.1094
q0 -32.3643 -20.7461 -53.1094q-20.7461 -20.7461 -52.2793 -20.7461t-52.2793 20.7461zM401.939 -205.245q-20.7461 20.7451 -20.7461 53.1094q0 32.3633 20.7461 53.1094q20.7461 20.7451 52.2793 20.7451t52.2793 -20.7451q20.7461 -20.7461 20.7461 -53.1094
q0 -32.3643 -20.7461 -53.1094q-20.7461 -20.7461 -52.2793 -20.7461t-52.2793 20.7461z" />
    <glyph glyph-name="uniFC94" unicode="&#xfef4;&#xfee6;" horiz-adv-x="1258" arabic-form="final" 
d="M338 489q-25 25 -25 64t25 64t63 25t63 -25t25 -64t-25 -64t-63 -25t-63 25zM1273 135.5q5 -20.5 5 -56.5q0 -37 -5 -58t-15 -21h-77q-80 0 -133 32t-76 94q-55 -23 -123 -23q-45 0 -86 11q-9 -93 -57 -166t-126.5 -114.5t-177.5 -41.5q-105 0 -187.5 47.5t-128.5 130.5
t-46 185q0 80 30 175l161 -76q-13 -54 -13 -100q0 -59 22 -105.5t64 -73.5t98 -27t98 27t64.5 74t22.5 106q0 44 -12 95t-31 86l153 82q37 -64 56 -145q45 -14 96 -14q55 0 105 16v186h178v-222q0 -44 17 -63.5t57 -19.5h52q10 0 15 -20.5zM1074.94 -205.245
q-20.7461 20.7451 -20.7461 53.1094q0 32.3633 20.7461 53.1094q20.7461 20.7451 52.2793 20.7451t52.2793 -20.7451q20.7461 -20.7461 20.7461 -53.1094q0 -32.3643 -20.7461 -53.1094q-20.7461 -20.7461 -52.2793 -20.7461t-52.2793 20.7461zM902.939 -205.245
q-20.7461 20.7451 -20.7461 53.1094q0 32.3633 20.7461 53.1094q20.7461 20.7451 52.2793 20.7451t52.2793 -20.7451q20.7461 -20.7461 20.7461 -53.1094q0 -32.3643 -20.7461 -53.1094q-20.7461 -20.7461 -52.2793 -20.7461t-52.2793 20.7461z" />
    <glyph glyph-name="uniFC96" unicode="&#xfef4;&#xfef2;" horiz-adv-x="1278" arabic-form="final" 
d="M550 320q0 -21 16.5 -35.5t41 -23.5t71.5 -22q75 -20 125 -42t86 -67.5t36 -121.5q0 -122 -106 -183t-336 -61q-215 0 -329.5 69.5t-114.5 220.5q0 33 5 78.5t15 85.5l173 -37q-7 -26 -11 -62t-4 -66q0 -47 20 -75t77 -42.5t164 -14.5q104 0 161.5 11t79 30t21.5 47
q0 32 -32.5 48.5t-102.5 35.5q-74 19 -122.5 39.5t-83.5 62.5t-35 111q0 68 34.5 119t102 79t163.5 28q118 0 201 -40t134 -97.5t105 -141.5q26 -49 53.5 -73t62.5 -24h56q10 0 15 -20.5t5 -56.5q0 -37 -5 -58t-15 -21h-87q-77 0 -133.5 48.5t-83.5 114.5
q-53 106 -139 159.5t-180 53.5q-104 0 -104 -56zM1104.5 -120q20.5 -21 20.5 -53t-20.5 -53t-52.5 -21t-52.5 21t-20.5 53t20.5 53t52.5 21t52.5 -21zM1276.5 -120q20.5 -21 20.5 -53t-20.5 -53t-52.5 -21t-52.5 21t-20.5 53t20.5 53t52.5 21t52.5 -21zM448.5 -321
q20.5 -21 20.5 -53t-20.5 -53t-52.5 -21t-52.5 21t-20.5 53t20.5 53t52.5 21t52.5 -21zM620.5 -321q20.5 -21 20.5 -53t-20.5 -53t-52.5 -21t-52.5 21t-20.5 53t20.5 53t52.5 21t52.5 -21z" />
    <glyph glyph-name="uniFCFB" unicode="&#xfeb3;&#xfef0;" horiz-adv-x="1883" arabic-form="isolated" 
d="M1829 515v-277q0 -120 -59.5 -179t-185.5 -59q-115 0 -173 52q-65 -52 -179 -52q-102 0 -163 41.5t-96 121.5q-53 106 -139 159.5t-180 53.5q-104 0 -104 -56q0 -21 16.5 -35.5t41 -23.5t71.5 -22q75 -20 125 -42t86 -67.5t36 -121.5q0 -122 -106 -183t-336 -61
q-215 0 -329.5 69.5t-114.5 220.5q0 33 5 78.5t15 85.5l173 -37q-7 -26 -11 -62t-4 -66q0 -47 20 -75t77 -42.5t164 -14.5q104 0 161.5 11t79 30t21.5 47q0 32 -32.5 48.5t-102.5 35.5q-74 19 -122.5 39.5t-83.5 62.5t-35 111q0 68 34.5 119t102 79t163.5 28q118 0 201 -40
t134 -97.5t105 -141.5q32 -58 57.5 -77.5t64.5 -19.5q46 0 62.5 18.5t16.5 64.5v226h178v-227q0 -35 -6 -64q22 -18 80 -18q38 0 58 7.5t27.5 25t7.5 50.5v276h178z" />
    <glyph glyph-name="uniFCFC" unicode="&#xfeb3;&#xfef2;" horiz-adv-x="1883" arabic-form="isolated" 
d="M1829 515v-277q0 -120 -59.5 -179t-185.5 -59q-115 0 -173 52q-65 -52 -179 -52q-102 0 -163 41.5t-96 121.5q-53 106 -139 159.5t-180 53.5q-104 0 -104 -56q0 -21 16.5 -35.5t41 -23.5t71.5 -22q75 -20 125 -42t86 -67.5t36 -121.5q0 -122 -106 -183t-336 -61
q-215 0 -329.5 69.5t-114.5 220.5q0 33 5 78.5t15 85.5l173 -37q-7 -26 -11 -62t-4 -66q0 -47 20 -75t77 -42.5t164 -14.5q104 0 161.5 11t79 30t21.5 47q0 32 -32.5 48.5t-102.5 35.5q-74 19 -122.5 39.5t-83.5 62.5t-35 111q0 68 34.5 119t102 79t163.5 28q118 0 201 -40
t134 -97.5t105 -141.5q32 -58 57.5 -77.5t64.5 -19.5q46 0 62.5 18.5t16.5 64.5v226h178v-227q0 -35 -6 -64q22 -18 80 -18q38 0 58 7.5t27.5 25t7.5 50.5v276h178zM528.939 -428.245q-20.7461 20.7451 -20.7461 53.1094q0 32.3633 20.7461 53.1094
q20.7461 20.7451 52.2793 20.7451t52.2793 -20.7451q20.7461 -20.7461 20.7461 -53.1094q0 -32.3643 -20.7461 -53.1094q-20.7461 -20.7461 -52.2793 -20.7461t-52.2793 20.7461zM356.939 -428.245q-20.7461 20.7451 -20.7461 53.1094q0 32.3633 20.7461 53.1094
q20.7461 20.7451 52.2793 20.7451t52.2793 -20.7451q20.7461 -20.7461 20.7461 -53.1094q0 -32.3643 -20.7461 -53.1094q-20.7461 -20.7461 -52.2793 -20.7461t-52.2793 20.7461z" />
    <glyph glyph-name="uniFCFD" unicode="&#xfeb7;&#xfef0;" horiz-adv-x="1883" arabic-form="isolated" 
d="M1829 515v-277q0 -120 -59.5 -179t-185.5 -59q-115 0 -173 52q-65 -52 -179 -52q-102 0 -163 41.5t-96 121.5q-53 106 -139 159.5t-180 53.5q-104 0 -104 -56q0 -21 16.5 -35.5t41 -23.5t71.5 -22q75 -20 125 -42t86 -67.5t36 -121.5q0 -122 -106 -183t-336 -61
q-215 0 -329.5 69.5t-114.5 220.5q0 33 5 78.5t15 85.5l173 -37q-7 -26 -11 -62t-4 -66q0 -47 20 -75t77 -42.5t164 -14.5q104 0 161.5 11t79 30t21.5 47q0 32 -32.5 48.5t-102.5 35.5q-74 19 -122.5 39.5t-83.5 62.5t-35 111q0 68 34.5 119t102 79t163.5 28q118 0 201 -40
t134 -97.5t105 -141.5q32 -58 57.5 -77.5t64.5 -19.5q46 0 62.5 18.5t16.5 64.5v226h178v-227q0 -35 -6 -64q22 -18 80 -18q38 0 58 7.5t27.5 25t7.5 50.5v276h178zM1443.5 867.5q19.5 -19.5 19.5 -48.5q0 -30 -19 -49.5t-49 -19.5t-49 19t-19 50q0 29 19 48.5t49 19.5
q29 0 48.5 -19.5zM1361.5 711q20.5 -21 20.5 -53t-20.5 -53t-52.5 -21t-52.5 21t-20.5 53t20.5 53t52.5 21t52.5 -21zM1533.5 711q20.5 -21 20.5 -53t-20.5 -53t-52.5 -21t-52.5 21t-20.5 53t20.5 53t52.5 21t52.5 -21z" />
    <glyph glyph-name="uniFCFE" unicode="&#xfeb7;&#xfef2;" horiz-adv-x="1883" arabic-form="isolated" 
d="M1829 515v-277q0 -120 -59.5 -179t-185.5 -59q-115 0 -173 52q-65 -52 -179 -52q-102 0 -163 41.5t-96 121.5q-53 106 -139 159.5t-180 53.5q-104 0 -104 -56q0 -21 16.5 -35.5t41 -23.5t71.5 -22q75 -20 125 -42t86 -67.5t36 -121.5q0 -122 -106 -183t-336 -61
q-215 0 -329.5 69.5t-114.5 220.5q0 33 5 78.5t15 85.5l173 -37q-7 -26 -11 -62t-4 -66q0 -47 20 -75t77 -42.5t164 -14.5q104 0 161.5 11t79 30t21.5 47q0 32 -32.5 48.5t-102.5 35.5q-74 19 -122.5 39.5t-83.5 62.5t-35 111q0 68 34.5 119t102 79t163.5 28q118 0 201 -40
t134 -97.5t105 -141.5q32 -58 57.5 -77.5t64.5 -19.5q46 0 62.5 18.5t16.5 64.5v226h178v-227q0 -35 -6 -64q22 -18 80 -18q38 0 58 7.5t27.5 25t7.5 50.5v276h178zM1443.5 867.5q19.5 -19.5 19.5 -48.5q0 -30 -19 -49.5t-49 -19.5t-49 19t-19 50q0 29 19 48.5t49 19.5
q29 0 48.5 -19.5zM1361.5 711q20.5 -21 20.5 -53t-20.5 -53t-52.5 -21t-52.5 21t-20.5 53t20.5 53t52.5 21t52.5 -21zM1533.5 711q20.5 -21 20.5 -53t-20.5 -53t-52.5 -21t-52.5 21t-20.5 53t20.5 53t52.5 21t52.5 -21zM528.939 -428.245q-20.7461 20.7451 -20.7461 53.1094
q0 32.3633 20.7461 53.1094q20.7461 20.7451 52.2793 20.7451t52.2793 -20.7451q20.7461 -20.7461 20.7461 -53.1094q0 -32.3643 -20.7461 -53.1094q-20.7461 -20.7461 -52.2793 -20.7461t-52.2793 20.7461zM356.939 -428.245q-20.7461 20.7451 -20.7461 53.1094
q0 32.3633 20.7461 53.1094q20.7461 20.7451 52.2793 20.7451t52.2793 -20.7451q20.7461 -20.7461 20.7461 -53.1094q0 -32.3643 -20.7461 -53.1094q-20.7461 -20.7461 -52.2793 -20.7461t-52.2793 20.7461z" />
    <glyph glyph-name="uniFD05" unicode="&#xfebb;&#xfef0;" horiz-adv-x="2040" arabic-form="isolated" 
d="M1832 508q81 -46 120.5 -123.5t39.5 -172.5v-212h-802q-77 0 -133.5 48.5t-83.5 114.5q-53 106 -139 159.5t-180 53.5q-104 0 -104 -56q0 -21 16.5 -35.5t41 -23.5t71.5 -22q75 -20 125 -42t86 -67.5t36 -121.5q0 -122 -106 -183t-336 -61q-215 0 -329.5 69.5
t-114.5 220.5q0 33 5 78.5t15 85.5l173 -37q-7 -26 -11 -62t-4 -66q0 -47 20 -75t77 -42.5t164 -14.5q104 0 161.5 11t79 30t21.5 47q0 32 -32.5 48.5t-102.5 35.5q-74 19 -122.5 39.5t-83.5 62.5t-35 111q0 68 34.5 119t102 79t163.5 28q118 0 201 -40t134 -97.5
t105 -141.5q33 -62 67 -82q24 97 80.5 183.5t152.5 143t228 56.5q118 0 199 -46zM1814 156v56q0 91 -44.5 138.5t-128.5 47.5q-69 0 -128.5 -31t-101.5 -85.5t-62 -124.5z" />
    <glyph glyph-name="uniFD06" unicode="&#xfebb;&#xfef2;" horiz-adv-x="2040" arabic-form="isolated" 
d="M1832 508q81 -46 120.5 -123.5t39.5 -172.5v-212h-802q-77 0 -133.5 48.5t-83.5 114.5q-53 106 -139 159.5t-180 53.5q-104 0 -104 -56q0 -21 16.5 -35.5t41 -23.5t71.5 -22q75 -20 125 -42t86 -67.5t36 -121.5q0 -122 -106 -183t-336 -61q-215 0 -329.5 69.5
t-114.5 220.5q0 33 5 78.5t15 85.5l173 -37q-7 -26 -11 -62t-4 -66q0 -47 20 -75t77 -42.5t164 -14.5q104 0 161.5 11t79 30t21.5 47q0 32 -32.5 48.5t-102.5 35.5q-74 19 -122.5 39.5t-83.5 62.5t-35 111q0 68 34.5 119t102 79t163.5 28q118 0 201 -40t134 -97.5
t105 -141.5q33 -62 67 -82q24 97 80.5 183.5t152.5 143t228 56.5q118 0 199 -46zM1814 156v56q0 91 -44.5 138.5t-128.5 47.5q-69 0 -128.5 -31t-101.5 -85.5t-62 -124.5zM528.939 -428.245q-20.7461 20.7451 -20.7461 53.1094q0 32.3633 20.7461 53.1094
q20.7461 20.7451 52.2793 20.7451t52.2793 -20.7451q20.7461 -20.7461 20.7461 -53.1094q0 -32.3643 -20.7461 -53.1094q-20.7461 -20.7461 -52.2793 -20.7461t-52.2793 20.7461zM356.939 -428.245q-20.7461 20.7451 -20.7461 53.1094q0 32.3633 20.7461 53.1094
q20.7461 20.7451 52.2793 20.7451t52.2793 -20.7451q20.7461 -20.7461 20.7461 -53.1094q0 -32.3643 -20.7461 -53.1094q-20.7461 -20.7461 -52.2793 -20.7461t-52.2793 20.7461z" />
    <glyph glyph-name="uniFD07" unicode="&#xfebf;&#xfef0;" horiz-adv-x="2040" arabic-form="isolated" 
d="M1832 508q81 -46 120.5 -123.5t39.5 -172.5v-212h-802q-77 0 -133.5 48.5t-83.5 114.5q-53 106 -139 159.5t-180 53.5q-104 0 -104 -56q0 -21 16.5 -35.5t41 -23.5t71.5 -22q75 -20 125 -42t86 -67.5t36 -121.5q0 -122 -106 -183t-336 -61q-215 0 -329.5 69.5
t-114.5 220.5q0 33 5 78.5t15 85.5l173 -37q-7 -26 -11 -62t-4 -66q0 -47 20 -75t77 -42.5t164 -14.5q104 0 161.5 11t79 30t21.5 47q0 32 -32.5 48.5t-102.5 35.5q-74 19 -122.5 39.5t-83.5 62.5t-35 111q0 68 34.5 119t102 79t163.5 28q118 0 201 -40t134 -97.5
t105 -141.5q33 -62 67 -82q24 97 80.5 183.5t152.5 143t228 56.5q118 0 199 -46zM1814 156v56q0 91 -44.5 138.5t-128.5 47.5q-69 0 -128.5 -31t-101.5 -85.5t-62 -124.5zM1570 651q-25 25 -25 64t25 64t63 25t63 -25t25 -64t-25 -64t-63 -25t-63 25z" />
    <glyph glyph-name="uniFD08" unicode="&#xfebf;&#xfef2;" horiz-adv-x="2040" arabic-form="isolated" 
d="M1832 508q81 -46 120.5 -123.5t39.5 -172.5v-212h-802q-77 0 -133.5 48.5t-83.5 114.5q-53 106 -139 159.5t-180 53.5q-104 0 -104 -56q0 -21 16.5 -35.5t41 -23.5t71.5 -22q75 -20 125 -42t86 -67.5t36 -121.5q0 -122 -106 -183t-336 -61q-215 0 -329.5 69.5
t-114.5 220.5q0 33 5 78.5t15 85.5l173 -37q-7 -26 -11 -62t-4 -66q0 -47 20 -75t77 -42.5t164 -14.5q104 0 161.5 11t79 30t21.5 47q0 32 -32.5 48.5t-102.5 35.5q-74 19 -122.5 39.5t-83.5 62.5t-35 111q0 68 34.5 119t102 79t163.5 28q118 0 201 -40t134 -97.5
t105 -141.5q33 -62 67 -82q24 97 80.5 183.5t152.5 143t228 56.5q118 0 199 -46zM1814 156v56q0 91 -44.5 138.5t-128.5 47.5q-69 0 -128.5 -31t-101.5 -85.5t-62 -124.5zM1570 651q-25 25 -25 64t25 64t63 25t63 -25t25 -64t-25 -64t-63 -25t-63 25zM528.939 -428.245
q-20.7461 20.7451 -20.7461 53.1094q0 32.3633 20.7461 53.1094q20.7461 20.7451 52.2793 20.7451t52.2793 -20.7451q20.7461 -20.7461 20.7461 -53.1094q0 -32.3643 -20.7461 -53.1094q-20.7461 -20.7461 -52.2793 -20.7461t-52.2793 20.7461zM356.939 -428.245
q-20.7461 20.7451 -20.7461 53.1094q0 32.3633 20.7461 53.1094q20.7461 20.7451 52.2793 20.7451t52.2793 -20.7451q20.7461 -20.7461 20.7461 -53.1094q0 -32.3643 -20.7461 -53.1094q-20.7461 -20.7461 -52.2793 -20.7461t-52.2793 20.7461z" />
    <glyph glyph-name="uniFD0D" unicode="&#xfeb7;&#xfeae;" horiz-adv-x="1374" arabic-form="isolated" 
d="M1319 515v-277q0 -120 -59.5 -179t-184.5 -59q-119 0 -175 54q-67 -54 -188 -54q-116 0 -182.5 50t-77.5 149q-40 -13 -94 -13q-51 0 -98 14v-168q0 -118 -68.5 -188t-187.5 -76l-24 156q56 -1 79 23.5t23 84.5v483h178v-159q47 -14 98 -14q50 0 92 12v111h178v-222
q0 -39 5 -56.5t22 -24t57 -6.5t57.5 6.5t22.5 24t5 56.5v222h177v-227q0 -34 -6 -63q12 -10 31 -14.5t49 -4.5q38 0 58 7t28 25t8 51v276h177zM935.5 867.5q19.5 -19.5 19.5 -48.5q0 -30 -19 -49.5t-49 -19.5t-49 19t-19 50q0 29 19 48.5t49 19.5q29 0 48.5 -19.5z
M853.5 711q20.5 -21 20.5 -53t-20.5 -53t-52.5 -21t-52.5 21t-20.5 53t20.5 53t52.5 21t52.5 -21zM1025.5 711q20.5 -21 20.5 -53t-20.5 -53t-52.5 -21t-52.5 21t-20.5 53t20.5 53t52.5 21t52.5 -21z" />
    <glyph glyph-name="uniFD0E" unicode="&#xfeb3;&#xfeae;" horiz-adv-x="1374" arabic-form="isolated" 
d="M1319 515v-277q0 -120 -59.5 -179t-184.5 -59q-119 0 -175 54q-67 -54 -188 -54q-116 0 -182.5 50t-77.5 149q-40 -13 -94 -13q-51 0 -98 14v-168q0 -118 -68.5 -188t-187.5 -76l-24 156q56 -1 79 23.5t23 84.5v483h178v-159q47 -14 98 -14q50 0 92 12v111h178v-222
q0 -39 5 -56.5t22 -24t57 -6.5t57.5 6.5t22.5 24t5 56.5v222h177v-227q0 -34 -6 -63q12 -10 31 -14.5t49 -4.5q38 0 58 7t28 25t8 51v276h177z" />
    <glyph glyph-name="uniFD0F" unicode="&#xfebb;&#xfeae;" horiz-adv-x="1575" arabic-form="isolated" 
d="M1366 508q81 -46 120.5 -123.5t39.5 -172.5v-212h-814q-116 0 -182.5 50t-77.5 149q-40 -13 -94 -13q-51 0 -98 14v-168q0 -118 -68.5 -188t-187.5 -76l-24 156q56 -1 79 23.5t23 84.5v483h178v-159q47 -14 98 -14q50 0 92 12v111h178v-222q0 -38 4.5 -55t20 -24t50.5 -8
q22 100 78 190t153 149t233 59q118 0 199 -46zM1348 156v56q0 91 -44.5 138.5t-128.5 47.5q-105 0 -184 -67.5t-109 -174.5h466z" />
    <glyph glyph-name="uniFD10" unicode="&#xfebf;&#xfeae;" horiz-adv-x="1575" arabic-form="isolated" 
d="M1366 508q81 -46 120.5 -123.5t39.5 -172.5v-212h-814q-116 0 -182.5 50t-77.5 149q-40 -13 -94 -13q-51 0 -98 14v-168q0 -118 -68.5 -188t-187.5 -76l-24 156q56 -1 79 23.5t23 84.5v483h178v-159q47 -14 98 -14q50 0 92 12v111h178v-222q0 -38 4.5 -55t20 -24t50.5 -8
q22 100 78 190t153 149t233 59q118 0 199 -46zM1348 156v56q0 91 -44.5 138.5t-128.5 47.5q-105 0 -184 -67.5t-109 -174.5h466zM1104 651q-25 25 -25 64t25 64t63 25t63 -25t25 -64t-25 -64t-63 -25t-63 25z" />
    <glyph glyph-name="uniFD17" unicode="&#xfeb4;&#xfef0;" horiz-adv-x="1982" arabic-form="final" 
d="M1997 135.5q5 -20.5 5 -56.5q0 -37 -5 -58t-15 -21h-75q-92 0 -148 50q-61 -50 -175 -50q-115 0 -173 52q-65 -52 -179 -52q-102 0 -163 41.5t-96 121.5q-53 106 -139 159.5t-180 53.5q-104 0 -104 -56q0 -21 16.5 -35.5t41 -23.5t71.5 -22q75 -20 125 -42t86 -67.5
t36 -121.5q0 -122 -106 -183t-336 -61q-215 0 -329.5 69.5t-114.5 220.5q0 33 5 78.5t15 85.5l173 -37q-7 -26 -11 -62t-4 -66q0 -47 20 -75t77 -42.5t164 -14.5q104 0 161.5 11t79 30t21.5 47q0 32 -32.5 48.5t-102.5 35.5q-74 19 -122.5 39.5t-83.5 62.5t-35 111
q0 68 34.5 119t102 79t163.5 28q118 0 201 -40t134 -97.5t105 -141.5q32 -58 57.5 -77.5t64.5 -19.5q46 0 62.5 18.5t16.5 64.5v226h178v-227q0 -35 -6 -64q22 -18 80 -18q38 0 58 7.5t27.5 25t7.5 50.5v276h178v-277q0 -31 -5 -64q20 -18 55 -18h103q10 0 15 -20.5z" />
    <glyph glyph-name="uniFD18" unicode="&#xfeb4;&#xfef2;" horiz-adv-x="1982" arabic-form="final" 
d="M1997 135.5q5 -20.5 5 -56.5q0 -37 -5 -58t-15 -21h-75q-92 0 -148 50q-61 -50 -175 -50q-115 0 -173 52q-65 -52 -179 -52q-102 0 -163 41.5t-96 121.5q-53 106 -139 159.5t-180 53.5q-104 0 -104 -56q0 -21 16.5 -35.5t41 -23.5t71.5 -22q75 -20 125 -42t86 -67.5
t36 -121.5q0 -122 -106 -183t-336 -61q-215 0 -329.5 69.5t-114.5 220.5q0 33 5 78.5t15 85.5l173 -37q-7 -26 -11 -62t-4 -66q0 -47 20 -75t77 -42.5t164 -14.5q104 0 161.5 11t79 30t21.5 47q0 32 -32.5 48.5t-102.5 35.5q-74 19 -122.5 39.5t-83.5 62.5t-35 111
q0 68 34.5 119t102 79t163.5 28q118 0 201 -40t134 -97.5t105 -141.5q32 -58 57.5 -77.5t64.5 -19.5q46 0 62.5 18.5t16.5 64.5v226h178v-227q0 -35 -6 -64q22 -18 80 -18q38 0 58 7.5t27.5 25t7.5 50.5v276h178v-277q0 -31 -5 -64q20 -18 55 -18h103q10 0 15 -20.5z
M528.939 -428.245q-20.7461 20.7451 -20.7461 53.1094q0 32.3633 20.7461 53.1094q20.7461 20.7451 52.2793 20.7451t52.2793 -20.7451q20.7461 -20.7461 20.7461 -53.1094q0 -32.3643 -20.7461 -53.1094q-20.7461 -20.7461 -52.2793 -20.7461t-52.2793 20.7461z
M356.939 -428.245q-20.7461 20.7451 -20.7461 53.1094q0 32.3633 20.7461 53.1094q20.7461 20.7451 52.2793 20.7451t52.2793 -20.7451q20.7461 -20.7461 20.7461 -53.1094q0 -32.3643 -20.7461 -53.1094q-20.7461 -20.7461 -52.2793 -20.7461t-52.2793 20.7461z" />
    <glyph glyph-name="uniFD19" unicode="&#xfeb8;&#xfef0;" horiz-adv-x="1982" arabic-form="final" 
d="M1997 135.5q5 -20.5 5 -56.5q0 -37 -5 -58t-15 -21h-75q-92 0 -148 50q-61 -50 -175 -50q-115 0 -173 52q-65 -52 -179 -52q-102 0 -163 41.5t-96 121.5q-53 106 -139 159.5t-180 53.5q-104 0 -104 -56q0 -21 16.5 -35.5t41 -23.5t71.5 -22q75 -20 125 -42t86 -67.5
t36 -121.5q0 -122 -106 -183t-336 -61q-215 0 -329.5 69.5t-114.5 220.5q0 33 5 78.5t15 85.5l173 -37q-7 -26 -11 -62t-4 -66q0 -47 20 -75t77 -42.5t164 -14.5q104 0 161.5 11t79 30t21.5 47q0 32 -32.5 48.5t-102.5 35.5q-74 19 -122.5 39.5t-83.5 62.5t-35 111
q0 68 34.5 119t102 79t163.5 28q118 0 201 -40t134 -97.5t105 -141.5q32 -58 57.5 -77.5t64.5 -19.5q46 0 62.5 18.5t16.5 64.5v226h178v-227q0 -35 -6 -64q22 -18 80 -18q38 0 58 7.5t27.5 25t7.5 50.5v276h178v-277q0 -31 -5 -64q20 -18 55 -18h103q10 0 15 -20.5z
M1443.5 867.5q19.5 -19.5 19.5 -48.5q0 -30 -19 -49.5t-49 -19.5t-49 19t-19 50q0 29 19 48.5t49 19.5q29 0 48.5 -19.5zM1361.5 711q20.5 -21 20.5 -53t-20.5 -53t-52.5 -21t-52.5 21t-20.5 53t20.5 53t52.5 21t52.5 -21zM1533.5 711q20.5 -21 20.5 -53t-20.5 -53
t-52.5 -21t-52.5 21t-20.5 53t20.5 53t52.5 21t52.5 -21z" />
    <glyph glyph-name="uniFD1A" unicode="&#xfeb8;&#xfef2;" horiz-adv-x="1982" arabic-form="final" 
d="M1997 135.5q5 -20.5 5 -56.5q0 -37 -5 -58t-15 -21h-75q-92 0 -148 50q-61 -50 -175 -50q-115 0 -173 52q-65 -52 -179 -52q-102 0 -163 41.5t-96 121.5q-53 106 -139 159.5t-180 53.5q-104 0 -104 -56q0 -21 16.5 -35.5t41 -23.5t71.5 -22q75 -20 125 -42t86 -67.5
t36 -121.5q0 -122 -106 -183t-336 -61q-215 0 -329.5 69.5t-114.5 220.5q0 33 5 78.5t15 85.5l173 -37q-7 -26 -11 -62t-4 -66q0 -47 20 -75t77 -42.5t164 -14.5q104 0 161.5 11t79 30t21.5 47q0 32 -32.5 48.5t-102.5 35.5q-74 19 -122.5 39.5t-83.5 62.5t-35 111
q0 68 34.5 119t102 79t163.5 28q118 0 201 -40t134 -97.5t105 -141.5q32 -58 57.5 -77.5t64.5 -19.5q46 0 62.5 18.5t16.5 64.5v226h178v-227q0 -35 -6 -64q22 -18 80 -18q38 0 58 7.5t27.5 25t7.5 50.5v276h178v-277q0 -31 -5 -64q20 -18 55 -18h103q10 0 15 -20.5z
M1443.5 867.5q19.5 -19.5 19.5 -48.5q0 -30 -19 -49.5t-49 -19.5t-49 19t-19 50q0 29 19 48.5t49 19.5q29 0 48.5 -19.5zM1361.5 711q20.5 -21 20.5 -53t-20.5 -53t-52.5 -21t-52.5 21t-20.5 53t20.5 53t52.5 21t52.5 -21zM1533.5 711q20.5 -21 20.5 -53t-20.5 -53
t-52.5 -21t-52.5 21t-20.5 53t20.5 53t52.5 21t52.5 -21zM528.939 -428.245q-20.7461 20.7451 -20.7461 53.1094q0 32.3633 20.7461 53.1094q20.7461 20.7451 52.2793 20.7451t52.2793 -20.7451q20.7461 -20.7461 20.7461 -53.1094q0 -32.3643 -20.7461 -53.1094
q-20.7461 -20.7461 -52.2793 -20.7461t-52.2793 20.7461zM356.939 -428.245q-20.7461 20.7451 -20.7461 53.1094q0 32.3633 20.7461 53.1094q20.7461 20.7451 52.2793 20.7451t52.2793 -20.7451q20.7461 -20.7461 20.7461 -53.1094q0 -32.3643 -20.7461 -53.1094
q-20.7461 -20.7461 -52.2793 -20.7461t-52.2793 20.7461z" />
    <glyph glyph-name="uniFD21" unicode="&#xfebc;&#xfef0;" horiz-adv-x="2127" arabic-form="final" 
d="M2142 135.5q5 -20.5 5 -56.5q0 -37 -5 -58t-15 -21h-937q-77 0 -133.5 48.5t-83.5 114.5q-53 106 -139 159.5t-180 53.5q-104 0 -104 -56q0 -21 16.5 -35.5t41 -23.5t71.5 -22q75 -20 125 -42t86 -67.5t36 -121.5q0 -122 -106 -183t-336 -61q-215 0 -329.5 69.5
t-114.5 220.5q0 33 5 78.5t15 85.5l173 -37q-7 -26 -11 -62t-4 -66q0 -47 20 -75t77 -42.5t164 -14.5q104 0 161.5 11t79 30t21.5 47q0 32 -32.5 48.5t-102.5 35.5q-74 19 -122.5 39.5t-83.5 62.5t-35 111q0 68 34.5 119t102 79t163.5 28q118 0 201 -40t134 -97.5
t105 -141.5q33 -62 67 -82q24 97 80.5 183.5t152.5 143t228 56.5q118 0 199 -46t120.5 -123.5t39.5 -172.5v-56h135q10 0 15 -20.5zM1814 156v56q0 91 -44.5 138.5t-128.5 47.5q-69 0 -128.5 -31t-101.5 -85.5t-62 -124.5z" />
    <glyph glyph-name="uniFD22" unicode="&#xfebc;&#xfef2;" horiz-adv-x="2127" arabic-form="final" 
d="M2142 135.5q5 -20.5 5 -56.5q0 -37 -5 -58t-15 -21h-937q-77 0 -133.5 48.5t-83.5 114.5q-53 106 -139 159.5t-180 53.5q-104 0 -104 -56q0 -21 16.5 -35.5t41 -23.5t71.5 -22q75 -20 125 -42t86 -67.5t36 -121.5q0 -122 -106 -183t-336 -61q-215 0 -329.5 69.5
t-114.5 220.5q0 33 5 78.5t15 85.5l173 -37q-7 -26 -11 -62t-4 -66q0 -47 20 -75t77 -42.5t164 -14.5q104 0 161.5 11t79 30t21.5 47q0 32 -32.5 48.5t-102.5 35.5q-74 19 -122.5 39.5t-83.5 62.5t-35 111q0 68 34.5 119t102 79t163.5 28q118 0 201 -40t134 -97.5
t105 -141.5q33 -62 67 -82q24 97 80.5 183.5t152.5 143t228 56.5q118 0 199 -46t120.5 -123.5t39.5 -172.5v-56h135q10 0 15 -20.5zM1814 156v56q0 91 -44.5 138.5t-128.5 47.5q-69 0 -128.5 -31t-101.5 -85.5t-62 -124.5zM528.939 -428.245
q-20.7461 20.7451 -20.7461 53.1094q0 32.3633 20.7461 53.1094q20.7461 20.7451 52.2793 20.7451t52.2793 -20.7451q20.7461 -20.7461 20.7461 -53.1094q0 -32.3643 -20.7461 -53.1094q-20.7461 -20.7461 -52.2793 -20.7461t-52.2793 20.7461zM356.939 -428.245
q-20.7461 20.7451 -20.7461 53.1094q0 32.3633 20.7461 53.1094q20.7461 20.7451 52.2793 20.7451t52.2793 -20.7451q20.7461 -20.7461 20.7461 -53.1094q0 -32.3643 -20.7461 -53.1094q-20.7461 -20.7461 -52.2793 -20.7461t-52.2793 20.7461z" />
    <glyph glyph-name="uniFD23" unicode="&#xfec0;&#xfef0;" horiz-adv-x="2127" arabic-form="final" 
d="M2142 135.5q5 -20.5 5 -56.5q0 -37 -5 -58t-15 -21h-937q-77 0 -133.5 48.5t-83.5 114.5q-53 106 -139 159.5t-180 53.5q-104 0 -104 -56q0 -21 16.5 -35.5t41 -23.5t71.5 -22q75 -20 125 -42t86 -67.5t36 -121.5q0 -122 -106 -183t-336 -61q-215 0 -329.5 69.5
t-114.5 220.5q0 33 5 78.5t15 85.5l173 -37q-7 -26 -11 -62t-4 -66q0 -47 20 -75t77 -42.5t164 -14.5q104 0 161.5 11t79 30t21.5 47q0 32 -32.5 48.5t-102.5 35.5q-74 19 -122.5 39.5t-83.5 62.5t-35 111q0 68 34.5 119t102 79t163.5 28q118 0 201 -40t134 -97.5
t105 -141.5q33 -62 67 -82q24 97 80.5 183.5t152.5 143t228 56.5q118 0 199 -46t120.5 -123.5t39.5 -172.5v-56h135q10 0 15 -20.5zM1814 156v56q0 91 -44.5 138.5t-128.5 47.5q-69 0 -128.5 -31t-101.5 -85.5t-62 -124.5zM1570 651q-25 25 -25 64t25 64t63 25t63 -25
t25 -64t-25 -64t-63 -25t-63 25z" />
    <glyph glyph-name="uniFD24" unicode="&#xfec0;&#xfef2;" horiz-adv-x="2127" arabic-form="final" 
d="M2142 135.5q5 -20.5 5 -56.5q0 -37 -5 -58t-15 -21h-937q-77 0 -133.5 48.5t-83.5 114.5q-53 106 -139 159.5t-180 53.5q-104 0 -104 -56q0 -21 16.5 -35.5t41 -23.5t71.5 -22q75 -20 125 -42t86 -67.5t36 -121.5q0 -122 -106 -183t-336 -61q-215 0 -329.5 69.5
t-114.5 220.5q0 33 5 78.5t15 85.5l173 -37q-7 -26 -11 -62t-4 -66q0 -47 20 -75t77 -42.5t164 -14.5q104 0 161.5 11t79 30t21.5 47q0 32 -32.5 48.5t-102.5 35.5q-74 19 -122.5 39.5t-83.5 62.5t-35 111q0 68 34.5 119t102 79t163.5 28q118 0 201 -40t134 -97.5
t105 -141.5q33 -62 67 -82q24 97 80.5 183.5t152.5 143t228 56.5q118 0 199 -46t120.5 -123.5t39.5 -172.5v-56h135q10 0 15 -20.5zM1814 156v56q0 91 -44.5 138.5t-128.5 47.5q-69 0 -128.5 -31t-101.5 -85.5t-62 -124.5zM1570 651q-25 25 -25 64t25 64t63 25t63 -25
t25 -64t-25 -64t-63 -25t-63 25zM528.939 -428.245q-20.7461 20.7451 -20.7461 53.1094q0 32.3633 20.7461 53.1094q20.7461 20.7451 52.2793 20.7451t52.2793 -20.7451q20.7461 -20.7461 20.7461 -53.1094q0 -32.3643 -20.7461 -53.1094
q-20.7461 -20.7461 -52.2793 -20.7461t-52.2793 20.7461zM356.939 -428.245q-20.7461 20.7451 -20.7461 53.1094q0 32.3633 20.7461 53.1094q20.7461 20.7451 52.2793 20.7451t52.2793 -20.7451q20.7461 -20.7461 20.7461 -53.1094q0 -32.3643 -20.7461 -53.1094
q-20.7461 -20.7461 -52.2793 -20.7461t-52.2793 20.7461z" />
    <glyph glyph-name="uniFD29" unicode="&#xfeb8;&#xfeae;" horiz-adv-x="1473" arabic-form="final" 
d="M1488 135.5q5 -20.5 5 -56.5q0 -37 -5 -58t-15 -21h-75q-92 0 -147 50q-60 -51 -176 -51q-119 0 -175 54q-67 -54 -188 -54q-116 0 -182.5 50t-77.5 149q-40 -13 -94 -13q-51 0 -98 14v-168q0 -118 -68.5 -188t-187.5 -76l-24 156q56 -1 79 23.5t23 84.5v483h178v-159
q47 -14 98 -14q50 0 92 12v111h178v-222q0 -39 5 -56.5t22 -24t57 -6.5t57.5 6.5t22.5 24t5 56.5v222h177v-227q0 -34 -6 -63q12 -10 31 -14.5t49 -4.5q38 0 58 7t28 25t8 51v276h177v-277q0 -30 -5 -63q21 -18 55 -18h104q10 0 15 -20.5zM935.5 867.5
q19.5 -19.5 19.5 -48.5q0 -30 -19 -49.5t-49 -19.5t-49 19t-19 50q0 29 19 48.5t49 19.5q29 0 48.5 -19.5zM853.5 711q20.5 -21 20.5 -53t-20.5 -53t-52.5 -21t-52.5 21t-20.5 53t20.5 53t52.5 21t52.5 -21zM1025.5 711q20.5 -21 20.5 -53t-20.5 -53t-52.5 -21t-52.5 21
t-20.5 53t20.5 53t52.5 21t52.5 -21z" />
    <glyph glyph-name="uniFD2A" unicode="&#xfeb4;&#xfeae;" horiz-adv-x="1473" arabic-form="final" 
d="M1488 135.5q5 -20.5 5 -56.5q0 -37 -5 -58t-15 -21h-75q-92 0 -147 50q-60 -51 -176 -51q-119 0 -175 54q-67 -54 -188 -54q-116 0 -182.5 50t-77.5 149q-40 -13 -94 -13q-51 0 -98 14v-168q0 -118 -68.5 -188t-187.5 -76l-24 156q56 -1 79 23.5t23 84.5v483h178v-159
q47 -14 98 -14q50 0 92 12v111h178v-222q0 -39 5 -56.5t22 -24t57 -6.5t57.5 6.5t22.5 24t5 56.5v222h177v-227q0 -34 -6 -63q12 -10 31 -14.5t49 -4.5q38 0 58 7t28 25t8 51v276h177v-277q0 -30 -5 -63q21 -18 55 -18h104q10 0 15 -20.5z" />
    <glyph glyph-name="uniFD2B" unicode="&#xfebc;&#xfeae;" horiz-adv-x="1661" arabic-form="final" 
d="M1676 135.5q5 -20.5 5 -56.5q0 -37 -5 -58t-15 -21h-949q-116 0 -182.5 50t-77.5 149q-40 -13 -94 -13q-51 0 -98 14v-168q0 -118 -68.5 -188t-187.5 -76l-24 156q56 -1 79 23.5t23 84.5v483h178v-159q47 -14 98 -14q50 0 92 12v111h178v-222q0 -38 4.5 -55t20 -24
t50.5 -8q22 100 78 190t153 149t233 59q118 0 199 -46t120.5 -123.5t39.5 -172.5v-56h135q10 0 15 -20.5zM991 330.5q-79 -67.5 -109 -174.5h466v56q0 91 -44.5 138.5t-128.5 47.5q-105 0 -184 -67.5z" />
    <glyph glyph-name="uniFD2C" unicode="&#xfec0;&#xfeae;" horiz-adv-x="1661" arabic-form="final" 
d="M1676 135.5q5 -20.5 5 -56.5q0 -37 -5 -58t-15 -21h-949q-116 0 -182.5 50t-77.5 149q-40 -13 -94 -13q-51 0 -98 14v-168q0 -118 -68.5 -188t-187.5 -76l-24 156q56 -1 79 23.5t23 84.5v483h178v-159q47 -14 98 -14q50 0 92 12v111h178v-222q0 -38 4.5 -55t20 -24
t50.5 -8q22 100 78 190t153 149t233 59q118 0 199 -46t120.5 -123.5t39.5 -172.5v-56h135q10 0 15 -20.5zM991 330.5q-79 -67.5 -109 -174.5h466v56q0 91 -44.5 138.5t-128.5 47.5q-105 0 -184 -67.5zM1104 651q-25 25 -25 64t25 64t63 25t63 -25t25 -64t-25 -64t-63 -25
t-63 25z" />
    <glyph glyph-name="uniFDF2" unicode="&#x627;&#xfedf;&#xfee0;&#xfeea;" horiz-adv-x="1738" arabic-form="isolated" 
d="M912 960h-76v198h76v-198zM733.5 724.5q-30.5 37.5 -30.5 90.5q0 24 6.5 53t16.5 50l68 -35q-6 -14 -10.5 -33t-4.5 -35q0 -22 9.5 -36.5t18.5 -14.5t16.5 9t7.5 23v69h84v-69q0 -14 7.5 -23t16.5 -9q10 0 19 14.5t9 36.5q0 17 -4 36t-11 32l68 35q10 -21 16.5 -50
t6.5 -53q0 -53 -30.5 -90.5t-73.5 -37.5q-36 0 -66 27q-29 -27 -66 -27q-43 0 -73.5 37.5zM1669 753v-753h-178v753h178zM1174 684h178v-684h-675q-118 0 -176 70q-96 -41 -177 -41q-78 0 -143 35.5t-103 97.5t-38 136t38 135.5t103.5 96.5t143.5 35h125v28h178v-354
q0 -44 17 -63.5t57 -19.5h109v459h178v-459h185v528zM450 221v17v171h-113q-50 0 -84.5 -32.5t-34.5 -78.5q0 -48 34.5 -80.5t86.5 -32.5q49 0 111 36z" />
    <glyph glyph-name="uniFEF5" unicode="&#xfedf;&#xfe82;" horiz-adv-x="753" arabic-form="isolated" 
d="M688 753v-753h-648v156h123v456h178v-456h170v597h177zM285 681.5q-20 6.5 -49 18.5q-34 16 -50 16q-28 0 -28 -38h-82q0 64 22 97t71 33q24 0 43 -6t51 -19q34 -16 50 -16q26 0 28 38h81q0 -65 -22 -97.5t-71 -32.5q-24 0 -44 6.5z" />
    <glyph glyph-name="uniFEF6" unicode="&#xfee0;&#xfe82;" horiz-adv-x="842" arabic-form="final" 
d="M857 135.5q5 -20.5 5 -56.5q0 -37 -5 -58t-15 -21h-75q-93 0 -148 50q-58 -50 -157 -50h-422v156h123v456h178v-456h96q40 0 57 19.5t17 63.5v514h177v-515q0 -31 -5 -63q19 -19 55 -19h104q10 0 15 -20.5zM285 681.5q-20 6.5 -49 18.5q-34 16 -50 16q-28 0 -28 -38h-82
q0 64 22 97t71 33q24 0 43 -6t51 -19q34 -16 50 -16q26 0 28 38h81q0 -65 -22 -97.5t-71 -32.5q-24 0 -44 6.5z" />
    <glyph glyph-name="uniFEF7" unicode="&#xfedf;&#xfe84;" horiz-adv-x="753" arabic-form="isolated" 
d="M688 753v-753h-648v156h123v456h178v-456h170v597h177zM378 762v-89h-258v89h19q-5 20 -5 38q0 57 40 93t102 36q49 0 93 -21l-40 -87q-9 5 -23.5 8.5t-28.5 3.5q-25 0 -39.5 -10t-14.5 -27q0 -11 7 -20.5t19 -13.5h129z" />
    <glyph glyph-name="uniFEF8" unicode="&#xfee0;&#xfe84;" horiz-adv-x="842" arabic-form="final" 
d="M857 135.5q5 -20.5 5 -56.5q0 -37 -5 -58t-15 -21h-75q-93 0 -148 50q-58 -50 -157 -50h-422v156h123v456h178v-456h96q40 0 57 19.5t17 63.5v514h177v-515q0 -31 -5 -63q19 -19 55 -19h104q10 0 15 -20.5zM378 762v-89h-258v89h19q-5 20 -5 38q0 57 40 93t102 36
q49 0 93 -21l-40 -87q-9 5 -23.5 8.5t-28.5 3.5q-25 0 -39.5 -10t-14.5 -27q0 -11 7 -20.5t19 -13.5h129z" />
    <glyph glyph-name="uniFEF9" unicode="&#xfedf;&#xfe88;" horiz-adv-x="753" arabic-form="isolated" 
d="M688 753v-753h-648v156h123v456h178v-456h170v597h177zM378 -216v-90h-258v90h19q-5 20 -5 37q0 57 40 93t102 36q48 0 93 -20l-40 -87q-9 5 -23.5 8t-28.5 3q-25 0 -39.5 -10t-14.5 -26q0 -12 7 -21.5t19 -12.5h129z" />
    <glyph glyph-name="uniFEFA" unicode="&#xfee0;&#xfe88;" horiz-adv-x="842" arabic-form="final" 
d="M857 135.5q5 -20.5 5 -56.5q0 -37 -5 -58t-15 -21h-75q-93 0 -148 50q-58 -50 -157 -50h-422v156h123v456h178v-456h96q40 0 57 19.5t17 63.5v514h177v-515q0 -31 -5 -63q19 -19 55 -19h104q10 0 15 -20.5zM378 -216v-90h-258v90h19q-5 20 -5 37q0 57 40 93t102 36
q48 0 93 -20l-40 -87q-9 5 -23.5 8t-28.5 3q-25 0 -39.5 -10t-14.5 -26q0 -12 7 -21.5t19 -12.5h129z" />
    <glyph glyph-name="uniFEFB" unicode="&#xfedf;&#xfe8e;" horiz-adv-x="753" arabic-form="isolated" 
d="M688 753v-753h-648v156h123v456h178v-456h170v597h177z" />
    <glyph glyph-name="uniFEFC" unicode="&#xfee0;&#xfe8e;" horiz-adv-x="842" arabic-form="final" 
d="M857 135.5q5 -20.5 5 -56.5q0 -37 -5 -58t-15 -21h-75q-93 0 -148 50q-58 -50 -157 -50h-422v156h123v456h178v-456h96q40 0 57 19.5t17 63.5v514h177v-515q0 -31 -5 -63q19 -19 55 -19h104q10 0 15 -20.5z" />
    <glyph glyph-name="f_f" unicode="ff" horiz-adv-x="795" 
d="M294 593q-17 -15 -17 -43v-35h120v-118h-120v-397h-177v397h-73v118h73v50q0 86 57.5 135.5t147.5 49.5q59 0 116 -21l-23 -135q-40 14 -60 14q-27 0 -44 -15zM693 593q-17 -15 -17 -43v-35h120v-118h-120v-397h-177v397h-73v118h73v50q0 86 57.5 135.5t147.5 49.5
q59 0 116 -21l-23 -135q-40 14 -60 14q-27 0 -44 -15z" />
    <glyph glyph-name="f_f_i" unicode="ffi" horiz-adv-x="1108" 
d="M294 593q-17 -15 -17 -43v-35h120v-118h-120v-397h-177v397h-73v118h73v50q0 86 57.5 135.5t147.5 49.5q59 0 116 -21l-23 -135q-40 14 -60 14q-27 0 -44 -15zM693 593q-17 -15 -17 -43v-35h120v-118h-120v-397h-177v397h-73v118h73v50q0 86 57.5 135.5t147.5 49.5
q59 0 116 -21l-23 -135q-40 14 -60 14q-27 0 -44 -15zM1040 541v-541h-177v541h177zM1019.5 763.5q26.5 -26.5 26.5 -68.5q0 -41 -26.5 -68t-67.5 -27t-67.5 27t-26.5 68q0 42 26.5 68.5t67.5 26.5t67.5 -26.5z" />
    <glyph glyph-name="f_f_l" unicode="ffl" horiz-adv-x="1142" 
d="M294 593q-17 -15 -17 -43v-35h120v-118h-120v-397h-177v397h-73v118h73v50q0 86 57.5 135.5t147.5 49.5q59 0 116 -21l-23 -135q-40 14 -60 14q-27 0 -44 -15zM693 593q-17 -15 -17 -43v-35h120v-118h-120v-397h-177v397h-73v118h73v50q0 86 57.5 135.5t147.5 49.5
q59 0 116 -21l-23 -135q-40 14 -60 14q-27 0 -44 -15zM1069 742v-742h-178v742h178z" />
    <glyph glyph-name="uni06280626" unicode="&#xfe91;&#xfe8a;" horiz-adv-x="1120" 
d="M815 -178.5q-104 -57.5 -332 -57.5q-214 0 -328.5 69.5t-114.5 220.5q0 33 5 78.5t15 85.5l173 -37q-7 -26 -11 -62t-4 -66q0 -47 20 -75t77 -42.5t164 -14.5q143 0 197.5 20.5t57.5 59.5q-142 11 -216 85l125 111q23 -23 51 -32t82 -9h96v359h178v-515h-124
q-7 -121 -111 -178.5zM1026 -227q25 -25 25 -64t-25 -64t-63 -25t-63 25t-25 64t25 64t63 25t63 -25zM243 407v-89h-258v89h19q-5 20 -5 38q0 57 40 93t102 36q49 0 93 -21l-40 -87q-9 5 -23.5 8.5t-28.5 3.5q-25 0 -39.5 -10t-14.5 -27q0 -11 7 -20.5t19 -13.5h129z" />
    <glyph glyph-name="uni06280626.fina" unicode="&#xfe92;&#xfe8a;" horiz-adv-x="1237" 
d="M1252 135.5q5 -20.5 5 -56.5q0 -37 -5 -58t-15 -21h-47q-77 0 -133.5 48.5t-83.5 114.5q-53 106 -139 159.5t-180 53.5q-104 0 -104 -56q0 -21 16.5 -35.5t41 -23.5t71.5 -22q75 -20 125 -42t86 -67.5t36 -121.5q0 -122 -106 -183t-336 -61q-215 0 -329.5 69.5
t-114.5 220.5q0 33 5 78.5t15 85.5l173 -37q-7 -26 -11 -62t-4 -66q0 -47 20 -75t77 -42.5t164 -14.5q104 0 161.5 11t79 30t21.5 47q0 32 -32.5 48.5t-102.5 35.5q-74 19 -122.5 39.5t-83.5 62.5t-35 111q0 68 34.5 119t102 79t163.5 28q118 0 201 -40t134 -97.5
t105 -141.5q26 -49 53.5 -73t62.5 -24h16q10 0 15 -20.5zM1199 -105q25 -25 25 -64t-25 -64t-63 -25t-63 25t-25 64t25 64t63 25t63 -25zM243 407v-89h-258v89h19q-5 20 -5 38q0 57 40 93t102 36q49 0 93 -21l-40 -87q-9 5 -23.5 8.5t-28.5 3.5q-25 0 -39.5 -10t-14.5 -27
q0 -11 7 -20.5t19 -13.5h129z" />
    <glyph glyph-name="uni067E0631.fina" unicode="&#xfb59;&#xfeae;" horiz-adv-x="754" 
d="M769 135.5q5 -20.5 5 -56.5q0 -37 -5 -58t-15 -21h-77q-102 0 -159 51t-66 148q-42 -13 -94 -13q-51 0 -98 14v-168q0 -118 -68.5 -188t-187.5 -76l-24 156q56 -1 79 23.5t23 84.5v483h178v-159q47 -14 98 -14q50 0 92 12v161h178v-276q0 -44 16.5 -63.5t57.5 -19.5h52
q10 0 15 -20.5zM401.5 -205q-20.5 21 -20.5 53t20.5 53t52.5 21t52.5 -21t20.5 -53t-20.5 -53t-52.5 -21t-52.5 21zM573.5 -205q-20.5 21 -20.5 53t20.5 53t52.5 21t52.5 -21t20.5 -53t-20.5 -53t-52.5 -21t-52.5 21zM491 -361.5q-19 19.5 -19 48.5q0 31 19 50t49 19
t49 -19.5t19 -49.5q0 -29 -19.5 -48.5t-48.5 -19.5q-30 0 -49 19.5z" />
    <glyph glyph-name="uni067E0632.fina" unicode="&#xfb59;&#xfeb0;" horiz-adv-x="754" 
d="M769 135.5q5 -20.5 5 -56.5q0 -37 -5 -58t-15 -21h-77q-102 0 -159 51t-66 148q-42 -13 -94 -13q-51 0 -98 14v-168q0 -118 -68.5 -188t-187.5 -76l-24 156q56 -1 79 23.5t23 84.5v483h178v-159q47 -14 98 -14q50 0 92 12v161h178v-276q0 -44 16.5 -63.5t57.5 -19.5h52
q10 0 15 -20.5zM401.5 -205q-20.5 21 -20.5 53t20.5 53t52.5 21t52.5 -21t20.5 -53t-20.5 -53t-52.5 -21t-52.5 21zM573.5 -205q-20.5 21 -20.5 53t20.5 53t52.5 21t52.5 -21t20.5 -53t-20.5 -53t-52.5 -21t-52.5 21zM491 -361.5q-19 19.5 -19 48.5q0 31 19 50t49 19
t49 -19.5t19 -49.5q0 -29 -19.5 -48.5t-48.5 -19.5q-30 0 -49 19.5zM107 632q-25 25 -25 64t25 64t63 25t63 -25t25 -64t-25 -64t-63 -25t-63 25z" />
    <glyph glyph-name="uni067E0646.fina" unicode="&#xfb59;&#xfee6;" horiz-adv-x="1258" 
d="M338 489q-25 25 -25 64t25 64t63 25t63 -25t25 -64t-25 -64t-63 -25t-63 25zM1273 135.5q5 -20.5 5 -56.5q0 -37 -5 -58t-15 -21h-77q-80 0 -133 32t-76 94q-55 -23 -123 -23q-45 0 -86 11q-9 -93 -57 -166t-126.5 -114.5t-177.5 -41.5q-105 0 -187.5 47.5t-128.5 130.5
t-46 185q0 80 30 175l161 -76q-13 -54 -13 -100q0 -59 22 -105.5t64 -73.5t98 -27t98 27t64.5 74t22.5 106q0 44 -12 95t-31 86l153 82q37 -64 56 -145q45 -14 96 -14q55 0 105 16v186h178v-222q0 -44 17 -63.5t57 -19.5h52q10 0 15 -20.5zM902.5 -205q-20.5 21 -20.5 53
t20.5 53t52.5 21t52.5 -21t20.5 -53t-20.5 -53t-52.5 -21t-52.5 21zM1074.5 -205q-20.5 21 -20.5 53t20.5 53t52.5 21t52.5 -21t20.5 -53t-20.5 -53t-52.5 -21t-52.5 21zM992 -361.5q-19 19.5 -19 48.5q0 31 19 50t49 19t49 -19.5t19 -49.5q0 -29 -19.5 -48.5t-48.5 -19.5
q-30 0 -49 19.5z" />
    <glyph glyph-name="uni067E0649" unicode="&#xfb58;&#xfef0;" horiz-adv-x="1115" 
d="M815 -178.5q-104 -57.5 -332 -57.5q-214 0 -328.5 69.5t-114.5 220.5q0 33 5 78.5t15 85.5l173 -37q-7 -26 -11 -62t-4 -66q0 -47 20 -75t77 -42.5t164 -14.5q143 0 197.5 20.5t57.5 59.5q-142 11 -216 85l125 111q22 -22 48.5 -31t75.5 -10l105 1v358h178v-515h-124
q-7 -121 -111 -178.5zM928.5 -357q-20.5 -21 -52.5 -21t-52.5 21t-20.5 53t20.5 53t52.5 21t52.5 -21t20.5 -53t-20.5 -53zM1100.5 -251q20.5 -21 20.5 -53t-20.5 -53t-52.5 -21t-52.5 21t-20.5 53t20.5 53t52.5 21t52.5 -21zM1011 -415.5q19 -19.5 19 -49.5
q0 -29 -19.5 -48.5t-48.5 -19.5q-30 0 -49 19.5t-19 48.5q0 31 19 50t49 19t49 -19.5z" />
    <glyph glyph-name="uni067E0649.fina" unicode="&#xfb59;&#xfef0;" horiz-adv-x="1237" 
d="M550 320q0 -21 16.5 -35.5t41 -23.5t71.5 -22q75 -20 125 -42t86 -67.5t36 -121.5q0 -122 -106 -183t-336 -61q-215 0 -329.5 69.5t-114.5 220.5q0 33 5 78.5t15 85.5l173 -37q-7 -26 -11 -62t-4 -66q0 -47 20 -75t77 -42.5t164 -14.5q104 0 161.5 11t79 30t21.5 47
q0 32 -32.5 48.5t-102.5 35.5q-74 19 -122.5 39.5t-83.5 62.5t-35 111q0 68 34.5 119t102 79t163.5 28q118 0 201 -40t134 -97.5t105 -141.5q26 -49 53.5 -73t62.5 -24h16q10 0 15 -20.5t5 -56.5q0 -37 -5 -58t-15 -21h-47q-77 0 -133.5 48.5t-83.5 114.5
q-53 106 -139 159.5t-180 53.5q-104 0 -104 -56zM1101.5 -202q-20.5 -21 -52.5 -21t-52.5 21t-20.5 53t20.5 53t52.5 21t52.5 -21t20.5 -53t-20.5 -53zM1273.5 -96q20.5 -21 20.5 -53t-20.5 -53t-52.5 -21t-52.5 21t-20.5 53t20.5 53t52.5 21t52.5 -21zM1184 -260.5
q19 -19.5 19 -49.5q0 -29 -19.5 -48.5t-48.5 -19.5q-30 0 -49 19.5t-19 48.5q0 31 19 50t49 19t49 -19.5z" />
    <glyph glyph-name="uni067E064A" unicode="&#xfb58;&#xfef2;" horiz-adv-x="1115" 
d="M815 -178.5q-104 -57.5 -332 -57.5q-214 0 -328.5 69.5t-114.5 220.5q0 33 5 78.5t15 85.5l173 -37q-7 -26 -11 -62t-4 -66q0 -47 20 -75t77 -42.5t164 -14.5q143 0 197.5 20.5t57.5 59.5q-142 11 -216 85l125 111q22 -22 48.5 -31t75.5 -10l105 1v358h178v-515h-124
q-7 -121 -111 -178.5zM928.5 -357q-20.5 -21 -52.5 -21t-52.5 21t-20.5 53t20.5 53t52.5 21t52.5 -21t20.5 -53t-20.5 -53zM1100.5 -251q20.5 -21 20.5 -53t-20.5 -53t-52.5 -21t-52.5 21t-20.5 53t20.5 53t52.5 21t52.5 -21zM1011 -415.5q19 -19.5 19 -49.5
q0 -29 -19.5 -48.5t-48.5 -19.5q-30 0 -49 19.5t-19 48.5q0 31 19 50t49 19t49 -19.5zM528.939 -427.245q-20.7461 20.7451 -20.7461 53.1094q0 32.3633 20.7461 53.1094q20.7461 20.7451 52.2793 20.7451t52.2793 -20.7451q20.7461 -20.7461 20.7461 -53.1094
q0 -32.3643 -20.7461 -53.1094q-20.7461 -20.7461 -52.2793 -20.7461t-52.2793 20.7461zM356.939 -427.245q-20.7461 20.7451 -20.7461 53.1094q0 32.3633 20.7461 53.1094q20.7461 20.7451 52.2793 20.7451t52.2793 -20.7451q20.7461 -20.7461 20.7461 -53.1094
q0 -32.3643 -20.7461 -53.1094q-20.7461 -20.7461 -52.2793 -20.7461t-52.2793 20.7461z" />
    <glyph glyph-name="uni067E064A.fina" unicode="&#xfb59;&#xfef2;" horiz-adv-x="1237" 
d="M550 320q0 -21 16.5 -35.5t41 -23.5t71.5 -22q75 -20 125 -42t86 -67.5t36 -121.5q0 -122 -106 -183t-336 -61q-215 0 -329.5 69.5t-114.5 220.5q0 33 5 78.5t15 85.5l173 -37q-7 -26 -11 -62t-4 -66q0 -47 20 -75t77 -42.5t164 -14.5q104 0 161.5 11t79 30t21.5 47
q0 32 -32.5 48.5t-102.5 35.5q-74 19 -122.5 39.5t-83.5 62.5t-35 111q0 68 34.5 119t102 79t163.5 28q118 0 201 -40t134 -97.5t105 -141.5q26 -49 53.5 -73t62.5 -24h16q10 0 15 -20.5t5 -56.5q0 -37 -5 -58t-15 -21h-47q-77 0 -133.5 48.5t-83.5 114.5
q-53 106 -139 159.5t-180 53.5q-104 0 -104 -56zM1101.5 -202q-20.5 -21 -52.5 -21t-52.5 21t-20.5 53t20.5 53t52.5 21t52.5 -21t20.5 -53t-20.5 -53zM1273.5 -96q20.5 -21 20.5 -53t-20.5 -53t-52.5 -21t-52.5 21t-20.5 53t20.5 53t52.5 21t52.5 -21zM1184 -260.5
q19 -19.5 19 -49.5q0 -29 -19.5 -48.5t-48.5 -19.5q-30 0 -49 19.5t-19 48.5q0 31 19 50t49 19t49 -19.5zM528.939 -428.245q-20.7461 20.7451 -20.7461 53.1094q0 32.3633 20.7461 53.1094q20.7461 20.7451 52.2793 20.7451t52.2793 -20.7451
q20.7461 -20.7461 20.7461 -53.1094q0 -32.3643 -20.7461 -53.1094q-20.7461 -20.7461 -52.2793 -20.7461t-52.2793 20.7461zM356.939 -428.245q-20.7461 20.7451 -20.7461 53.1094q0 32.3633 20.7461 53.1094q20.7461 20.7451 52.2793 20.7451t52.2793 -20.7451
q20.7461 -20.7461 20.7461 -53.1094q0 -32.3643 -20.7461 -53.1094q-20.7461 -20.7461 -52.2793 -20.7461t-52.2793 20.7461z" />
    <glyph glyph-name="uni067E0626" unicode="&#xfb58;&#xfe8a;" horiz-adv-x="1115" 
d="M815 -178.5q-104 -57.5 -332 -57.5q-214 0 -328.5 69.5t-114.5 220.5q0 33 5 78.5t15 85.5l173 -37q-7 -26 -11 -62t-4 -66q0 -47 20 -75t77 -42.5t164 -14.5q143 0 197.5 20.5t57.5 59.5q-142 11 -216 85l125 111q22 -22 48.5 -31t75.5 -10l105 1v358h178v-515h-124
q-7 -121 -111 -178.5zM928.5 -357q-20.5 -21 -52.5 -21t-52.5 21t-20.5 53t20.5 53t52.5 21t52.5 -21t20.5 -53t-20.5 -53zM1100.5 -251q20.5 -21 20.5 -53t-20.5 -53t-52.5 -21t-52.5 21t-20.5 53t20.5 53t52.5 21t52.5 -21zM1011 -415.5q19 -19.5 19 -49.5
q0 -29 -19.5 -48.5t-48.5 -19.5q-30 0 -49 19.5t-19 48.5q0 31 19 50t49 19t49 -19.5zM243 407v-89h-258v89h19q-5 20 -5 38q0 57 40 93t102 36q49 0 93 -21l-40 -87q-9 5 -23.5 8.5t-28.5 3.5q-25 0 -39.5 -10t-14.5 -27q0 -11 7 -20.5t19 -13.5h129z" />
    <glyph glyph-name="uni067E0626.fina" unicode="&#xfb59;&#xfe8a;" horiz-adv-x="1237" 
d="M550 320q0 -21 16.5 -35.5t41 -23.5t71.5 -22q75 -20 125 -42t86 -67.5t36 -121.5q0 -122 -106 -183t-336 -61q-215 0 -329.5 69.5t-114.5 220.5q0 33 5 78.5t15 85.5l173 -37q-7 -26 -11 -62t-4 -66q0 -47 20 -75t77 -42.5t164 -14.5q104 0 161.5 11t79 30t21.5 47
q0 32 -32.5 48.5t-102.5 35.5q-74 19 -122.5 39.5t-83.5 62.5t-35 111q0 68 34.5 119t102 79t163.5 28q118 0 201 -40t134 -97.5t105 -141.5q26 -49 53.5 -73t62.5 -24h16q10 0 15 -20.5t5 -56.5q0 -37 -5 -58t-15 -21h-47q-77 0 -133.5 48.5t-83.5 114.5
q-53 106 -139 159.5t-180 53.5q-104 0 -104 -56zM1101.5 -202q-20.5 -21 -52.5 -21t-52.5 21t-20.5 53t20.5 53t52.5 21t52.5 -21t20.5 -53t-20.5 -53zM1273.5 -96q20.5 -21 20.5 -53t-20.5 -53t-52.5 -21t-52.5 21t-20.5 53t20.5 53t52.5 21t52.5 -21zM1184 -260.5
q19 -19.5 19 -49.5q0 -29 -19.5 -48.5t-48.5 -19.5q-30 0 -49 19.5t-19 48.5q0 31 19 50t49 19t49 -19.5zM243 407v-89h-258v89h19q-5 20 -5 38q0 57 40 93t102 36q49 0 93 -21l-40 -87q-9 5 -23.5 8.5t-28.5 3.5q-25 0 -39.5 -10t-14.5 -27q0 -11 7 -20.5t19 -13.5h129z
" />
    <glyph glyph-name="uni062A0626" unicode="&#xfe97;&#xfe8a;" horiz-adv-x="1120" 
d="M825.5 615q-20.5 21 -20.5 53t20.5 53t52.5 21t52.5 -21t20.5 -53t-20.5 -53t-52.5 -21t-52.5 21zM1102.5 721q20.5 -21 20.5 -53t-20.5 -53t-52.5 -21t-52.5 21t-20.5 53t20.5 53t52.5 21t52.5 -21zM872 515h178v-515h-124q-7 -121 -111 -178.5t-332 -57.5
q-214 0 -328.5 69.5t-114.5 220.5q0 33 5 78.5t15 85.5l173 -37q-7 -26 -11 -62t-4 -66q0 -47 20 -75t77 -42.5t164 -14.5q143 0 197.5 20.5t57.5 59.5q-142 11 -216 85l125 111q23 -23 51 -32t82 -9h96v359zM241 376v-89h-258v89h19q-5 20 -5 38q0 57 40 93t102 36
q49 0 93 -21l-40 -87q-9 5 -23.5 8.5t-28.5 3.5q-25 0 -39.5 -10t-14.5 -27q0 -11 7 -20.5t19 -13.5h129z" />
    <glyph glyph-name="uni062A0626.fina" unicode="&#xfe98;&#xfe8a;" horiz-adv-x="1237" 
d="M525.5 623q-20.5 21 -20.5 53t20.5 53t52.5 21t52.5 -21t20.5 -53t-20.5 -53t-52.5 -21t-52.5 21zM697.5 623q-20.5 21 -20.5 53t20.5 53t52.5 21t52.5 -21t20.5 -53t-20.5 -53t-52.5 -21t-52.5 21zM1252 135.5q5 -20.5 5 -56.5q0 -37 -5 -58t-15 -21h-47
q-77 0 -133.5 48.5t-83.5 114.5q-53 106 -139 159.5t-180 53.5q-104 0 -104 -56q0 -21 16.5 -35.5t41 -23.5t71.5 -22q75 -20 125 -42t86 -67.5t36 -121.5q0 -122 -106 -183t-336 -61q-215 0 -329.5 69.5t-114.5 220.5q0 33 5 78.5t15 85.5l173 -37q-7 -26 -11 -62t-4 -66
q0 -47 20 -75t77 -42.5t164 -14.5q104 0 161.5 11t79 30t21.5 47q0 32 -32.5 48.5t-102.5 35.5q-74 19 -122.5 39.5t-83.5 62.5t-35 111q0 68 34.5 119t102 79t163.5 28q118 0 201 -40t134 -97.5t105 -141.5q26 -49 53.5 -73t62.5 -24h16q10 0 15 -20.5zM241 376v-89h-258
v89h19q-5 20 -5 38q0 57 40 93t102 36q49 0 93 -21l-40 -87q-9 5 -23.5 8.5t-28.5 3.5q-25 0 -39.5 -10t-14.5 -27q0 -11 7 -20.5t19 -13.5h129z" />
    <glyph glyph-name="uni062B0626" unicode="&#xfe9b;&#xfe8a;" horiz-adv-x="1120" 
d="M914 779q-19 19 -19 50q0 29 19 48.5t49 19.5q29 0 48.5 -19.5t19.5 -48.5q0 -30 -19 -49.5t-49 -19.5t-49 19zM824.5 615q-20.5 21 -20.5 53t20.5 53t52.5 21t52.5 -21t20.5 -53t-20.5 -53t-52.5 -21t-52.5 21zM1101.5 721q20.5 -21 20.5 -53t-20.5 -53t-52.5 -21
t-52.5 21t-20.5 53t20.5 53t52.5 21t52.5 -21zM872 515h178v-515h-124q-7 -121 -111 -178.5t-332 -57.5q-214 0 -328.5 69.5t-114.5 220.5q0 33 5 78.5t15 85.5l173 -37q-7 -26 -11 -62t-4 -66q0 -47 20 -75t77 -42.5t164 -14.5q143 0 197.5 20.5t57.5 59.5q-142 11 -216 85
l125 111q23 -23 51 -32t82 -9h96v359zM241 376v-89h-258v89h19q-5 20 -5 38q0 57 40 93t102 36q49 0 93 -21l-40 -87q-9 5 -23.5 8.5t-28.5 3.5q-25 0 -39.5 -10t-14.5 -27q0 -11 7 -20.5t19 -13.5h129z" />
    <glyph glyph-name="uni062B0626.fina" unicode="&#xfe9c;&#xfe8a;" horiz-adv-x="1237" 
d="M614 786q-19 19 -19 50q0 29 19 48.5t49 19.5q29 0 48.5 -19.5t19.5 -48.5q0 -30 -19 -49.5t-49 -19.5t-49 19zM524.5 622q-20.5 21 -20.5 53t20.5 53t52.5 21t52.5 -21t20.5 -53t-20.5 -53t-52.5 -21t-52.5 21zM696.5 728q20.5 21 52.5 21t52.5 -21t20.5 -53t-20.5 -53
t-52.5 -21t-52.5 21t-20.5 53t20.5 53zM1252 135.5q5 -20.5 5 -56.5q0 -37 -5 -58t-15 -21h-47q-77 0 -133.5 48.5t-83.5 114.5q-53 106 -139 159.5t-180 53.5q-104 0 -104 -56q0 -21 16.5 -35.5t41 -23.5t71.5 -22q75 -20 125 -42t86 -67.5t36 -121.5q0 -122 -106 -183
t-336 -61q-215 0 -329.5 69.5t-114.5 220.5q0 33 5 78.5t15 85.5l173 -37q-7 -26 -11 -62t-4 -66q0 -47 20 -75t77 -42.5t164 -14.5q104 0 161.5 11t79 30t21.5 47q0 32 -32.5 48.5t-102.5 35.5q-74 19 -122.5 39.5t-83.5 62.5t-35 111q0 68 34.5 119t102 79t163.5 28
q118 0 201 -40t134 -97.5t105 -141.5q26 -49 53.5 -73t62.5 -24h16q10 0 15 -20.5zM241 376v-89h-258v89h19q-5 20 -5 38q0 57 40 93t102 36q49 0 93 -21l-40 -87q-9 5 -23.5 8.5t-28.5 3.5q-25 0 -39.5 -10t-14.5 -27q0 -11 7 -20.5t19 -13.5h129z" />
    <glyph glyph-name="uni06330632" unicode="&#xfeb3;&#xfeb0;" horiz-adv-x="1374" 
d="M1319 515v-277q0 -120 -59.5 -179t-184.5 -59q-119 0 -175 54q-67 -54 -188 -54q-116 0 -182.5 50t-77.5 149q-40 -13 -94 -13q-51 0 -98 14v-168q0 -118 -68.5 -188t-187.5 -76l-24 156q56 -1 79 23.5t23 84.5v483h178v-159q47 -14 98 -14q50 0 92 12v111h178v-222
q0 -39 5 -56.5t22 -24t57 -6.5t57.5 6.5t22.5 24t5 56.5v222h177v-227q0 -34 -6 -63q12 -10 31 -14.5t49 -4.5q38 0 58 7t28 25t8 51v276h177zM108 632q-25 25 -25 64t25 64t63 25t63 -25t25 -64t-25 -64t-63 -25t-63 25z" />
    <glyph glyph-name="uni06330632.fina" unicode="&#xfeb4;&#xfeb0;" horiz-adv-x="1473" 
d="M1488 135.5q5 -20.5 5 -56.5q0 -37 -5 -58t-15 -21h-75q-92 0 -147 50q-60 -51 -176 -51q-119 0 -175 54q-67 -54 -188 -54q-116 0 -182.5 50t-77.5 149q-40 -13 -94 -13q-51 0 -98 14v-168q0 -118 -68.5 -188t-187.5 -76l-24 156q56 -1 79 23.5t23 84.5v483h178v-159
q47 -14 98 -14q50 0 92 12v111h178v-222q0 -39 5 -56.5t22 -24t57 -6.5t57.5 6.5t22.5 24t5 56.5v222h177v-227q0 -34 -6 -63q12 -10 31 -14.5t49 -4.5q38 0 58 7t28 25t8 51v276h177v-277q0 -30 -5 -63q21 -18 55 -18h104q10 0 15 -20.5zM108 632q-25 25 -25 64t25 64
t63 25t63 -25t25 -64t-25 -64t-63 -25t-63 25z" />
    <glyph glyph-name="uni06330626" unicode="&#xfeb3;&#xfe8a;" horiz-adv-x="1883" 
d="M1829 515v-277q0 -120 -59.5 -179t-185.5 -59q-115 0 -173 52q-65 -52 -179 -52q-102 0 -163 41.5t-96 121.5q-53 106 -139 159.5t-180 53.5q-104 0 -104 -56q0 -21 16.5 -35.5t41 -23.5t71.5 -22q75 -20 125 -42t86 -67.5t36 -121.5q0 -122 -106 -183t-336 -61
q-215 0 -329.5 69.5t-114.5 220.5q0 33 5 78.5t15 85.5l173 -37q-7 -26 -11 -62t-4 -66q0 -47 20 -75t77 -42.5t164 -14.5q104 0 161.5 11t79 30t21.5 47q0 32 -32.5 48.5t-102.5 35.5q-74 19 -122.5 39.5t-83.5 62.5t-35 111q0 68 34.5 119t102 79t163.5 28q118 0 201 -40
t134 -97.5t105 -141.5q32 -58 57.5 -77.5t64.5 -19.5q46 0 62.5 18.5t16.5 64.5v226h178v-227q0 -35 -6 -64q22 -18 80 -18q38 0 58 7.5t27.5 25t7.5 50.5v276h178zM241 376v-89h-258v89h19q-5 20 -5 38q0 57 40 93t102 36q49 0 93 -21l-40 -87q-9 5 -23.5 8.5t-28.5 3.5
q-25 0 -39.5 -10t-14.5 -27q0 -11 7 -20.5t19 -13.5h129z" />
    <glyph glyph-name="uni06330626.fina" unicode="&#xfeb4;&#xfe8a;" horiz-adv-x="1982" 
d="M1997 135.5q5 -20.5 5 -56.5q0 -37 -5 -58t-15 -21h-75q-92 0 -148 50q-61 -50 -175 -50q-115 0 -173 52q-65 -52 -179 -52q-102 0 -163 41.5t-96 121.5q-53 106 -139 159.5t-180 53.5q-104 0 -104 -56q0 -21 16.5 -35.5t41 -23.5t71.5 -22q75 -20 125 -42t86 -67.5
t36 -121.5q0 -122 -106 -183t-336 -61q-215 0 -329.5 69.5t-114.5 220.5q0 33 5 78.5t15 85.5l173 -37q-7 -26 -11 -62t-4 -66q0 -47 20 -75t77 -42.5t164 -14.5q104 0 161.5 11t79 30t21.5 47q0 32 -32.5 48.5t-102.5 35.5q-74 19 -122.5 39.5t-83.5 62.5t-35 111
q0 68 34.5 119t102 79t163.5 28q118 0 201 -40t134 -97.5t105 -141.5q32 -58 57.5 -77.5t64.5 -19.5q46 0 62.5 18.5t16.5 64.5v226h178v-227q0 -35 -6 -64q22 -18 80 -18q38 0 58 7.5t27.5 25t7.5 50.5v276h178v-277q0 -31 -5 -64q20 -18 55 -18h103q10 0 15 -20.5z
M241 376v-89h-258v89h19q-5 20 -5 38q0 57 40 93t102 36q49 0 93 -21l-40 -87q-9 5 -23.5 8.5t-28.5 3.5q-25 0 -39.5 -10t-14.5 -27q0 -11 7 -20.5t19 -13.5h129z" />
    <glyph glyph-name="uni06340632" unicode="&#xfeb7;&#xfeb0;" horiz-adv-x="1374" 
d="M1319 515v-277q0 -120 -59.5 -179t-184.5 -59q-119 0 -175 54q-67 -54 -188 -54q-116 0 -182.5 50t-77.5 149q-40 -13 -94 -13q-51 0 -98 14v-168q0 -118 -68.5 -188t-187.5 -76l-24 156q56 -1 79 23.5t23 84.5v483h178v-159q47 -14 98 -14q50 0 92 12v111h178v-222
q0 -39 5 -56.5t22 -24t57 -6.5t57.5 6.5t22.5 24t5 56.5v222h177v-227q0 -34 -6 -63q12 -10 31 -14.5t49 -4.5q38 0 58 7t28 25t8 51v276h177zM935.5 867.5q19.5 -19.5 19.5 -48.5q0 -30 -19 -49.5t-49 -19.5t-49 19t-19 50q0 29 19 48.5t49 19.5q29 0 48.5 -19.5z
M853.5 711q20.5 -21 20.5 -53t-20.5 -53t-52.5 -21t-52.5 21t-20.5 53t20.5 53t52.5 21t52.5 -21zM1025.5 711q20.5 -21 20.5 -53t-20.5 -53t-52.5 -21t-52.5 21t-20.5 53t20.5 53t52.5 21t52.5 -21zM108 632q-25 25 -25 64t25 64t63 25t63 -25t25 -64t-25 -64t-63 -25
t-63 25z" />
    <glyph glyph-name="uni06340632.fina" unicode="&#xfeb8;&#xfeb0;" horiz-adv-x="1473" 
d="M1488 135.5q5 -20.5 5 -56.5q0 -37 -5 -58t-15 -21h-75q-92 0 -147 50q-60 -51 -176 -51q-119 0 -175 54q-67 -54 -188 -54q-116 0 -182.5 50t-77.5 149q-40 -13 -94 -13q-51 0 -98 14v-168q0 -118 -68.5 -188t-187.5 -76l-24 156q56 -1 79 23.5t23 84.5v483h178v-159
q47 -14 98 -14q50 0 92 12v111h178v-222q0 -39 5 -56.5t22 -24t57 -6.5t57.5 6.5t22.5 24t5 56.5v222h177v-227q0 -34 -6 -63q12 -10 31 -14.5t49 -4.5q38 0 58 7t28 25t8 51v276h177v-277q0 -30 -5 -63q21 -18 55 -18h104q10 0 15 -20.5zM935.5 867.5
q19.5 -19.5 19.5 -48.5q0 -30 -19 -49.5t-49 -19.5t-49 19t-19 50q0 29 19 48.5t49 19.5q29 0 48.5 -19.5zM853.5 711q20.5 -21 20.5 -53t-20.5 -53t-52.5 -21t-52.5 21t-20.5 53t20.5 53t52.5 21t52.5 -21zM1025.5 711q20.5 -21 20.5 -53t-20.5 -53t-52.5 -21t-52.5 21
t-20.5 53t20.5 53t52.5 21t52.5 -21zM108 632q-25 25 -25 64t25 64t63 25t63 -25t25 -64t-25 -64t-63 -25t-63 25z" />
    <glyph glyph-name="uni06340626" unicode="&#xfeb7;&#xfe8a;" horiz-adv-x="1883" 
d="M1829 515v-277q0 -120 -59.5 -179t-185.5 -59q-115 0 -173 52q-65 -52 -179 -52q-102 0 -163 41.5t-96 121.5q-53 106 -139 159.5t-180 53.5q-104 0 -104 -56q0 -21 16.5 -35.5t41 -23.5t71.5 -22q75 -20 125 -42t86 -67.5t36 -121.5q0 -122 -106 -183t-336 -61
q-215 0 -329.5 69.5t-114.5 220.5q0 33 5 78.5t15 85.5l173 -37q-7 -26 -11 -62t-4 -66q0 -47 20 -75t77 -42.5t164 -14.5q104 0 161.5 11t79 30t21.5 47q0 32 -32.5 48.5t-102.5 35.5q-74 19 -122.5 39.5t-83.5 62.5t-35 111q0 68 34.5 119t102 79t163.5 28q118 0 201 -40
t134 -97.5t105 -141.5q32 -58 57.5 -77.5t64.5 -19.5q46 0 62.5 18.5t16.5 64.5v226h178v-227q0 -35 -6 -64q22 -18 80 -18q38 0 58 7.5t27.5 25t7.5 50.5v276h178zM1443.5 867.5q19.5 -19.5 19.5 -48.5q0 -30 -19 -49.5t-49 -19.5t-49 19t-19 50q0 29 19 48.5t49 19.5
q29 0 48.5 -19.5zM1361.5 711q20.5 -21 20.5 -53t-20.5 -53t-52.5 -21t-52.5 21t-20.5 53t20.5 53t52.5 21t52.5 -21zM1533.5 711q20.5 -21 20.5 -53t-20.5 -53t-52.5 -21t-52.5 21t-20.5 53t20.5 53t52.5 21t52.5 -21zM241 376v-89h-258v89h19q-5 20 -5 38q0 57 40 93
t102 36q49 0 93 -21l-40 -87q-9 5 -23.5 8.5t-28.5 3.5q-25 0 -39.5 -10t-14.5 -27q0 -11 7 -20.5t19 -13.5h129z" />
    <glyph glyph-name="uni06340626.fina" unicode="&#xfeb8;&#xfe8a;" horiz-adv-x="1982" 
d="M1997 135.5q5 -20.5 5 -56.5q0 -37 -5 -58t-15 -21h-75q-92 0 -148 50q-61 -50 -175 -50q-115 0 -173 52q-65 -52 -179 -52q-102 0 -163 41.5t-96 121.5q-53 106 -139 159.5t-180 53.5q-104 0 -104 -56q0 -21 16.5 -35.5t41 -23.5t71.5 -22q75 -20 125 -42t86 -67.5
t36 -121.5q0 -122 -106 -183t-336 -61q-215 0 -329.5 69.5t-114.5 220.5q0 33 5 78.5t15 85.5l173 -37q-7 -26 -11 -62t-4 -66q0 -47 20 -75t77 -42.5t164 -14.5q104 0 161.5 11t79 30t21.5 47q0 32 -32.5 48.5t-102.5 35.5q-74 19 -122.5 39.5t-83.5 62.5t-35 111
q0 68 34.5 119t102 79t163.5 28q118 0 201 -40t134 -97.5t105 -141.5q32 -58 57.5 -77.5t64.5 -19.5q46 0 62.5 18.5t16.5 64.5v226h178v-227q0 -35 -6 -64q22 -18 80 -18q38 0 58 7.5t27.5 25t7.5 50.5v276h178v-277q0 -31 -5 -64q20 -18 55 -18h103q10 0 15 -20.5z
M1443.5 867.5q19.5 -19.5 19.5 -48.5q0 -30 -19 -49.5t-49 -19.5t-49 19t-19 50q0 29 19 48.5t49 19.5q29 0 48.5 -19.5zM1361.5 711q20.5 -21 20.5 -53t-20.5 -53t-52.5 -21t-52.5 21t-20.5 53t20.5 53t52.5 21t52.5 -21zM1533.5 711q20.5 -21 20.5 -53t-20.5 -53
t-52.5 -21t-52.5 21t-20.5 53t20.5 53t52.5 21t52.5 -21zM241 376v-89h-258v89h19q-5 20 -5 38q0 57 40 93t102 36q49 0 93 -21l-40 -87q-9 5 -23.5 8.5t-28.5 3.5q-25 0 -39.5 -10t-14.5 -27q0 -11 7 -20.5t19 -13.5h129z" />
    <glyph glyph-name="uni06350632" unicode="&#xfebb;&#xfeb0;" horiz-adv-x="1575" 
d="M1366 508q81 -46 120.5 -123.5t39.5 -172.5v-212h-814q-116 0 -182.5 50t-77.5 149q-40 -13 -94 -13q-51 0 -98 14v-168q0 -118 -68.5 -188t-187.5 -76l-24 156q56 -1 79 23.5t23 84.5v483h178v-159q47 -14 98 -14q50 0 92 12v111h178v-222q0 -38 4.5 -55t20 -24t50.5 -8
q22 100 78 190t153 149t233 59q118 0 199 -46zM1348 156v56q0 91 -44.5 138.5t-128.5 47.5q-105 0 -184 -67.5t-109 -174.5h466zM108 632q-25 25 -25 64t25 64t63 25t63 -25t25 -64t-25 -64t-63 -25t-63 25z" />
    <glyph glyph-name="uni06350632.fina" unicode="&#xfebc;&#xfeb0;" horiz-adv-x="1661" 
d="M1676 135.5q5 -20.5 5 -56.5q0 -37 -5 -58t-15 -21h-949q-116 0 -182.5 50t-77.5 149q-40 -13 -94 -13q-51 0 -98 14v-168q0 -118 -68.5 -188t-187.5 -76l-24 156q56 -1 79 23.5t23 84.5v483h178v-159q47 -14 98 -14q50 0 92 12v111h178v-222q0 -38 4.5 -55t20 -24
t50.5 -8q22 100 78 190t153 149t233 59q118 0 199 -46t120.5 -123.5t39.5 -172.5v-56h135q10 0 15 -20.5zM991 330.5q-79 -67.5 -109 -174.5h466v56q0 91 -44.5 138.5t-128.5 47.5q-105 0 -184 -67.5zM108 632q-25 25 -25 64t25 64t63 25t63 -25t25 -64t-25 -64t-63 -25
t-63 25z" />
    <glyph glyph-name="uni06350626" unicode="&#xfebb;&#xfe8a;" horiz-adv-x="2040" 
d="M1832 508q81 -46 120.5 -123.5t39.5 -172.5v-212h-802q-77 0 -133.5 48.5t-83.5 114.5q-53 106 -139 159.5t-180 53.5q-104 0 -104 -56q0 -21 16.5 -35.5t41 -23.5t71.5 -22q75 -20 125 -42t86 -67.5t36 -121.5q0 -122 -106 -183t-336 -61q-215 0 -329.5 69.5
t-114.5 220.5q0 33 5 78.5t15 85.5l173 -37q-7 -26 -11 -62t-4 -66q0 -47 20 -75t77 -42.5t164 -14.5q104 0 161.5 11t79 30t21.5 47q0 32 -32.5 48.5t-102.5 35.5q-74 19 -122.5 39.5t-83.5 62.5t-35 111q0 68 34.5 119t102 79t163.5 28q118 0 201 -40t134 -97.5
t105 -141.5q33 -62 67 -82q24 97 80.5 183.5t152.5 143t228 56.5q118 0 199 -46zM1814 156v56q0 91 -44.5 138.5t-128.5 47.5q-69 0 -128.5 -31t-101.5 -85.5t-62 -124.5zM241 376v-89h-258v89h19q-5 20 -5 38q0 57 40 93t102 36q49 0 93 -21l-40 -87q-9 5 -23.5 8.5
t-28.5 3.5q-25 0 -39.5 -10t-14.5 -27q0 -11 7 -20.5t19 -13.5h129z" />
    <glyph glyph-name="uni06350626.fina" unicode="&#xfebc;&#xfe8a;" horiz-adv-x="2127" 
d="M2142 135.5q5 -20.5 5 -56.5q0 -37 -5 -58t-15 -21h-937q-77 0 -133.5 48.5t-83.5 114.5q-53 106 -139 159.5t-180 53.5q-104 0 -104 -56q0 -21 16.5 -35.5t41 -23.5t71.5 -22q75 -20 125 -42t86 -67.5t36 -121.5q0 -122 -106 -183t-336 -61q-215 0 -329.5 69.5
t-114.5 220.5q0 33 5 78.5t15 85.5l173 -37q-7 -26 -11 -62t-4 -66q0 -47 20 -75t77 -42.5t164 -14.5q104 0 161.5 11t79 30t21.5 47q0 32 -32.5 48.5t-102.5 35.5q-74 19 -122.5 39.5t-83.5 62.5t-35 111q0 68 34.5 119t102 79t163.5 28q118 0 201 -40t134 -97.5
t105 -141.5q33 -62 67 -82q24 97 80.5 183.5t152.5 143t228 56.5q118 0 199 -46t120.5 -123.5t39.5 -172.5v-56h135q10 0 15 -20.5zM1814 156v56q0 91 -44.5 138.5t-128.5 47.5q-69 0 -128.5 -31t-101.5 -85.5t-62 -124.5zM241 376v-89h-258v89h19q-5 20 -5 38q0 57 40 93
t102 36q49 0 93 -21l-40 -87q-9 5 -23.5 8.5t-28.5 3.5q-25 0 -39.5 -10t-14.5 -27q0 -11 7 -20.5t19 -13.5h129z" />
    <glyph glyph-name="uni06360632" unicode="&#xfebf;&#xfeb0;" horiz-adv-x="1575" 
d="M1366 508q81 -46 120.5 -123.5t39.5 -172.5v-212h-814q-116 0 -182.5 50t-77.5 149q-40 -13 -94 -13q-51 0 -98 14v-168q0 -118 -68.5 -188t-187.5 -76l-24 156q56 -1 79 23.5t23 84.5v483h178v-159q47 -14 98 -14q50 0 92 12v111h178v-222q0 -38 4.5 -55t20 -24t50.5 -8
q22 100 78 190t153 149t233 59q118 0 199 -46zM1348 156v56q0 91 -44.5 138.5t-128.5 47.5q-105 0 -184 -67.5t-109 -174.5h466zM1104 651q-25 25 -25 64t25 64t63 25t63 -25t25 -64t-25 -64t-63 -25t-63 25zM108 632q-25 25 -25 64t25 64t63 25t63 -25t25 -64t-25 -64
t-63 -25t-63 25z" />
    <glyph glyph-name="uni06360632.fina" unicode="&#xfec0;&#xfeb0;" horiz-adv-x="1661" 
d="M1676 135.5q5 -20.5 5 -56.5q0 -37 -5 -58t-15 -21h-949q-116 0 -182.5 50t-77.5 149q-40 -13 -94 -13q-51 0 -98 14v-168q0 -118 -68.5 -188t-187.5 -76l-24 156q56 -1 79 23.5t23 84.5v483h178v-159q47 -14 98 -14q50 0 92 12v111h178v-222q0 -38 4.5 -55t20 -24
t50.5 -8q22 100 78 190t153 149t233 59q118 0 199 -46t120.5 -123.5t39.5 -172.5v-56h135q10 0 15 -20.5zM991 330.5q-79 -67.5 -109 -174.5h466v56q0 91 -44.5 138.5t-128.5 47.5q-105 0 -184 -67.5zM1104 651q-25 25 -25 64t25 64t63 25t63 -25t25 -64t-25 -64t-63 -25
t-63 25zM108 632q-25 25 -25 64t25 64t63 25t63 -25t25 -64t-25 -64t-63 -25t-63 25z" />
    <glyph glyph-name="uni06360626" unicode="&#xfebf;&#xfe8a;" horiz-adv-x="2040" 
d="M1832 508q81 -46 120.5 -123.5t39.5 -172.5v-212h-802q-77 0 -133.5 48.5t-83.5 114.5q-53 106 -139 159.5t-180 53.5q-104 0 -104 -56q0 -21 16.5 -35.5t41 -23.5t71.5 -22q75 -20 125 -42t86 -67.5t36 -121.5q0 -122 -106 -183t-336 -61q-215 0 -329.5 69.5
t-114.5 220.5q0 33 5 78.5t15 85.5l173 -37q-7 -26 -11 -62t-4 -66q0 -47 20 -75t77 -42.5t164 -14.5q104 0 161.5 11t79 30t21.5 47q0 32 -32.5 48.5t-102.5 35.5q-74 19 -122.5 39.5t-83.5 62.5t-35 111q0 68 34.5 119t102 79t163.5 28q118 0 201 -40t134 -97.5
t105 -141.5q33 -62 67 -82q24 97 80.5 183.5t152.5 143t228 56.5q118 0 199 -46zM1814 156v56q0 91 -44.5 138.5t-128.5 47.5q-69 0 -128.5 -31t-101.5 -85.5t-62 -124.5zM1570 651q-25 25 -25 64t25 64t63 25t63 -25t25 -64t-25 -64t-63 -25t-63 25zM241 376v-89h-258v89
h19q-5 20 -5 38q0 57 40 93t102 36q49 0 93 -21l-40 -87q-9 5 -23.5 8.5t-28.5 3.5q-25 0 -39.5 -10t-14.5 -27q0 -11 7 -20.5t19 -13.5h129z" />
    <glyph glyph-name="uni06360626.fina" unicode="&#xfec0;&#xfe8a;" horiz-adv-x="2127" 
d="M2142 135.5q5 -20.5 5 -56.5q0 -37 -5 -58t-15 -21h-937q-77 0 -133.5 48.5t-83.5 114.5q-53 106 -139 159.5t-180 53.5q-104 0 -104 -56q0 -21 16.5 -35.5t41 -23.5t71.5 -22q75 -20 125 -42t86 -67.5t36 -121.5q0 -122 -106 -183t-336 -61q-215 0 -329.5 69.5
t-114.5 220.5q0 33 5 78.5t15 85.5l173 -37q-7 -26 -11 -62t-4 -66q0 -47 20 -75t77 -42.5t164 -14.5q104 0 161.5 11t79 30t21.5 47q0 32 -32.5 48.5t-102.5 35.5q-74 19 -122.5 39.5t-83.5 62.5t-35 111q0 68 34.5 119t102 79t163.5 28q118 0 201 -40t134 -97.5
t105 -141.5q33 -62 67 -82q24 97 80.5 183.5t152.5 143t228 56.5q118 0 199 -46t120.5 -123.5t39.5 -172.5v-56h135q10 0 15 -20.5zM1814 156v56q0 91 -44.5 138.5t-128.5 47.5q-69 0 -128.5 -31t-101.5 -85.5t-62 -124.5zM1570 651q-25 25 -25 64t25 64t63 25t63 -25
t25 -64t-25 -64t-63 -25t-63 25zM241 376v-89h-258v89h19q-5 20 -5 38q0 57 40 93t102 36q49 0 93 -21l-40 -87q-9 5 -23.5 8.5t-28.5 3.5q-25 0 -39.5 -10t-14.5 -27q0 -11 7 -20.5t19 -13.5h129z" />
    <glyph glyph-name="uni06410626" unicode="&#xfed3;&#xfe8a;" horiz-adv-x="1313" 
d="M968 637q-25 25 -25 64t25 64t63 25t63 -25t25 -64t-25 -64t-63 -25t-63 25zM1273 464v-464h-347q-7 -121 -111 -178.5t-332 -57.5q-214 0 -328.5 69.5t-114.5 220.5q0 33 5 78.5t15 85.5l173 -37q-7 -26 -11 -62t-4 -66q0 -47 20 -75t77 -42.5t164 -14.5
q143 0 197.5 20.5t57.5 59.5q-140 10 -216 85l125 111q22 -21 47 -30.5t70 -10.5q-22 50 -22 105q0 77 39 139.5t106 98t148 35.5q107 0 242 -70zM948.5 345.5q-32.5 -32.5 -32.5 -83.5q0 -40 22 -68.5t60 -36.5h97v212q-28 9 -62 9q-52 0 -84.5 -32.5zM241 377v-89h-258v89
h19q-5 20 -5 38q0 57 40 93t102 36q49 0 93 -21l-40 -87q-9 5 -23.5 8.5t-28.5 3.5q-25 0 -39.5 -10t-14.5 -27q0 -11 7 -20.5t19 -13.5h129z" />
    <glyph glyph-name="uni06420626" unicode="&#xfed7;&#xfe8a;" horiz-adv-x="1313" 
d="M890.5 632q-20.5 21 -20.5 53t20.5 53t52.5 21t52.5 -21t20.5 -53t-20.5 -53t-52.5 -21t-52.5 21zM1062.5 632q-20.5 21 -20.5 53t20.5 53t52.5 21t52.5 -21t20.5 -53t-20.5 -53t-52.5 -21t-52.5 21zM1273 464v-464h-347q-7 -121 -111 -178.5t-332 -57.5
q-214 0 -328.5 69.5t-114.5 220.5q0 33 5 78.5t15 85.5l173 -37q-7 -26 -11 -62t-4 -66q0 -47 20 -75t77 -42.5t164 -14.5q143 0 197.5 20.5t57.5 59.5q-142 11 -216 85l125 111q22 -21 47 -30.5t70 -10.5q-22 50 -22 105q0 77 39 139.5t106 98t148 35.5q107 0 242 -70z
M948.5 345.5q-32.5 -32.5 -32.5 -83.5q0 -40 22 -68.5t60 -36.5h97v212q-28 9 -62 9q-52 0 -84.5 -32.5zM241 377v-89h-258v89h19q-5 20 -5 38q0 57 40 93t102 36q49 0 93 -21l-40 -87q-9 5 -23.5 8.5t-28.5 3.5q-25 0 -39.5 -10t-14.5 -27q0 -11 7 -20.5t19 -13.5h129z" />
    <glyph glyph-name="uni06430626" unicode="&#xfedb;&#xfe8a;" horiz-adv-x="1161" 
d="M1045 359.5q52 -80.5 52 -203.5v-156h-171q-7 -121 -111 -178.5t-332 -57.5q-214 0 -328.5 69.5t-114.5 220.5q0 33 5 78.5t15 85.5l173 -37q-7 -26 -11 -62t-4 -66q0 -47 20 -75t77 -42.5t164 -14.5q143 0 197.5 20.5t57.5 59.5q-142 11 -216 85l125 111q23 -23 51 -32
t82 -9h142v9q0 83 -39 126.5t-114 43.5l-109 111l275 276l109 -110l-140 -141q93 -31 145 -111.5zM241 376v-89h-258v89h19q-5 20 -5 38q0 57 40 93t102 36q49 0 93 -21l-40 -87q-9 5 -23.5 8.5t-28.5 3.5q-25 0 -39.5 -10t-14.5 -27q0 -11 7 -20.5t19 -13.5h129z" />
    <glyph glyph-name="uni06430626.fina" unicode="&#xfedc;&#xfe8a;" horiz-adv-x="1236" 
d="M1251 135.5q5 -20.5 5 -56.5q0 -37 -5 -58t-15 -21h-310q-7 -121 -111 -178.5t-332 -57.5q-214 0 -328.5 69.5t-114.5 220.5q0 33 5 78.5t15 85.5l173 -37q-7 -26 -11 -62t-4 -66q0 -47 20 -75t77 -42.5t164 -14.5q143 0 197.5 20.5t57.5 59.5q-142 11 -216 85l125 111
q23 -23 51 -32t82 -9h142v9q0 83 -39 126.5t-114 43.5l-109 111l275 276l109 -110l-140 -141q93 -31 145 -111.5t52 -203.5h139q10 0 15 -20.5zM241 376v-89h-258v89h19q-5 20 -5 38q0 57 40 93t102 36q49 0 93 -21l-40 -87q-9 5 -23.5 8.5t-28.5 3.5q-25 0 -39.5 -10
t-14.5 -27q0 -11 7 -20.5t19 -13.5h129z" />
    <glyph glyph-name="uni06AF0649" unicode="&#xfb94;&#xfef0;" horiz-adv-x="1161" 
d="M623 500l-88 90l263 265l89 -89zM1045 359.5q52 -80.5 52 -203.5v-156h-171q-7 -121 -111 -178.5t-332 -57.5q-214 0 -328.5 69.5t-114.5 220.5q0 33 5 78.5t15 85.5l173 -37q-7 -26 -11 -62t-4 -66q0 -47 20 -75t77 -42.5t164 -14.5q143 0 197.5 20.5t57.5 59.5
q-142 11 -216 85l125 111q23 -23 51 -32t82 -9h142v9q0 83 -39 126.5t-114 43.5l-109 111l275 276l109 -110l-140 -141q93 -31 145 -111.5z" />
    <glyph glyph-name="uni06AF0649.fina" unicode="&#xfb95;&#xfef0;" horiz-adv-x="1236" 
d="M623 500l-88 90l263 265l89 -89zM1251 135.5q5 -20.5 5 -56.5q0 -37 -5 -58t-15 -21h-310q-7 -121 -111 -178.5t-332 -57.5q-214 0 -328.5 69.5t-114.5 220.5q0 33 5 78.5t15 85.5l173 -37q-7 -26 -11 -62t-4 -66q0 -47 20 -75t77 -42.5t164 -14.5q143 0 197.5 20.5
t57.5 59.5q-142 11 -216 85l125 111q23 -23 51 -32t82 -9h142v9q0 83 -39 126.5t-114 43.5l-109 111l275 276l109 -110l-140 -141q93 -31 145 -111.5t52 -203.5h139q10 0 15 -20.5z" />
    <glyph glyph-name="uni06AF064A" unicode="&#xfb94;&#xfef2;" horiz-adv-x="1161" 
d="M623 500l-88 90l263 265l89 -89zM1045 359.5q52 -80.5 52 -203.5v-156h-171q-7 -121 -111 -178.5t-332 -57.5q-214 0 -328.5 69.5t-114.5 220.5q0 33 5 78.5t15 85.5l173 -37q-7 -26 -11 -62t-4 -66q0 -47 20 -75t77 -42.5t164 -14.5q143 0 197.5 20.5t57.5 59.5
q-142 11 -216 85l125 111q23 -23 51 -32t82 -9h142v9q0 83 -39 126.5t-114 43.5l-109 111l275 276l109 -110l-140 -141q93 -31 145 -111.5zM528.939 -428.245q-20.7461 20.7451 -20.7461 53.1094q0 32.3633 20.7461 53.1094q20.7461 20.7451 52.2793 20.7451
t52.2793 -20.7451q20.7461 -20.7461 20.7461 -53.1094q0 -32.3643 -20.7461 -53.1094q-20.7461 -20.7461 -52.2793 -20.7461t-52.2793 20.7461zM356.939 -428.245q-20.7461 20.7451 -20.7461 53.1094q0 32.3633 20.7461 53.1094q20.7461 20.7451 52.2793 20.7451
t52.2793 -20.7451q20.7461 -20.7461 20.7461 -53.1094q0 -32.3643 -20.7461 -53.1094q-20.7461 -20.7461 -52.2793 -20.7461t-52.2793 20.7461z" />
    <glyph glyph-name="uni06AF064A.fina" unicode="&#xfb95;&#xfef2;" horiz-adv-x="1236" 
d="M623 500l-88 90l263 265l89 -89zM1251 135.5q5 -20.5 5 -56.5q0 -37 -5 -58t-15 -21h-310q-7 -121 -111 -178.5t-332 -57.5q-214 0 -328.5 69.5t-114.5 220.5q0 33 5 78.5t15 85.5l173 -37q-7 -26 -11 -62t-4 -66q0 -47 20 -75t77 -42.5t164 -14.5q143 0 197.5 20.5
t57.5 59.5q-142 11 -216 85l125 111q23 -23 51 -32t82 -9h142v9q0 83 -39 126.5t-114 43.5l-109 111l275 276l109 -110l-140 -141q93 -31 145 -111.5t52 -203.5h139q10 0 15 -20.5zM528.939 -428.245q-20.7461 20.7451 -20.7461 53.1094q0 32.3633 20.7461 53.1094
q20.7461 20.7451 52.2793 20.7451t52.2793 -20.7451q20.7461 -20.7461 20.7461 -53.1094q0 -32.3643 -20.7461 -53.1094q-20.7461 -20.7461 -52.2793 -20.7461t-52.2793 20.7461zM356.939 -428.245q-20.7461 20.7451 -20.7461 53.1094q0 32.3633 20.7461 53.1094
q20.7461 20.7451 52.2793 20.7451t52.2793 -20.7451q20.7461 -20.7461 20.7461 -53.1094q0 -32.3643 -20.7461 -53.1094q-20.7461 -20.7461 -52.2793 -20.7461t-52.2793 20.7461z" />
    <glyph glyph-name="uni06AF0626" unicode="&#xfb94;&#xfe8a;" horiz-adv-x="1161" 
d="M623 500l-88 90l263 265l89 -89zM1045 359.5q52 -80.5 52 -203.5v-156h-171q-7 -121 -111 -178.5t-332 -57.5q-214 0 -328.5 69.5t-114.5 220.5q0 33 5 78.5t15 85.5l173 -37q-7 -26 -11 -62t-4 -66q0 -47 20 -75t77 -42.5t164 -14.5q143 0 197.5 20.5t57.5 59.5
q-142 11 -216 85l125 111q23 -23 51 -32t82 -9h142v9q0 83 -39 126.5t-114 43.5l-109 111l275 276l109 -110l-140 -141q93 -31 145 -111.5zM241 376v-89h-258v89h19q-5 20 -5 38q0 57 40 93t102 36q49 0 93 -21l-40 -87q-9 5 -23.5 8.5t-28.5 3.5q-25 0 -39.5 -10t-14.5 -27
q0 -11 7 -20.5t19 -13.5h129z" />
    <glyph glyph-name="uni06AF0626.fina" unicode="&#xfb95;&#xfe8a;" horiz-adv-x="1236" 
d="M623 500l-88 90l263 265l89 -89zM1251 135.5q5 -20.5 5 -56.5q0 -37 -5 -58t-15 -21h-310q-7 -121 -111 -178.5t-332 -57.5q-214 0 -328.5 69.5t-114.5 220.5q0 33 5 78.5t15 85.5l173 -37q-7 -26 -11 -62t-4 -66q0 -47 20 -75t77 -42.5t164 -14.5q143 0 197.5 20.5
t57.5 59.5q-142 11 -216 85l125 111q23 -23 51 -32t82 -9h142v9q0 83 -39 126.5t-114 43.5l-109 111l275 276l109 -110l-140 -141q93 -31 145 -111.5t52 -203.5h139q10 0 15 -20.5zM241 376v-89h-258v89h19q-5 20 -5 38q0 57 40 93t102 36q49 0 93 -21l-40 -87
q-9 5 -23.5 8.5t-28.5 3.5q-25 0 -39.5 -10t-14.5 -27q0 -11 7 -20.5t19 -13.5h129z" />
    <glyph glyph-name="uni06440671" unicode="&#xfedf;&#xfb51;" horiz-adv-x="753" 
d="M688 753v-753h-648v156h123v456h178v-456h170v597h177zM347 855.5q36 -35.5 39 -93.5v-89h-273v89h19q2 56 38 92t89 37q52 0 88 -35.5zM303 762q-2 19 -14 29t-30 10q-19 0 -31 -10t-13 -29h88z" />
    <glyph glyph-name="uni06440671.fina" unicode="&#xfee0;&#xfb51;" horiz-adv-x="842" 
d="M857 135.5q5 -20.5 5 -56.5q0 -37 -5 -58t-15 -21h-75q-93 0 -148 50q-58 -50 -157 -50h-422v156h123v456h178v-456h96q40 0 57 19.5t17 63.5v514h177v-515q0 -31 -5 -63q19 -19 55 -19h104q10 0 15 -20.5zM347 855.5q36 -35.5 39 -93.5v-89h-273v89h19q2 56 38 92t89 37
q52 0 88 -35.5zM303 762q-2 19 -14 29t-30 10q-19 0 -31 -10t-13 -29h88z" />
    <glyph glyph-name="uni06440626" unicode="&#xfedf;&#xfe8a;" horiz-adv-x="1111" 
d="M1036 753v-753h-258q-10 0 -15 21t-5 58q0 36 5 56.5t15 20.5h80v597h178zM1001 135.5q5 -20.5 5 -56.5q0 -37 -5 -58t-15 -21h-60q-7 -121 -111 -178.5t-332 -57.5q-214 0 -328.5 69.5t-114.5 220.5q0 33 5 78.5t15 85.5l173 -37q-7 -26 -11 -62t-4 -66q0 -47 20 -75
t77 -42.5t164 -14.5q143 0 197.5 20.5t57.5 59.5q-142 11 -216 85l125 111q23 -23 51 -32t82 -9h210q10 0 15 -20.5zM241 407v-89h-258v89h19q-5 20 -5 38q0 57 40 93t102 36q49 0 93 -21l-40 -87q-9 5 -23.5 8.5t-28.5 3.5q-25 0 -39.5 -10t-14.5 -27q0 -11 7 -20.5
t19 -13.5h129z" />
    <glyph glyph-name="uni06440626.fina" unicode="&#xfee0;&#xfe8a;" horiz-adv-x="1143" 
d="M858 753h178v-753h-110q-7 -121 -111 -178.5t-332 -57.5q-214 0 -328.5 69.5t-114.5 220.5q0 33 5 78.5t15 85.5l173 -37q-7 -26 -11 -62t-4 -66q0 -47 20 -75t77 -42.5t164 -14.5q143 0 197.5 20.5t57.5 59.5q-142 11 -216 85l125 111q23 -23 51 -32t82 -9h82v597z
M1158 135.5q5 -20.5 5 -56.5q0 -37 -5 -58t-15 -21h-106v156h106q10 0 15 -20.5zM241 377v-89h-258v89h19q-5 20 -5 38q0 57 40 93t102 36q49 0 93 -21l-40 -87q-9 5 -23.5 8.5t-28.5 3.5q-25 0 -39.5 -10t-14.5 -27q0 -11 7 -20.5t19 -13.5h129z" />
    <glyph glyph-name="uni06460626" unicode="&#xfee7;&#xfe8a;" horiz-adv-x="1115" 
d="M899 611q-25 25 -25 64t25 64t63 25t63 -25t25 -64t-25 -64t-63 -25t-63 25zM872 515h178v-515h-124q-7 -121 -111 -178.5t-332 -57.5q-214 0 -328.5 69.5t-114.5 220.5q0 33 5 78.5t15 85.5l173 -37q-7 -26 -11 -62t-4 -66q0 -47 20 -75t77 -42.5t164 -14.5
q143 0 197.5 20.5t57.5 59.5q-142 11 -216 85l125 111q23 -23 51 -32t82 -9h96v359zM241 376v-89h-258v89h19q-5 20 -5 38q0 57 40 93t102 36q49 0 93 -21l-40 -87q-9 5 -23.5 8.5t-28.5 3.5q-25 0 -39.5 -10t-14.5 -27q0 -11 7 -20.5t19 -13.5h129z" />
    <glyph glyph-name="uni06460626.fina" unicode="&#xfee8;&#xfe8a;" horiz-adv-x="1237" 
d="M600 611q-25 25 -25 64t25 64t63 25t63 -25t25 -64t-25 -64t-63 -25t-63 25zM1252 135.5q5 -20.5 5 -56.5q0 -37 -5 -58t-15 -21h-47q-77 0 -133.5 48.5t-83.5 114.5q-53 106 -139 159.5t-180 53.5q-104 0 -104 -56q0 -21 16.5 -35.5t41 -23.5t71.5 -22q75 -20 125 -42
t86 -67.5t36 -121.5q0 -122 -106 -183t-336 -61q-215 0 -329.5 69.5t-114.5 220.5q0 33 5 78.5t15 85.5l173 -37q-7 -26 -11 -62t-4 -66q0 -47 20 -75t77 -42.5t164 -14.5q104 0 161.5 11t79 30t21.5 47q0 32 -32.5 48.5t-102.5 35.5q-74 19 -122.5 39.5t-83.5 62.5t-35 111
q0 68 34.5 119t102 79t163.5 28q118 0 201 -40t134 -97.5t105 -141.5q26 -49 53.5 -73t62.5 -24h16q10 0 15 -20.5zM241 376v-89h-258v89h19q-5 20 -5 38q0 57 40 93t102 36q49 0 93 -21l-40 -87q-9 5 -23.5 8.5t-28.5 3.5q-25 0 -39.5 -10t-14.5 -27q0 -11 7 -20.5
t19 -13.5h129z" />
    <glyph glyph-name="uni06490631.fina" unicode="&#x649;&#xfeae;" horiz-adv-x="754" 
d="M769 135.5q5 -20.5 5 -56.5q0 -37 -5 -58t-15 -21h-77q-102 0 -159 51t-66 148q-42 -13 -94 -13q-51 0 -98 14v-168q0 -118 -68.5 -188t-187.5 -76l-24 156q56 -1 79 23.5t23 84.5v483h178v-159q47 -14 98 -14q50 0 92 12v161h178v-276q0 -44 16.5 -63.5t57.5 -19.5h52
q10 0 15 -20.5z" />
    <glyph glyph-name="uni06490632.fina" unicode="&#x649;&#xfeb0;" horiz-adv-x="754" 
d="M769 135.5q5 -20.5 5 -56.5q0 -37 -5 -58t-15 -21h-77q-102 0 -159 51t-66 148q-42 -13 -94 -13q-51 0 -98 14v-168q0 -118 -68.5 -188t-187.5 -76l-24 156q56 -1 79 23.5t23 84.5v483h178v-159q47 -14 98 -14q50 0 92 12v161h178v-276q0 -44 16.5 -63.5t57.5 -19.5h52
q10 0 15 -20.5zM108 632q-25 25 -25 64t25 64t63 25t63 -25t25 -64t-25 -64t-63 -25t-63 25z" />
    <glyph glyph-name="uni06490646.fina" unicode="&#x649;&#xfee6;" horiz-adv-x="1258" 
d="M338 489q-25 25 -25 64t25 64t63 25t63 -25t25 -64t-25 -64t-63 -25t-63 25zM1273 135.5q5 -20.5 5 -56.5q0 -37 -5 -58t-15 -21h-77q-80 0 -133 32t-76 94q-55 -23 -123 -23q-45 0 -86 11q-9 -93 -57 -166t-126.5 -114.5t-177.5 -41.5q-105 0 -187.5 47.5t-128.5 130.5
t-46 185q0 80 30 175l161 -76q-13 -54 -13 -100q0 -59 22 -105.5t64 -73.5t98 -27t98 27t64.5 74t22.5 106q0 44 -12 95t-31 86l153 82q37 -64 56 -145q45 -14 96 -14q55 0 105 16v186h178v-222q0 -44 17 -63.5t57 -19.5h52q10 0 15 -20.5z" />
    <glyph glyph-name="uni06260626" unicode="&#xfe8b;&#xfe8a;" horiz-adv-x="1117" 
d="M1093 675v-89h-258v89h19q-5 20 -5 38q0 57 40 93t102 36q49 0 93 -21l-40 -87q-9 5 -23.5 8.5t-28.5 3.5q-25 0 -39.5 -10t-14.5 -27q0 -11 7 -20.5t19 -13.5h129zM872 515h178v-515h-124q-7 -121 -111 -178.5t-332 -57.5q-214 0 -328.5 69.5t-114.5 220.5q0 33 5 78.5
t15 85.5l173 -37q-7 -26 -11 -62t-4 -66q0 -47 20 -75t77 -42.5t164 -14.5q143 0 197.5 20.5t57.5 59.5q-142 11 -216 85l125 111q23 -23 51 -32t82 -9h96v359zM241 376v-89h-258v89h19q-5 20 -5 38q0 57 40 93t102 36q49 0 93 -21l-40 -87q-9 5 -23.5 8.5t-28.5 3.5
q-25 0 -39.5 -10t-14.5 -27q0 -11 7 -20.5t19 -13.5h129z" />
    <glyph glyph-name="uni06260626.fina" unicode="&#xfe8c;&#xfe8a;" horiz-adv-x="1237" 
d="M790 586h-258v89h19q-5 20 -5 38q0 57 40 93t102 36q49 0 93 -21l-40 -87q-9 5 -23.5 8.5t-28.5 3.5q-25 0 -39.5 -10t-14.5 -27q0 -11 7 -20.5t19 -13.5h129v-89zM1252 135.5q5 -20.5 5 -56.5q0 -37 -5 -58t-15 -21h-47q-77 0 -133.5 48.5t-83.5 114.5
q-53 106 -139 159.5t-180 53.5q-104 0 -104 -56q0 -21 16.5 -35.5t41 -23.5t71.5 -22q75 -20 125 -42t86 -67.5t36 -121.5q0 -122 -106 -183t-336 -61q-215 0 -329.5 69.5t-114.5 220.5q0 33 5 78.5t15 85.5l173 -37q-7 -26 -11 -62t-4 -66q0 -47 20 -75t77 -42.5t164 -14.5
q104 0 161.5 11t79 30t21.5 47q0 32 -32.5 48.5t-102.5 35.5q-74 19 -122.5 39.5t-83.5 62.5t-35 111q0 68 34.5 119t102 79t163.5 28q118 0 201 -40t134 -97.5t105 -141.5q26 -49 53.5 -73t62.5 -24h16q10 0 15 -20.5zM241 376v-89h-258v89h19q-5 20 -5 38q0 57 40 93
t102 36q49 0 93 -21l-40 -87q-9 5 -23.5 8.5t-28.5 3.5q-25 0 -39.5 -10t-14.5 -27q0 -11 7 -20.5t19 -13.5h129z" />
    <glyph glyph-name="uni066E.init" unicode="&#x66e;" horiz-adv-x="349" 
d="M284 515v-515h-284q-10 0 -15 21t-5 58q0 36 5 56.5t15 20.5h107v359h177z" />
    <glyph glyph-name="uni066E.medi" unicode="&#x66e;" horiz-adv-x="436" 
d="M451 135.5q5 -20.5 5 -56.5q0 -37 -5 -58t-15 -21h-52q-93 0 -149 51q-57 -51 -158 -51h-77q-10 0 -15 21t-5 58q0 36 5 56.5t15 20.5h52q41 0 57.5 19.5t16.5 63.5v276h178v-277q0 -30 -5 -62q20 -20 57 -20h80q10 0 15 -20.5z" />
    <glyph glyph-name="uni066E.fina" unicode="&#x66e;" horiz-adv-x="1037" 
d="M1052 135.5q5 -20.5 5 -56.5q0 -37 -5 -58t-15 -21h-41q-96 0 -157 53q-56 -53 -160 -53h-394q-111 0 -173 65.5t-62 180.5q0 140 100 235l137 -97q-59 -65 -59 -137q0 -44 21 -67.5t61 -23.5h344q41 0 57.5 19.5t16.5 63.5v276h178v-277q0 -31 -5 -63q19 -19 55 -19h81
q10 0 15 -20.5z" />
    <glyph glyph-name="uni066F.fina" unicode="&#x66f;" horiz-adv-x="1074" 
d="M1089 135.5q5 -20.5 5 -56.5q0 -37 -5 -58t-15 -21h-125q-15 -155 -126 -246.5t-327 -91.5q-234 0 -345 107.5t-111 284.5q0 85 27 178l166 -66q-15 -63 -15 -114q0 -121 64 -177t214 -56q134 0 198.5 44t76.5 137h-89q-79 0 -146 35.5t-106.5 96t-39.5 133.5t39.5 134.5
t106.5 98t146 36.5q68 0 142 -26.5t124 -70.5l4 -1v-280h122q10 0 15 -20.5zM601 187q33 -31 84 -31h89v200q-47 22 -88 22q-55 0 -86.5 -34t-31.5 -80t33 -77z" />
    <glyph glyph-name="uni06A1.init" unicode="&#x6a1;" horiz-adv-x="655" 
d="M615 464v-464h-615q-10 0 -15 21t-5 58q0 36 5 56.5t15 20.5h103q-22 50 -22 105q0 77 39 139t106 98t147 36q109 0 242 -70zM281 193.5q22 -28.5 59 -36.5h98v212q-28 9 -62 9q-52 0 -84.5 -32.5t-32.5 -83.5q0 -40 22 -68.5z" />
    <glyph glyph-name="uni06A1.medi" unicode="&#x6a1;" horiz-adv-x="728" 
d="M743 135.5q5 -20.5 5 -56.5q0 -37 -5 -58t-15 -21h-728q-10 0 -15 21t-5 58q0 36 5 56.5t15 20.5h103q-22 50 -22 105q0 77 39 139t106 98t147 36q109 0 242 -70v-308h113q10 0 15 -20.5zM281 193.5q22 -28.5 59 -36.5h98v212q-28 9 -62 9q-52 0 -84.5 -32.5t-32.5 -83.5
q0 -40 22 -68.5z" />
    <glyph glyph-name="uni06A1.fina" unicode="&#x6a1;" horiz-adv-x="1176" 
d="M1191 135.5q5 -20.5 5 -56.5q0 -37 -5 -58t-15 -21h-901q-111 0 -173 65t-62 180q0 139 99 235l137 -95q-58 -65 -58 -139q0 -43 21 -66.5t61 -23.5h249q-22 50 -22 105q0 77 39 139t106 98t147 36q109 0 242 -70v-308h115q10 0 15 -20.5zM726 194q21 -28 57 -37h101v212
q-28 9 -62 9q-52 0 -84.5 -32.5t-32.5 -83.5q0 -40 21 -68z" />
    <glyph glyph-name="uni06C2.fina" unicode="&#x6c2;" horiz-adv-x="717" 
d="M732 135.5q5 -20.5 5 -56.5q0 -37 -5 -58t-15 -21h-53q-118 0 -176 70q-96 -41 -177 -41q-78 0 -143 35.5t-103 97.5t-38 136t38 135.5t103.5 96.5t143.5 35h125v28h178v-354q0 -44 17 -63.5t57 -19.5h28q10 0 15 -20.5zM437 221v17v171h-113q-50 0 -84.5 -32.5
t-34.5 -78.5q0 -48 34.5 -80.5t86.5 -32.5q50 0 111 36zM442 732v-89h-258v89h19q-5 20 -5 38q0 57 40 93t102 36q49 0 93 -21l-40 -87q-9 5 -23.5 8.5t-28.5 3.5q-25 0 -39.5 -10t-14.5 -27q0 -11 7 -20.5t19 -13.5h129z" />
    <glyph glyph-name="uni06C3.fina" unicode="&#x6c3;" horiz-adv-x="859" 
d="M874 135.5q5 -20.5 5 -56.5q0 -37 -5 -58t-15 -21h-50q-44 0 -80 22t-63.5 54t-65.5 86q-36 51 -61.5 81t-57.5 50t-70 20q-60 0 -103.5 -50.5t-66.5 -133t-23 -176.5h-178q0 152 46 269t131 182t198 65q88 0 152.5 -37.5t103 -86.5t78.5 -117q22 -38 35 -55t25 -17h50
q10 0 15 -20.5zM450.939 598.755q-20.7461 20.7451 -20.7461 53.1094q0 32.3633 20.7461 53.1094q20.7461 20.7451 52.2793 20.7451t52.2793 -20.7451q20.7461 -20.7461 20.7461 -53.1094q0 -32.3643 -20.7461 -53.1094q-20.7461 -20.7461 -52.2793 -20.7461
t-52.2793 20.7461zM278.939 598.755q-20.7461 20.7451 -20.7461 53.1094q0 32.3633 20.7461 53.1094q20.7461 20.7451 52.2793 20.7451t52.2793 -20.7451q20.7461 -20.7461 20.7461 -53.1094q0 -32.3643 -20.7461 -53.1094q-20.7461 -20.7461 -52.2793 -20.7461
t-52.2793 20.7461z" />
    <glyph glyph-name="uniFB51" unicode="&#x671;" horiz-adv-x="361" arabic-form="final" 
d="M376 135.5q5 -20.5 5 -56.5q0 -37 -5 -58t-15 -21h-288v753h178v-597h110q10 0 15 -20.5zM260 1001.5q36 -35.5 39 -93.5v-89h-273v89h19q2 56 38 92t89 37q52 0 88 -35.5zM216 908q-2 19 -14 29t-30 10q-19 0 -31 -10t-13 -29h88z" />
    <glyph glyph-name="uniFB57" unicode="&#x67e;" horiz-adv-x="1037" arabic-form="final" 
d="M1052 135.5q5 -20.5 5 -56.5q0 -37 -5 -58t-15 -21h-41q-96 0 -157 53q-56 -53 -160 -53h-394q-111 0 -173 65.5t-62 180.5q0 140 100 235l137 -97q-59 -65 -59 -137q0 -44 21 -67.5t61 -23.5h344q41 0 57.5 19.5t16.5 63.5v276h178v-277q0 -31 -5 -63q19 -19 55 -19h81
q10 0 15 -20.5zM354.5 -205q-20.5 21 -20.5 53t20.5 53t52.5 21t52.5 -21t20.5 -53t-20.5 -53t-52.5 -21t-52.5 21zM526.5 -205q-20.5 21 -20.5 53t20.5 53t52.5 21t52.5 -21t20.5 -53t-20.5 -53t-52.5 -21t-52.5 21zM444 -361.5q-19 19.5 -19 48.5q0 31 19 50t49 19
t49 -19.5t19 -49.5q0 -29 -19.5 -48.5t-48.5 -19.5q-30 0 -49 19.5z" />
    <glyph glyph-name="uniFB58" unicode="&#x67e;" horiz-adv-x="349" arabic-form="initial" 
d="M284 515v-515h-284q-10 0 -15 21t-5 58q0 36 5 56.5t15 20.5h107v359h177zM57.5 -205q-20.5 21 -20.5 53t20.5 53t52.5 21t52.5 -21t20.5 -53t-20.5 -53t-52.5 -21t-52.5 21zM229.5 -205q-20.5 21 -20.5 53t20.5 53t52.5 21t52.5 -21t20.5 -53t-20.5 -53t-52.5 -21
t-52.5 21zM147 -361.5q-19 19.5 -19 48.5q0 31 19 50t49 19t49 -19.5t19 -49.5q0 -29 -19.5 -48.5t-48.5 -19.5q-30 0 -49 19.5z" />
    <glyph glyph-name="uniFB59" unicode="&#x67e;" horiz-adv-x="436" arabic-form="medial" 
d="M451 135.5q5 -20.5 5 -56.5q0 -37 -5 -58t-15 -21h-52q-93 0 -149 51q-57 -51 -158 -51h-77q-10 0 -15 21t-5 58q0 36 5 56.5t15 20.5h52q41 0 57.5 19.5t16.5 63.5v276h178v-277q0 -30 -5 -62q20 -20 57 -20h80q10 0 15 -20.5zM77.5 -205q-20.5 21 -20.5 53t20.5 53
t52.5 21t52.5 -21t20.5 -53t-20.5 -53t-52.5 -21t-52.5 21zM249.5 -205q-20.5 21 -20.5 53t20.5 53t52.5 21t52.5 -21t20.5 -53t-20.5 -53t-52.5 -21t-52.5 21zM167 -361.5q-19 19.5 -19 48.5q0 31 19 50t49 19t49 -19.5t19 -49.5q0 -29 -19.5 -48.5t-48.5 -19.5
q-30 0 -49 19.5z" />
    <glyph glyph-name="uniFB67" unicode="&#x679;" horiz-adv-x="1037" arabic-form="final" 
d="M1052 135.5q5 -20.5 5 -56.5q0 -37 -5 -58t-15 -21h-41q-96 0 -157 53q-56 -53 -160 -53h-394q-111 0 -173 65.5t-62 180.5q0 140 100 235l137 -97q-59 -65 -59 -137q0 -44 21 -67.5t61 -23.5h344q41 0 57.5 19.5t16.5 63.5v276h178v-277q0 -31 -5 -63q19 -19 55 -19h81
q10 0 15 -20.5zM344 669h27v196h83v-98q33 33 82 33q44 0 69 -35t28 -96v-83h-289v83zM549 669q-1 25 -12 40t-30 14q-22 0 -36.5 -15t-16.5 -39h95z" />
    <glyph glyph-name="uniFB68" unicode="&#x679;" horiz-adv-x="349" arabic-form="initial" 
d="M284 515v-515h-284q-10 0 -15 21t-5 58q0 36 5 56.5t15 20.5h107v359h177zM47 669h27v196h83v-98q33 33 82 33q44 0 69 -35t28 -96v-83h-289v83zM252 669q-1 25 -12 40t-30 14q-22 0 -36.5 -15t-16.5 -39h95z" />
    <glyph glyph-name="uniFB69" unicode="&#x679;" horiz-adv-x="436" arabic-form="medial" 
d="M451 135.5q5 -20.5 5 -56.5q0 -37 -5 -58t-15 -21h-52q-93 0 -149 51q-57 -51 -158 -51h-77q-10 0 -15 21t-5 58q0 36 5 56.5t15 20.5h52q41 0 57.5 19.5t16.5 63.5v276h178v-277q0 -30 -5 -62q20 -20 57 -20h80q10 0 15 -20.5zM67 669h27v196h83v-98q33 33 82 33
q44 0 69 -35t28 -96v-83h-289v83zM272 669q-1 25 -12 40t-30 14q-22 0 -36.5 -15t-16.5 -39h95z" />
    <glyph glyph-name="uniFB6B" unicode="&#x6a4;" horiz-adv-x="1176" arabic-form="final" 
d="M1191 135.5q5 -20.5 5 -56.5q0 -37 -5 -58t-15 -21h-901q-111 0 -173 65t-62 180q0 139 99 235l137 -95q-58 -65 -58 -139q0 -43 21 -66.5t61 -23.5h249q-22 50 -22 105q0 77 39 139t106 98t147 36q109 0 242 -70v-308h115q10 0 15 -20.5zM726 194q21 -28 57 -37h101v212
q-28 9 -62 9q-52 0 -84.5 -32.5t-32.5 -83.5q0 -40 21 -68zM867.5 894.5q19.5 -19.5 19.5 -48.5q0 -30 -19 -49.5t-49 -19.5t-49 19t-19 50q0 29 19 48.5t49 19.5q29 0 48.5 -19.5zM785.5 738q20.5 -21 20.5 -53t-20.5 -53t-52.5 -21t-52.5 21t-20.5 53t20.5 53t52.5 21
t52.5 -21zM957.5 738q20.5 -21 20.5 -53t-20.5 -53t-52.5 -21t-52.5 21t-20.5 53t20.5 53t52.5 21t52.5 -21z" />
    <glyph glyph-name="uniFB6C" unicode="&#x6a4;" horiz-adv-x="655" arabic-form="initial" 
d="M615 464v-464h-615q-10 0 -15 21t-5 58q0 36 5 56.5t15 20.5h103q-22 50 -22 105q0 77 39 139t106 98t147 36q109 0 242 -70zM281 193.5q22 -28.5 59 -36.5h98v212q-28 9 -62 9q-52 0 -84.5 -32.5t-32.5 -83.5q0 -40 22 -68.5zM421.5 894.5q19.5 -19.5 19.5 -48.5
q0 -30 -19 -49.5t-49 -19.5t-49 19t-19 50q0 29 19 48.5t49 19.5q29 0 48.5 -19.5zM339.5 738q20.5 -21 20.5 -53t-20.5 -53t-52.5 -21t-52.5 21t-20.5 53t20.5 53t52.5 21t52.5 -21zM511.5 738q20.5 -21 20.5 -53t-20.5 -53t-52.5 -21t-52.5 21t-20.5 53t20.5 53t52.5 21
t52.5 -21z" />
    <glyph glyph-name="uniFB6D" unicode="&#x6a4;" horiz-adv-x="728" arabic-form="medial" 
d="M743 135.5q5 -20.5 5 -56.5q0 -37 -5 -58t-15 -21h-728q-10 0 -15 21t-5 58q0 36 5 56.5t15 20.5h103q-22 50 -22 105q0 77 39 139t106 98t147 36q109 0 242 -70v-308h113q10 0 15 -20.5zM281 193.5q22 -28.5 59 -36.5h98v212q-28 9 -62 9q-52 0 -84.5 -32.5t-32.5 -83.5
q0 -40 22 -68.5zM422.5 894.5q19.5 -19.5 19.5 -48.5q0 -30 -19 -49.5t-49 -19.5t-49 19t-19 50q0 29 19 48.5t49 19.5q29 0 48.5 -19.5zM340.5 738q20.5 -21 20.5 -53t-20.5 -53t-52.5 -21t-52.5 21t-20.5 53t20.5 53t52.5 21t52.5 -21zM512.5 738q20.5 -21 20.5 -53
t-20.5 -53t-52.5 -21t-52.5 21t-20.5 53t20.5 53t52.5 21t52.5 -21z" />
    <glyph glyph-name="uniFB7B" unicode="&#x686;" horiz-adv-x="828" arabic-form="final" 
d="M809 135.5q5 -20.5 5 -56.5q0 -37 -5 -58t-15 -21h-427q-64 0 -106.5 -30.5t-42.5 -77.5q0 -46 41 -76t102 -30q35 0 73 10l45 -150q-55 -16 -119 -16q-87 0 -160.5 34.5t-116.5 94.5t-43 134t44 134.5t119 94.5t164 34h126v81q0 68 -43 107.5t-114 39.5q-78 0 -145 -48
l-77 145q102 60 222 60q95 0 171.5 -39t120 -108.5t43.5 -156.5v-81h123q10 0 15 -20.5zM447.577 -164.208q-17.6895 18.1211 -17.6895 45.7344t17.6895 45.7354q17.6895 18.1211 45.3027 18.1211t45.3037 -18.1211q17.6895 -18.1221 17.6895 -45.7354t-17.6895 -45.7344
q-17.6904 -18.1211 -45.3037 -18.1211t-45.3027 18.1211zM595.999 -164.208q-17.6904 18.1211 -17.6904 45.7344t17.6904 45.7354q17.6895 18.1211 45.3027 18.1211t45.3027 -18.1211q17.6904 -18.1221 17.6904 -45.7354t-17.6904 -45.7344
q-17.6895 -18.1211 -45.3027 -18.1211t-45.3027 18.1211zM524.809 -299.254q-16.3955 16.8271 -16.3955 41.8516q0 26.75 16.3955 43.1455q16.3945 16.3955 42.2822 16.3955t42.2832 -16.3955t16.3955 -43.1455q0 -25.0244 -16.8271 -41.8516t-41.8516 -16.8271
q-25.8877 0 -42.2822 16.8271z" />
    <glyph glyph-name="uniFB7C" unicode="&#x686;" horiz-adv-x="667" arabic-form="initial" 
d="M617 156l-28 -156h-589q-10 0 -15 21t-5 58q0 36 5 56.5t15 20.5h406v81q0 68 -43 107.5t-114 39.5q-78 0 -145 -48l-78 145q50 29 107 44.5t116 15.5q95 0 171 -39t119.5 -108.5t43.5 -156.5v-81h34zM113.5 -205q-20.5 21 -20.5 53t20.5 53t52.5 21t52.5 -21t20.5 -53
t-20.5 -53t-52.5 -21t-52.5 21zM285.5 -205q-20.5 21 -20.5 53t20.5 53t52.5 21t52.5 -21t20.5 -53t-20.5 -53t-52.5 -21t-52.5 21zM203 -361.5q-19 19.5 -19 48.5q0 31 19 50t49 19t49 -19.5t19 -49.5q0 -29 -19.5 -48.5t-48.5 -19.5q-30 0 -49 19.5z" />
    <glyph glyph-name="uniFB7D" unicode="&#x686;" horiz-adv-x="699" arabic-form="medial" 
d="M714 135.5q5 -20.5 5 -56.5q0 -37 -5 -58t-15 -21h-699q-10 0 -15 21t-5 58q0 36 5 56.5t15 20.5h406v81q0 68 -43 107.5t-114 39.5q-78 0 -145 -48l-78 145q50 29 107 44.5t116 15.5q95 0 171 -39t119.5 -108.5t43.5 -156.5v-81h116q10 0 15 -20.5zM113.5 -205
q-20.5 21 -20.5 53t20.5 53t52.5 21t52.5 -21t20.5 -53t-20.5 -53t-52.5 -21t-52.5 21zM285.5 -205q-20.5 21 -20.5 53t20.5 53t52.5 21t52.5 -21t20.5 -53t-20.5 -53t-52.5 -21t-52.5 21zM203 -361.5q-19 19.5 -19 48.5q0 31 19 50t49 19t49 -19.5t19 -49.5
q0 -29 -19.5 -48.5t-48.5 -19.5q-30 0 -49 19.5z" />
    <glyph glyph-name="uniFB89" unicode="&#x688;" horiz-adv-x="780" arabic-form="final" 
d="M795 135.5q5 -20.5 5 -56.5q0 -37 -5 -58t-15 -21h-77q-102 0 -166 37q-134 -37 -289 -37q-107 0 -208 19v160q99 -23 206 -23q98 0 182 18q-12 32 -20 56l-113 327l168 49l113 -326q21 -62 33 -85t31 -30.5t63 -7.5h77v-1q10 0 15 -20.5zM192 744h27v196h83v-98
q33 33 82 33q44 0 69 -35t28 -96v-83h-289v83zM397 744q-1 25 -12 40t-30 14q-22 0 -36.5 -15t-16.5 -39h95z" />
    <glyph glyph-name="uniFB8B" unicode="&#x698;" horiz-adv-x="362" arabic-form="final" 
d="M377 135.5q5 -20.5 5 -56.5q0 -37 -5 -58t-15 -21h-103q-10 -104 -77.5 -165.5t-177.5 -66.5l-24 156q56 -1 79 23.5t23 84.5v483h178v-359h102q10 0 15 -20.5zM219.5 888.5q19.5 -19.5 19.5 -48.5q0 -30 -19 -49.5t-49 -19.5t-49 19t-19 50q0 29 19 48.5t49 19.5
q29 0 48.5 -19.5zM137.5 732q20.5 -21 20.5 -53t-20.5 -53t-52.5 -21t-52.5 21t-20.5 53t20.5 53t52.5 21t52.5 -21zM309.5 732q20.5 -21 20.5 -53t-20.5 -53t-52.5 -21t-52.5 21t-20.5 53t20.5 53t52.5 21t52.5 -21z" />
    <glyph glyph-name="uniFB8D" unicode="&#x691;" horiz-adv-x="362" arabic-form="final" 
d="M377 135.5q5 -20.5 5 -56.5q0 -37 -5 -58t-15 -21h-103q-10 -104 -77.5 -165.5t-177.5 -66.5l-24 156q56 -1 79 23.5t23 84.5v483h178v-359h102q10 0 15 -20.5zM22 690h27v196h83v-98q33 33 82 33q44 0 69 -35t28 -96v-83h-289v83zM227 690q-1 25 -12 40t-30 14
q-22 0 -36.5 -15t-16.5 -39h95z" />
    <glyph glyph-name="uniFB8F" unicode="&#x6a9;" horiz-adv-x="991" arabic-form="final" 
d="M1006 135.5q5 -20.5 5 -56.5q0 -37 -5 -58t-15 -21h-716q-111 0 -173 65t-62 180q0 139 99 235l137 -95q-58 -65 -58 -139q0 -43 21 -66.5t61 -23.5l342 1v-1h31v9q0 83 -39 126.5t-114 43.5l-109 111l275 276l109 -110l-140 -141q93 -31 145 -111.5t52 -203.5h139
q10 0 15 -20.5z" />
    <glyph glyph-name="uniFB90" unicode="&#x6a9;" horiz-adv-x="560" arabic-form="initial" 
d="M444 359.5q52 -80.5 52 -203.5v-156h-496q-10 0 -15 21t-5 58q0 36 5 56.5t15 20.5h317v9q0 83 -39 126.5t-114 43.5l-109 111l275 276l109 -110l-140 -141q93 -31 145 -111.5z" />
    <glyph glyph-name="uniFB91" unicode="&#x6a9;" horiz-adv-x="635" arabic-form="medial" 
d="M650 135.5q5 -20.5 5 -56.5q0 -37 -5 -58t-15 -21h-635q-10 0 -15 21t-5 58q0 36 5 56.5t15 20.5h317v9q0 83 -39 126.5t-114 43.5l-109 111l275 276l109 -110l-140 -141q93 -31 145 -111.5t52 -203.5h139q10 0 15 -20.5z" />
    <glyph glyph-name="uniFB93" unicode="&#x6af;" horiz-adv-x="991" arabic-form="final" 
d="M381 501l-87 89l263 265l88 -89zM1006 135.5q5 -20.5 5 -56.5q0 -37 -5 -58t-15 -21h-716q-111 0 -173 65t-62 180q0 139 99 235l137 -95q-58 -65 -58 -139q0 -43 21 -66.5t61 -23.5l342 1v-1h31v9q0 83 -39 126.5t-114 43.5l-109 111l275 276l109 -110l-140 -141
q93 -31 145 -111.5t52 -203.5h139q10 0 15 -20.5z" />
    <glyph glyph-name="uniFB94" unicode="&#x6af;" horiz-adv-x="564" arabic-form="initial" 
d="M25 500l-88 90l264 265l88 -88zM444 359.5q52 -80.5 52 -203.5v-156h-496q-10 0 -15 21t-5 58q0 36 5 56.5t15 20.5h317v9q0 83 -39 126.5t-114 43.5l-109 111l275 276l109 -110l-140 -141q93 -31 145 -111.5z" />
    <glyph glyph-name="uniFB95" unicode="&#x6af;" horiz-adv-x="635" arabic-form="medial" 
d="M25 500l-88 90l264 265l88 -88zM650 135.5q5 -20.5 5 -56.5q0 -37 -5 -58t-15 -21h-635q-10 0 -15 21t-5 58q0 36 5 56.5t15 20.5h317v9q0 83 -39 126.5t-114 43.5l-109 111l275 276l109 -110l-140 -141q93 -31 145 -111.5t52 -203.5h139q10 0 15 -20.5z" />
    <glyph glyph-name="uniFB9F" unicode="&#x6ba;" horiz-adv-x="903" arabic-form="final" 
d="M918 135.5q5 -20.5 5 -56.5q0 -37 -5 -58t-15 -21h-40q-70 0 -119 29q-36 -108 -127 -172.5t-215 -64.5q-105 0 -187.5 47.5t-128.5 130.5t-46 185q0 80 30 175l161 -76q-13 -54 -13 -100q0 -59 22 -105.5t64 -73.5t98 -27t98 27t64.5 74t22.5 106q0 44 -12 95t-31 86
l153 82q31 -52 48.5 -114.5t19.5 -127.5q20 -20 56 -20h82q10 0 15 -20.5z" />
    <glyph glyph-name="uniFBA7" unicode="&#x6c1;" horiz-adv-x="859" arabic-form="final" 
d="M874 135.5q5 -20.5 5 -56.5q0 -37 -5 -58t-15 -21h-50q-44 0 -80 22t-63.5 54t-65.5 86q-36 51 -61.5 81t-57.5 50t-70 20q-60 0 -103.5 -50.5t-66.5 -133t-23 -176.5h-178q0 152 46 269t131 182t198 65q88 0 152.5 -37.5t103 -86.5t78.5 -117q22 -38 35 -55t25 -17h50
q10 0 15 -20.5z" />
    <glyph glyph-name="uniFBA8" unicode="&#x6c1;" horiz-adv-x="366" arabic-form="initial" 
d="M260 0l-44 -112q34 -24 34 -68q0 -37 -24 -61t-61 -24q-36 0 -60.5 22.5t-24.5 62.5q0 30 23 68l67 112h-170q-10 0 -15 21t-5 58q0 36 5 56.5t15 20.5h107v359h177v-515h-24z" />
    <glyph glyph-name="uniFBA9" unicode="&#x6c1;" horiz-adv-x="714" arabic-form="medial" 
d="M729 135.5q5 -20.5 5 -56.5q0 -37 -5 -58t-15 -21h-50q-38 0 -69.5 -41t-49.5 -117t-18 -176q0 -66 7 -130q-214 52 -321 147.5t-107 244.5q0 32 5 72l-111 -1v1q-10 0 -15 21t-5 58q0 36 5 56.5t15 20.5h349q-32 -55 -49 -112t-17 -110q0 -49 17 -85.5t55 -64.5
q20 176 100.5 274t208.5 98h50q10 0 15 -20.5z" />
    <glyph glyph-name="uniFBAB" unicode="&#x6be;" horiz-adv-x="1022" arabic-form="final" 
d="M1037 135.5q5 -20.5 5 -56.5q0 -37 -5 -58t-15 -21h-797q-57 0 -87.5 -13t-43 -41.5t-14.5 -78.5h-73q-6 30 -6 64q0 90 48.5 157.5t175.5 67.5h27q-18 69 -18 133q0 113 58 182q7 -2 -45 11q-14 4 -90 23l42 152q228 -57 316.5 -83t161.5 -59q85 -39 136.5 -85
t76 -110.5t20.5 -157.5v-6h112q10 0 15 -20.5zM400 156h117v162q0 41 -17 69t-48 28q-33 0 -53 -33t-20 -91q0 -64 21 -135zM719 274.5q-15 37.5 -57 66.5q1 -8 1 -23v-162h68l1 21q2 60 -13 97.5z" />
    <glyph glyph-name="uniFBAC" unicode="&#x6be;" horiz-adv-x="903" arabic-form="initial" 
d="M751.5 430.5q51.5 -45.5 76 -110.5t20.5 -158l-6 -162h-842q-10 0 -15 21t-5 58q0 36 5 56.5t15 20.5h153q-18 69 -18 133q0 59 17 108t48 82l-105 26l43 152q226 -57 315.5 -82.5t162.5 -59.5q84 -39 135.5 -84.5zM302 156h117v162q0 41 -17 69t-48 28q-33 0 -53 -33
t-20 -91q0 -64 21 -135zM649.5 289.5q-23.5 41.5 -88.5 74.5q4 -20 4 -46v-162h105v21q3 71 -20.5 112.5z" />
    <glyph glyph-name="uniFBAD" unicode="&#x6be;" horiz-adv-x="942" arabic-form="medial" 
d="M957 135.5q5 -20.5 5 -56.5q0 -37 -5 -58t-15 -21h-942q-10 0 -15 21t-5 58q0 36 5 56.5t15 20.5h153q-18 69 -18 133q0 59 17 108t48 82l-105 26l43 152q226 -57 315.5 -82.5t162.5 -59.5q84 -39 135.5 -84.5t76 -110.5t20.5 -158v-6h94q10 0 15 -20.5zM302 156h117v162
q0 41 -17 69t-48 28q-33 0 -53 -33t-20 -91q0 -64 21 -135zM649.5 289.5q-23.5 41.5 -88.5 74.5q4 -20 4 -46v-162h105v21q3 71 -20.5 112.5z" />
    <glyph glyph-name="uniFBAF" unicode="&#x6d2;" horiz-adv-x="1123" arabic-form="final" 
d="M891.5 -196.5q121.5 12.5 213.5 32.5l38 -152q-90 -20 -223 -34.5t-254 -14.5q-183 0 -325 31.5t-221.5 90t-79.5 138.5q0 81 81.5 140t228.5 90t339 31h436q10 0 15 -20.5t5 -56.5q0 -37 -5 -58t-15 -21h-436q-120 0 -229 -16.5t-175.5 -41t-66.5 -47.5
q0 -22 63.5 -46.5t167.5 -41t217 -16.5q104 0 225.5 12.5z" />
    <glyph glyph-name="uniFBB1" unicode="&#x6d3;" horiz-adv-x="1123" arabic-form="final" 
d="M891.5 -196.5q121.5 12.5 213.5 32.5l38 -152q-90 -20 -223 -34.5t-254 -14.5q-183 0 -325 31.5t-221.5 90t-79.5 138.5q0 81 81.5 140t228.5 90t339 31h436q10 0 15 -20.5t5 -56.5q0 -37 -5 -58t-15 -21h-436q-120 0 -229 -16.5t-175.5 -41t-66.5 -47.5
q0 -22 63.5 -46.5t167.5 -41t217 -16.5q104 0 225.5 12.5zM325 303v-89h-258v89h19q-5 20 -5 38q0 57 40 93t102 36q49 0 93 -21l-40 -87q-9 5 -23.5 8.5t-28.5 3.5q-25 0 -39.5 -10t-14.5 -27q0 -11 7 -20.5t19 -13.5h129z" />
    <glyph glyph-name="uniFBFD" unicode="&#x6cc;" horiz-adv-x="992" arabic-form="final" 
d="M1001 135.5q5 -20.5 5 -56.5q0 -37 -5 -58t-15 -21h-60q-7 -121 -111 -178.5t-332 -57.5q-214 0 -328.5 69.5t-114.5 220.5q0 33 5 78.5t15 85.5l173 -37q-7 -26 -11 -62t-4 -66q0 -47 20 -75t77 -42.5t164 -14.5q143 0 197.5 20.5t57.5 59.5q-142 11 -216 85l125 111
q23 -23 51 -32t82 -9h210q10 0 15 -20.5z" />
    <glyph glyph-name="uniFBFE" unicode="&#x6cc;" horiz-adv-x="349" arabic-form="initial" 
d="M284 515v-515h-284q-10 0 -15 21t-5 58q0 36 5 56.5t15 20.5h107v359h177zM229.939 -205.245q-20.7461 20.7451 -20.7461 53.1094q0 32.3633 20.7461 53.1094q20.7461 20.7451 52.2793 20.7451t52.2793 -20.7451q20.7461 -20.7461 20.7461 -53.1094
q0 -32.3643 -20.7461 -53.1094q-20.7461 -20.7461 -52.2793 -20.7461t-52.2793 20.7461zM57.9395 -205.245q-20.7461 20.7451 -20.7461 53.1094q0 32.3633 20.7461 53.1094q20.7461 20.7451 52.2793 20.7451t52.2793 -20.7451q20.7461 -20.7461 20.7461 -53.1094
q0 -32.3643 -20.7461 -53.1094q-20.7461 -20.7461 -52.2793 -20.7461t-52.2793 20.7461z" />
    <glyph glyph-name="uniFBFF" unicode="&#x6cc;" horiz-adv-x="436" arabic-form="medial" 
d="M451 135.5q5 -20.5 5 -56.5q0 -37 -5 -58t-15 -21h-52q-93 0 -149 51q-57 -51 -158 -51h-77q-10 0 -15 21t-5 58q0 36 5 56.5t15 20.5h52q41 0 57.5 19.5t16.5 63.5v276h178v-277q0 -30 -5 -62q20 -20 57 -20h80q10 0 15 -20.5zM249.939 -205.245
q-20.7461 20.7451 -20.7461 53.1094q0 32.3633 20.7461 53.1094q20.7461 20.7451 52.2793 20.7451t52.2793 -20.7451q20.7461 -20.7461 20.7461 -53.1094q0 -32.3643 -20.7461 -53.1094q-20.7461 -20.7461 -52.2793 -20.7461t-52.2793 20.7461zM77.9395 -205.245
q-20.7461 20.7451 -20.7461 53.1094q0 32.3633 20.7461 53.1094q20.7461 20.7451 52.2793 20.7451t52.2793 -20.7451q20.7461 -20.7461 20.7461 -53.1094q0 -32.3643 -20.7461 -53.1094q-20.7461 -20.7461 -52.2793 -20.7461t-52.2793 20.7461z" />
    <glyph glyph-name="uniFCCC" unicode="&#xfccc;" horiz-adv-x="477" arabic-form="initial" 
d="M403 32l-105 -144q-47 50 -71.5 70t-66 31t-115.5 11h-45q-10 0 -15 21t-5 58q0 36 5 56.5t15 20.5h55q52 0 94 -7q-11 51 -11 118v486h178v-470q0 -167 87 -251z" />
    <glyph glyph-name="uniFE82" unicode="&#x622;" horiz-adv-x="361" arabic-form="final" 
d="M376 135.5q5 -20.5 5 -56.5q0 -37 -5 -58t-15 -21h-288v753h178v-597h110q10 0 15 -20.5zM198 827.5q-20 6.5 -49 18.5q-34 16 -50 16q-28 0 -28 -38h-82q0 64 22 97t71 33q24 0 43 -6t51 -19q34 -16 50 -16q26 0 28 38h81q0 -65 -22 -97.5t-71 -32.5q-24 0 -44 6.5z" />
    <glyph glyph-name="uniFE84" unicode="&#x623;" horiz-adv-x="361" arabic-form="final" 
d="M376 135.5q5 -20.5 5 -56.5q0 -37 -5 -58t-15 -21h-288v753h178v-597h110q10 0 15 -20.5zM291 908v-89h-258v89h19q-5 20 -5 38q0 57 40 93t102 36q49 0 93 -21l-40 -87q-9 5 -23.5 8.5t-28.5 3.5q-25 0 -39.5 -10t-14.5 -27q0 -11 7 -20.5t19 -13.5h129z" />
    <glyph glyph-name="uniFE86" unicode="&#x624;" horiz-adv-x="696" arabic-form="final" 
d="M711 135.5q5 -20.5 5 -56.5q0 -37 -5 -58t-15 -21h-95q-10 -113 -89 -175t-204 -57l-23 158q28 -2 39 -2q47 0 70 17.5t28 58.5h-90q-79 0 -146 34t-106.5 94t-39.5 134q0 75 39.5 137t106.5 98.5t146 36.5q67 0 140 -26t123 -69l7 -3v-280h94q10 0 15 -20.5zM250 184.5
q32 -28.5 83 -28.5h91v200q-47 22 -91 22q-50 0 -82.5 -33t-32.5 -83q0 -49 32 -77.5zM457 702v-89h-258v89h19q-5 20 -5 38q0 57 40 93t102 36q49 0 93 -21l-40 -87q-9 5 -23.5 8.5t-28.5 3.5q-25 0 -39.5 -10t-14.5 -27q0 -11 7 -20.5t19 -13.5h129z" />
    <glyph glyph-name="uniFE88" unicode="&#x625;" horiz-adv-x="361" arabic-form="final" 
d="M376 135.5q5 -20.5 5 -56.5q0 -37 -5 -58t-15 -21h-288v753h178v-597h110q10 0 15 -20.5zM291 -216v-90h-258v90h19q-5 20 -5 37q0 57 40 93t102 36q48 0 93 -20l-40 -87q-9 5 -23.5 8t-28.5 3q-25 0 -39.5 -10t-14.5 -26q0 -12 7 -21.5t19 -12.5h129z" />
    <glyph glyph-name="uniFE8A" unicode="&#x626;" horiz-adv-x="992" arabic-form="final" 
d="M1001 135.5q5 -20.5 5 -56.5q0 -37 -5 -58t-15 -21h-60q-7 -121 -111 -178.5t-332 -57.5q-214 0 -328.5 69.5t-114.5 220.5q0 33 5 78.5t15 85.5l173 -37q-7 -26 -11 -62t-4 -66q0 -47 20 -75t77 -42.5t164 -14.5q143 0 197.5 20.5t57.5 59.5q-142 11 -216 85l125 111
q23 -23 51 -32t82 -9h210q10 0 15 -20.5zM230.906 398.826v-82.0684h-237.906v82.0684h17.5205q-4.61035 18.4424 -4.61035 35.04q0 52.5615 36.8848 85.7568q36.8848 33.1973 94.0557 33.1973q45.1836 0 85.7568 -19.3652l-36.8848 -80.2246
q-8.29883 4.61133 -21.6699 7.83887q-13.3701 3.22754 -26.2803 3.22754q-23.0527 0 -36.4238 -9.22168q-13.3701 -9.22168 -13.3701 -24.8975q0 -10.1426 6.45508 -18.9033q6.4541 -8.75977 17.5195 -12.4482h118.953z" />
    <glyph glyph-name="uniFE8B" unicode="&#x626;" horiz-adv-x="349" arabic-form="initial" 
d="M284 515v-515h-284q-10 0 -15 21t-5 58q0 36 5 56.5t15 20.5h107v359h177zM325 675v-89h-258v89h19q-5 20 -5 38q0 57 40 93t102 36q49 0 93 -21l-40 -87q-9 5 -23.5 8.5t-28.5 3.5q-25 0 -39.5 -10t-14.5 -27q0 -11 7 -20.5t19 -13.5h129z" />
    <glyph glyph-name="uniFE8C" unicode="&#x626;" horiz-adv-x="436" arabic-form="medial" 
d="M451 135.5q5 -20.5 5 -56.5q0 -37 -5 -58t-15 -21h-52q-93 0 -149 51q-57 -51 -158 -51h-77q-10 0 -15 21t-5 58q0 36 5 56.5t15 20.5h52q41 0 57.5 19.5t16.5 63.5v276h178v-277q0 -30 -5 -62q20 -20 57 -20h80q10 0 15 -20.5zM345 675v-89h-258v89h19q-5 20 -5 38
q0 57 40 93t102 36q49 0 93 -21l-40 -87q-9 5 -23.5 8.5t-28.5 3.5q-25 0 -39.5 -10t-14.5 -27q0 -11 7 -20.5t19 -13.5h129z" />
    <glyph glyph-name="uniFE8E" unicode="&#x627;" horiz-adv-x="361" arabic-form="final" 
d="M376 135.5q5 -20.5 5 -56.5q0 -37 -5 -58t-15 -21h-288v753h178v-597h110q10 0 15 -20.5z" />
    <glyph glyph-name="uniFE90" unicode="&#x628;" horiz-adv-x="1037" arabic-form="final" 
d="M1052 135.5q5 -20.5 5 -56.5q0 -37 -5 -58t-15 -21h-41q-96 0 -157 53q-56 -53 -160 -53h-394q-111 0 -173 65.5t-62 180.5q0 140 100 235l137 -97q-59 -65 -59 -137q0 -44 21 -67.5t61 -23.5h344q41 0 57.5 19.5t16.5 63.5v276h178v-277q0 -31 -5 -63q19 -19 55 -19h81
q10 0 15 -20.5zM425 -233q-25 25 -25 64t25 64t63 25t63 -25t25 -64t-25 -64t-63 -25t-63 25z" />
    <glyph glyph-name="uniFE91" unicode="&#x628;" horiz-adv-x="349" arabic-form="initial" 
d="M284 515v-515h-284q-10 0 -15 21t-5 58q0 36 5 56.5t15 20.5h107v359h177zM128 -233q-25 25 -25 64t25 64t63 25t63 -25t25 -64t-25 -64t-63 -25t-63 25z" />
    <glyph glyph-name="uniFE92" unicode="&#x628;" horiz-adv-x="436" arabic-form="medial" 
d="M451 135.5q5 -20.5 5 -56.5q0 -37 -5 -58t-15 -21h-52q-93 0 -149 51q-57 -51 -158 -51h-77q-10 0 -15 21t-5 58q0 36 5 56.5t15 20.5h52q41 0 57.5 19.5t16.5 63.5v276h178v-277q0 -30 -5 -62q20 -20 57 -20h80q10 0 15 -20.5zM148 -233q-25 25 -25 64t25 64t63 25
t63 -25t25 -64t-25 -64t-63 -25t-63 25z" />
    <glyph glyph-name="uniFE94" unicode="&#x629;" horiz-adv-x="717" arabic-form="final" 
d="M732 135.5q5 -20.5 5 -56.5q0 -37 -5 -58t-15 -21h-53q-118 0 -176 70q-96 -41 -177 -41q-78 0 -143 35.5t-103 97.5t-38 136t38 135.5t103.5 96.5t143.5 35h125v28h178v-354q0 -44 17 -63.5t57 -19.5h28q10 0 15 -20.5zM437 221v17v171h-113q-50 0 -84.5 -32.5
t-34.5 -78.5q0 -48 34.5 -80.5t86.5 -32.5q50 0 111 36zM347.939 662.755q-20.7461 20.7451 -20.7461 53.1094q0 32.3633 20.7461 53.1094q20.7461 20.7451 52.2793 20.7451t52.2793 -20.7451q20.7461 -20.7461 20.7461 -53.1094q0 -32.3643 -20.7461 -53.1094
q-20.7461 -20.7461 -52.2793 -20.7461t-52.2793 20.7461zM175.939 662.755q-20.7461 20.7451 -20.7461 53.1094q0 32.3633 20.7461 53.1094q20.7461 20.7451 52.2793 20.7451t52.2793 -20.7451q20.7461 -20.7461 20.7461 -53.1094q0 -32.3643 -20.7461 -53.1094
q-20.7461 -20.7461 -52.2793 -20.7461t-52.2793 20.7461z" />
    <glyph glyph-name="uniFE96" unicode="&#x62a;" horiz-adv-x="1037" arabic-form="final" 
d="M1052 135.5q5 -20.5 5 -56.5q0 -37 -5 -58t-15 -21h-41q-96 0 -157 53q-56 -53 -160 -53h-394q-111 0 -173 65.5t-62 180.5q0 140 100 235l137 -97q-59 -65 -59 -137q0 -44 21 -67.5t61 -23.5h344q41 0 57.5 19.5t16.5 63.5v276h178v-277q0 -31 -5 -63q19 -19 55 -19h81
q10 0 15 -20.5zM527.939 605.755q-20.7461 20.7451 -20.7461 53.1094q0 32.3633 20.7461 53.1094q20.7461 20.7451 52.2793 20.7451t52.2793 -20.7451q20.7461 -20.7461 20.7461 -53.1094q0 -32.3643 -20.7461 -53.1094q-20.7461 -20.7461 -52.2793 -20.7461
t-52.2793 20.7461zM355.939 605.755q-20.7461 20.7451 -20.7461 53.1094q0 32.3633 20.7461 53.1094q20.7461 20.7451 52.2793 20.7451t52.2793 -20.7451q20.7461 -20.7461 20.7461 -53.1094q0 -32.3643 -20.7461 -53.1094q-20.7461 -20.7461 -52.2793 -20.7461
t-52.2793 20.7461z" />
    <glyph glyph-name="uniFE97" unicode="&#x62a;" horiz-adv-x="349" arabic-form="initial" 
d="M284 515v-515h-284q-10 0 -15 21t-5 58q0 36 5 56.5t15 20.5h107v359h177zM230.939 605.755q-20.7461 20.7451 -20.7461 53.1094q0 32.3633 20.7461 53.1094q20.7461 20.7451 52.2793 20.7451t52.2793 -20.7451q20.7461 -20.7461 20.7461 -53.1094
q0 -32.3643 -20.7461 -53.1094q-20.7461 -20.7461 -52.2793 -20.7461t-52.2793 20.7461zM58.9395 605.755q-20.7461 20.7451 -20.7461 53.1094q0 32.3633 20.7461 53.1094q20.7461 20.7451 52.2793 20.7451t52.2793 -20.7451q20.7461 -20.7461 20.7461 -53.1094
q0 -32.3643 -20.7461 -53.1094q-20.7461 -20.7461 -52.2793 -20.7461t-52.2793 20.7461z" />
    <glyph glyph-name="uniFE98" unicode="&#x62a;" horiz-adv-x="436" arabic-form="medial" 
d="M451 135.5q5 -20.5 5 -56.5q0 -37 -5 -58t-15 -21h-52q-93 0 -149 51q-57 -51 -158 -51h-77q-10 0 -15 21t-5 58q0 36 5 56.5t15 20.5h52q41 0 57.5 19.5t16.5 63.5v276h178v-277q0 -30 -5 -62q20 -20 57 -20h80q10 0 15 -20.5zM250.939 605.755
q-20.7461 20.7451 -20.7461 53.1094q0 32.3633 20.7461 53.1094q20.7461 20.7451 52.2793 20.7451t52.2793 -20.7451q20.7461 -20.7461 20.7461 -53.1094q0 -32.3643 -20.7461 -53.1094q-20.7461 -20.7461 -52.2793 -20.7461t-52.2793 20.7461zM78.9395 605.755
q-20.7461 20.7451 -20.7461 53.1094q0 32.3633 20.7461 53.1094q20.7461 20.7451 52.2793 20.7451t52.2793 -20.7451q20.7461 -20.7461 20.7461 -53.1094q0 -32.3643 -20.7461 -53.1094q-20.7461 -20.7461 -52.2793 -20.7461t-52.2793 20.7461z" />
    <glyph glyph-name="uniFE9A" unicode="&#x62b;" horiz-adv-x="1037" arabic-form="final" 
d="M1052 135.5q5 -20.5 5 -56.5q0 -37 -5 -58t-15 -21h-41q-96 0 -157 53q-56 -53 -160 -53h-394q-111 0 -173 65.5t-62 180.5q0 140 100 235l137 -97q-59 -65 -59 -137q0 -44 21 -67.5t61 -23.5h344q41 0 57.5 19.5t16.5 63.5v276h178v-277q0 -31 -5 -63q19 -19 55 -19h81
q10 0 15 -20.5zM541.5 867.5q19.5 -19.5 19.5 -48.5q0 -30 -19 -49.5t-49 -19.5t-49 19t-19 50q0 29 19 48.5t49 19.5q29 0 48.5 -19.5zM459.5 711q20.5 -21 20.5 -53t-20.5 -53t-52.5 -21t-52.5 21t-20.5 53t20.5 53t52.5 21t52.5 -21zM631.5 711q20.5 -21 20.5 -53
t-20.5 -53t-52.5 -21t-52.5 21t-20.5 53t20.5 53t52.5 21t52.5 -21z" />
    <glyph glyph-name="uniFE9B" unicode="&#x62b;" horiz-adv-x="349" arabic-form="initial" 
d="M284 515v-515h-284q-10 0 -15 21t-5 58q0 36 5 56.5t15 20.5h107v359h177zM244.5 867.5q19.5 -19.5 19.5 -48.5q0 -30 -19 -49.5t-49 -19.5t-49 19t-19 50q0 29 19 48.5t49 19.5q29 0 48.5 -19.5zM162.5 711q20.5 -21 20.5 -53t-20.5 -53t-52.5 -21t-52.5 21t-20.5 53
t20.5 53t52.5 21t52.5 -21zM334.5 711q20.5 -21 20.5 -53t-20.5 -53t-52.5 -21t-52.5 21t-20.5 53t20.5 53t52.5 21t52.5 -21z" />
    <glyph glyph-name="uniFE9C" unicode="&#x62b;" horiz-adv-x="436" arabic-form="medial" 
d="M451 135.5q5 -20.5 5 -56.5q0 -37 -5 -58t-15 -21h-52q-93 0 -149 51q-57 -51 -158 -51h-77q-10 0 -15 21t-5 58q0 36 5 56.5t15 20.5h52q41 0 57.5 19.5t16.5 63.5v276h178v-277q0 -30 -5 -62q20 -20 57 -20h80q10 0 15 -20.5zM264.5 867.5q19.5 -19.5 19.5 -48.5
q0 -30 -19 -49.5t-49 -19.5t-49 19t-19 50q0 29 19 48.5t49 19.5q29 0 48.5 -19.5zM182.5 711q20.5 -21 20.5 -53t-20.5 -53t-52.5 -21t-52.5 21t-20.5 53t20.5 53t52.5 21t52.5 -21zM354.5 711q20.5 -21 20.5 -53t-20.5 -53t-52.5 -21t-52.5 21t-20.5 53t20.5 53t52.5 21
t52.5 -21z" />
    <glyph glyph-name="uniFE9E" unicode="&#x62c;" horiz-adv-x="794" arabic-form="final" 
d="M809 135.5q5 -20.5 5 -56.5q0 -37 -5 -58t-15 -21h-427q-64 0 -106.5 -30.5t-42.5 -77.5q0 -46 41 -76t102 -30q35 0 73 10l45 -150q-55 -16 -119 -16q-87 0 -160.5 34.5t-116.5 94.5t-43 134t44 134.5t119 94.5t164 34h126v81q0 68 -43 107.5t-114 39.5q-78 0 -145 -48
l-77 145q102 60 222 60q95 0 171.5 -39t120 -108.5t43.5 -156.5v-81h123q10 0 15 -20.5zM487.5 -212.5q-23.5 23.5 -23.5 60.5t23.5 61t59.5 24t60 -24t24 -61t-24 -60.5t-60 -23.5t-59.5 23.5z" />
    <glyph glyph-name="uniFE9F" unicode="&#x62c;" horiz-adv-x="667" arabic-form="initial" 
d="M617 156l-28 -156h-589q-10 0 -15 21t-5 58q0 36 5 56.5t15 20.5h406v81q0 68 -43 107.5t-114 39.5q-78 0 -145 -48l-78 145q50 29 107 44.5t116 15.5q95 0 171 -39t119.5 -108.5t43.5 -156.5v-81h34zM185 -233q-25 25 -25 64t25 64t63 25t63 -25t25 -64t-25 -64t-63 -25
t-63 25z" />
    <glyph glyph-name="uniFEA0" unicode="&#x62c;" horiz-adv-x="699" arabic-form="medial" 
d="M714 135.5q5 -20.5 5 -56.5q0 -37 -5 -58t-15 -21h-699q-10 0 -15 21t-5 58q0 36 5 56.5t15 20.5h406v81q0 68 -43 107.5t-114 39.5q-78 0 -145 -48l-78 145q50 29 107 44.5t116 15.5q95 0 171 -39t119.5 -108.5t43.5 -156.5v-81h116q10 0 15 -20.5zM184 -233
q-25 25 -25 64t25 64t63 25t63 -25t25 -64t-25 -64t-63 -25t-63 25z" />
    <glyph glyph-name="uniFEA2" unicode="&#x62d;" horiz-adv-x="794" arabic-form="final" 
d="M809 135.5q5 -20.5 5 -56.5q0 -37 -5 -58t-15 -21h-427q-64 0 -106.5 -30.5t-42.5 -77.5q0 -46 41 -76t102 -30q35 0 73 10l45 -150q-55 -16 -119 -16q-87 0 -160.5 34.5t-116.5 94.5t-43 134t44 134.5t119 94.5t164 34h126v81q0 68 -43 107.5t-114 39.5q-78 0 -145 -48
l-77 145q102 60 222 60q95 0 171.5 -39t120 -108.5t43.5 -156.5v-81h123q10 0 15 -20.5z" />
    <glyph glyph-name="uniFEA3" unicode="&#x62d;" horiz-adv-x="667" arabic-form="initial" 
d="M617 156l-28 -156h-589q-10 0 -15 21t-5 58q0 36 5 56.5t15 20.5h406v81q0 68 -43 107.5t-114 39.5q-78 0 -145 -48l-78 145q50 29 107 44.5t116 15.5q95 0 171 -39t119.5 -108.5t43.5 -156.5v-81h34z" />
    <glyph glyph-name="uniFEA4" unicode="&#x62d;" horiz-adv-x="699" arabic-form="medial" 
d="M714 135.5q5 -20.5 5 -56.5q0 -37 -5 -58t-15 -21h-699q-10 0 -15 21t-5 58q0 36 5 56.5t15 20.5h406v81q0 68 -43 107.5t-114 39.5q-78 0 -145 -48l-78 145q50 29 107 44.5t116 15.5q95 0 171 -39t119.5 -108.5t43.5 -156.5v-81h116q10 0 15 -20.5z" />
    <glyph glyph-name="uniFEA6" unicode="&#x62e;" horiz-adv-x="794" arabic-form="final" 
d="M809 135.5q5 -20.5 5 -56.5q0 -37 -5 -58t-15 -21h-427q-64 0 -106.5 -30.5t-42.5 -77.5q0 -46 41 -76t102 -30q35 0 73 10l45 -150q-55 -16 -119 -16q-87 0 -160.5 34.5t-116.5 94.5t-43 134t44 134.5t119 94.5t164 34h126v81q0 68 -43 107.5t-114 39.5q-78 0 -145 -48
l-77 145q102 60 222 60q95 0 171.5 -39t120 -108.5t43.5 -156.5v-81h123q10 0 15 -20.5zM291 663q-25 25 -25 64t25 64t63 25t63 -25t25 -64t-25 -64t-63 -25t-63 25z" />
    <glyph glyph-name="uniFEA7" unicode="&#x62e;" horiz-adv-x="667" arabic-form="initial" 
d="M617 156l-28 -156h-589q-10 0 -15 21t-5 58q0 36 5 56.5t15 20.5h406v81q0 68 -43 107.5t-114 39.5q-78 0 -145 -48l-78 145q50 29 107 44.5t116 15.5q95 0 171 -39t119.5 -108.5t43.5 -156.5v-81h34zM189 663q-25 25 -25 64t25 64t63 25t63 -25t25 -64t-25 -64t-63 -25
t-63 25z" />
    <glyph glyph-name="uniFEA8" unicode="&#x62e;" horiz-adv-x="699" arabic-form="medial" 
d="M714 135.5q5 -20.5 5 -56.5q0 -37 -5 -58t-15 -21h-699q-10 0 -15 21t-5 58q0 36 5 56.5t15 20.5h406v81q0 68 -43 107.5t-114 39.5q-78 0 -145 -48l-78 145q50 29 107 44.5t116 15.5q95 0 171 -39t119.5 -108.5t43.5 -156.5v-81h116q10 0 15 -20.5zM189 663
q-25 25 -25 64t25 64t63 25t63 -25t25 -64t-25 -64t-63 -25t-63 25z" />
    <glyph glyph-name="uniFEAA" unicode="&#x62f;" horiz-adv-x="780" arabic-form="final" 
d="M795 135.5q5 -20.5 5 -56.5q0 -37 -5 -58t-15 -21h-77q-102 0 -166 37q-134 -37 -289 -37q-107 0 -208 19v160q99 -23 206 -23q98 0 182 18q-12 32 -20 56l-113 327l168 49l113 -326q21 -62 33 -85t31 -30.5t63 -7.5h77v-1q10 0 15 -20.5z" />
    <glyph glyph-name="uniFEAC" unicode="&#x630;" horiz-adv-x="780" arabic-form="final" 
d="M795 135.5q5 -20.5 5 -56.5q0 -37 -5 -58t-15 -21h-77q-102 0 -166 37q-134 -37 -289 -37q-107 0 -208 19v160q99 -23 206 -23q98 0 182 18q-12 32 -20 56l-113 327l168 49l113 -326q21 -62 33 -85t31 -30.5t63 -7.5h77v-1q10 0 15 -20.5zM278 686q-25 25 -25 64t25 64
t63 25t63 -25t25 -64t-25 -64t-63 -25t-63 25z" />
    <glyph glyph-name="uniFEAE" unicode="&#x631;" horiz-adv-x="362" arabic-form="final" 
d="M377 135.5q5 -20.5 5 -56.5q0 -37 -5 -58t-15 -21h-103q-10 -104 -77.5 -165.5t-177.5 -66.5l-24 156q56 -1 79 23.5t23 84.5v483h178v-359h102q10 0 15 -20.5z" />
    <glyph glyph-name="uniFEB0" unicode="&#x632;" horiz-adv-x="362" arabic-form="final" 
d="M377 135.5q5 -20.5 5 -56.5q0 -37 -5 -58t-15 -21h-103q-10 -104 -77.5 -165.5t-177.5 -66.5l-24 156q56 -1 79 23.5t23 84.5v483h178v-359h102q10 0 15 -20.5zM108 632q-25 25 -25 64t25 64t63 25t63 -25t25 -64t-25 -64t-63 -25t-63 25z" />
    <glyph glyph-name="uniFEB2" unicode="&#x633;" horiz-adv-x="1588" arabic-form="final" 
d="M1603 135.5q5 -20.5 5 -56.5q0 -37 -5 -58t-15 -21h-41q-90 0 -145 47q-61 -47 -172 -47q-113 0 -171 49q-58 -49 -167 -49q-71 0 -114 25q-38 -118 -129.5 -187t-224.5 -69q-119 0 -204 54.5t-129.5 149.5t-44.5 213q0 60 15 130l171 -53q-8 -43 -8 -79q0 -123 53 -191
t147 -68t147 68.5t53 190.5q0 40 -7 84t-20 83l165 67q40 -115 40 -232v-18q23 -12 63 -12q51 0 69 18.5t18 64.5v226h178v-227q0 -32 -5 -64q22 -18 79 -18q38 0 58 7t27.5 24.5t7.5 51.5v276h178v-277q0 -36 -6 -68q20 -14 50 -14h69q10 0 15 -20.5z" />
    <glyph glyph-name="uniFEB3" unicode="&#x633;" horiz-adv-x="1044" arabic-form="initial" 
d="M990 515v-277q0 -120 -59.5 -179t-185.5 -59q-113 0 -170 49q-59 -49 -175 -49q-115 0 -171 50q-61 -50 -176 -50h-53q-10 0 -15 21t-5 58q0 36 5 56.5t15 20.5h33q51 0 69 18t18 65v176h178v-177q0 -31 -5 -63q12 -10 31 -14.5t50 -4.5q38 0 58 7t27.5 24.5t7.5 51.5
v226h178v-227q0 -32 -5 -65q23 -17 79 -17q38 0 58 7t27.5 24.5t7.5 51.5v276h178z" />
    <glyph glyph-name="uniFEB4" unicode="&#x633;" horiz-adv-x="1143" arabic-form="medial" 
d="M1158 135.5q5 -20.5 5 -56.5q0 -37 -5 -58t-15 -21h-75q-92 0 -148 50q-61 -50 -175 -50q-113 0 -170 49q-59 -49 -175 -49q-115 0 -171 50q-61 -50 -176 -50h-53q-10 0 -15 21t-5 58q0 36 5 56.5t15 20.5h33q51 0 69 18t18 65v176h178v-177q0 -31 -5 -63
q12 -10 31 -14.5t50 -4.5q38 0 58 7t27.5 24.5t7.5 51.5v226h178v-227q0 -32 -5 -65q23 -17 79 -17q38 0 58 7t27.5 24.5t7.5 51.5v276h178v-277q0 -31 -5 -64q20 -18 55 -18h103q10 0 15 -20.5z" />
    <glyph glyph-name="uniFEB6" unicode="&#x634;" horiz-adv-x="1588" arabic-form="final" 
d="M1603 135.5q5 -20.5 5 -56.5q0 -37 -5 -58t-15 -21h-41q-90 0 -145 47q-61 -47 -172 -47q-113 0 -171 49q-58 -49 -167 -49q-71 0 -114 25q-38 -118 -129.5 -187t-224.5 -69q-119 0 -204 54.5t-129.5 149.5t-44.5 213q0 60 15 130l171 -53q-8 -43 -8 -79q0 -123 53 -191
t147 -68t147 68.5t53 190.5q0 40 -7 84t-20 83l165 67q40 -115 40 -232v-18q23 -12 63 -12q51 0 69 18.5t18 64.5v226h178v-227q0 -32 -5 -64q22 -18 79 -18q38 0 58 7t27.5 24.5t7.5 51.5v276h178v-277q0 -36 -6 -68q20 -14 50 -14h69q10 0 15 -20.5zM1087.5 867.5
q19.5 -19.5 19.5 -48.5q0 -30 -19 -49.5t-49 -19.5t-49 19t-19 50q0 29 19 48.5t49 19.5q29 0 48.5 -19.5zM1005.5 711q20.5 -21 20.5 -53t-20.5 -53t-52.5 -21t-52.5 21t-20.5 53t20.5 53t52.5 21t52.5 -21zM1177.5 711q20.5 -21 20.5 -53t-20.5 -53t-52.5 -21t-52.5 21
t-20.5 53t20.5 53t52.5 21t52.5 -21z" />
    <glyph glyph-name="uniFEB7" unicode="&#x634;" horiz-adv-x="1044" arabic-form="initial" 
d="M990 515v-277q0 -120 -59.5 -179t-185.5 -59q-113 0 -170 49q-59 -49 -175 -49q-115 0 -171 50q-61 -50 -176 -50h-53q-10 0 -15 21t-5 58q0 36 5 56.5t15 20.5h33q51 0 69 18t18 65v176h178v-177q0 -31 -5 -63q12 -10 31 -14.5t50 -4.5q38 0 58 7t27.5 24.5t7.5 51.5
v226h178v-227q0 -32 -5 -65q23 -17 79 -17q38 0 58 7t27.5 24.5t7.5 51.5v276h178zM602.5 867.5q19.5 -19.5 19.5 -48.5q0 -30 -19 -49.5t-49 -19.5t-49 19t-19 50q0 29 19 48.5t49 19.5q29 0 48.5 -19.5zM520.5 711q20.5 -21 20.5 -53t-20.5 -53t-52.5 -21t-52.5 21
t-20.5 53t20.5 53t52.5 21t52.5 -21zM692.5 711q20.5 -21 20.5 -53t-20.5 -53t-52.5 -21t-52.5 21t-20.5 53t20.5 53t52.5 21t52.5 -21z" />
    <glyph glyph-name="uniFEB8" unicode="&#x634;" horiz-adv-x="1143" arabic-form="medial" 
d="M1158 135.5q5 -20.5 5 -56.5q0 -37 -5 -58t-15 -21h-75q-92 0 -148 50q-61 -50 -175 -50q-113 0 -170 49q-59 -49 -175 -49q-115 0 -171 50q-61 -50 -176 -50h-53q-10 0 -15 21t-5 58q0 36 5 56.5t15 20.5h33q51 0 69 18t18 65v176h178v-177q0 -31 -5 -63
q12 -10 31 -14.5t50 -4.5q38 0 58 7t27.5 24.5t7.5 51.5v226h178v-227q0 -32 -5 -65q23 -17 79 -17q38 0 58 7t27.5 24.5t7.5 51.5v276h178v-277q0 -31 -5 -64q20 -18 55 -18h103q10 0 15 -20.5zM602.5 867.5q19.5 -19.5 19.5 -48.5q0 -30 -19 -49.5t-49 -19.5t-49 19
t-19 50q0 29 19 48.5t49 19.5q29 0 48.5 -19.5zM520.5 711q20.5 -21 20.5 -53t-20.5 -53t-52.5 -21t-52.5 21t-20.5 53t20.5 53t52.5 21t52.5 -21zM692.5 711q20.5 -21 20.5 -53t-20.5 -53t-52.5 -21t-52.5 21t-20.5 53t20.5 53t52.5 21t52.5 -21z" />
    <glyph glyph-name="uniFEBA" unicode="&#x635;" horiz-adv-x="1842" arabic-form="final" 
d="M1857 135.5q5 -20.5 5 -56.5q0 -37 -5 -58t-15 -21h-954q-70 0 -118 18q-39 -114 -129.5 -181.5t-222.5 -67.5q-118 0 -203.5 54.5t-130 149.5t-44.5 213q0 60 15 130l171 -53q-8 -43 -8 -79q0 -123 53 -191t147 -68t147 68.5t53 190.5q0 40 -7 84t-20 83l165 67
q19 -52 29.5 -112.5t10.5 -119.5v-20q21 -10 65 -10q22 100 78 190t153 149t233 59q118 0 199 -46t120.5 -123.5t39.5 -172.5v-56h158q10 0 15 -20.5zM1149 330.5q-79 -67.5 -109 -174.5h466v56q0 91 -44.5 138.5t-128.5 47.5q-105 0 -184 -67.5z" />
    <glyph glyph-name="uniFEBB" unicode="&#x635;" horiz-adv-x="1262" arabic-form="initial" 
d="M1213 24h-21v-24h-775q-115 0 -171 50q-61 -50 -175 -50h-71q-10 0 -15 21t-5 58q0 36 5 56.5t15 20.5h50q52 0 69.5 18t17.5 65v226h178v-227q0 -31 -5 -63q12 -10 31 -14.5t49 -4.5q23 100 79 190t153 149t233 59q118 0 198.5 -46t120 -123.5t39.5 -172.5v-188z
M679 330.5q-79 -67.5 -109 -174.5h466v56q0 91 -44.5 138.5t-128.5 47.5q-105 0 -184 -67.5z" />
    <glyph glyph-name="uniFEBC" unicode="&#x635;" horiz-adv-x="1360" arabic-form="medial" 
d="M1375 135.5q5 -20.5 5 -56.5q0 -37 -5 -58t-15 -21h-943q-115 0 -171 50q-61 -50 -175 -50h-71q-10 0 -15 21t-5 58q0 36 5 56.5t15 20.5h50q52 0 69.5 18t17.5 65v226h178v-227q0 -31 -5 -63q12 -10 31 -14.5t49 -4.5q23 100 79 190t153 149t233 59q118 0 198.5 -46
t120 -123.5t39.5 -172.5v-56h147q10 0 15 -20.5zM679 330.5q-79 -67.5 -109 -174.5h466v56q0 91 -44.5 138.5t-128.5 47.5q-105 0 -184 -67.5z" />
    <glyph glyph-name="uniFEBE" unicode="&#x636;" horiz-adv-x="1842" arabic-form="final" 
d="M1857 135.5q5 -20.5 5 -56.5q0 -37 -5 -58t-15 -21h-954q-70 0 -118 18q-39 -114 -129.5 -181.5t-222.5 -67.5q-118 0 -203.5 54.5t-130 149.5t-44.5 213q0 60 15 130l171 -53q-8 -43 -8 -79q0 -123 53 -191t147 -68t147 68.5t53 190.5q0 40 -7 84t-20 83l165 67
q19 -52 29.5 -112.5t10.5 -119.5v-20q21 -10 65 -10q22 100 78 190t153 149t233 59q118 0 199 -46t120.5 -123.5t39.5 -172.5v-56h158q10 0 15 -20.5zM1149 330.5q-79 -67.5 -109 -174.5h466v56q0 91 -44.5 138.5t-128.5 47.5q-105 0 -184 -67.5zM1262 675q-25 25 -25 64
t25 64t63 25t63 -25t25 -64t-25 -64t-63 -25t-63 25z" />
    <glyph glyph-name="uniFEBF" unicode="&#x636;" horiz-adv-x="1262" arabic-form="initial" 
d="M1213 24h-21v-24h-775q-115 0 -171 50q-61 -50 -175 -50h-71q-10 0 -15 21t-5 58q0 36 5 56.5t15 20.5h50q52 0 69.5 18t17.5 65v226h178v-227q0 -31 -5 -63q12 -10 31 -14.5t49 -4.5q23 100 79 190t153 149t233 59q118 0 198.5 -46t120 -123.5t39.5 -172.5v-188z
M679 330.5q-79 -67.5 -109 -174.5h466v56q0 91 -44.5 138.5t-128.5 47.5q-105 0 -184 -67.5zM794 675q-25 25 -25 64t25 64t63 25t63 -25t25 -64t-25 -64t-63 -25t-63 25z" />
    <glyph glyph-name="uniFEC0" unicode="&#x636;" horiz-adv-x="1360" arabic-form="medial" 
d="M1375 135.5q5 -20.5 5 -56.5q0 -37 -5 -58t-15 -21h-943q-115 0 -171 50q-61 -50 -175 -50h-71q-10 0 -15 21t-5 58q0 36 5 56.5t15 20.5h50q52 0 69.5 18t17.5 65v226h178v-227q0 -31 -5 -63q12 -10 31 -14.5t49 -4.5q23 100 79 190t153 149t233 59q118 0 198.5 -46
t120 -123.5t39.5 -172.5v-56h147q10 0 15 -20.5zM679 330.5q-79 -67.5 -109 -174.5h466v56q0 91 -44.5 138.5t-128.5 47.5q-105 0 -184 -67.5zM794 675q-25 25 -25 64t25 64t63 25t63 -25t25 -64t-25 -64t-63 -25t-63 25z" />
    <glyph glyph-name="uniFEC2" unicode="&#x637;" horiz-adv-x="1081" arabic-form="final" 
d="M1096 135.5q5 -20.5 5 -56.5q0 -37 -5 -58t-15 -21h-1041v156h80v597h178v-410q46 95 124 153t194 58q99 0 176.5 -43.5t121 -121.5t43.5 -177v-56h124q10 0 15 -20.5zM779 156v56q0 91 -44.5 138.5t-128.5 47.5q-105 0 -184 -67.5t-109 -174.5h466z" />
    <glyph glyph-name="uniFEC3" unicode="&#x637;" horiz-adv-x="1007" arabic-form="initial" 
d="M788.5 510.5q77.5 -43.5 121 -121.5t43.5 -177v-212h-953q-10 0 -15 21t-5 58q0 36 5 56.5t15 20.5h116v597h178v-410q46 95 124 153t194 58q99 0 176.5 -43.5zM775 156v56q0 91 -44.5 138.5t-128.5 47.5q-105 0 -184 -67.5t-109 -174.5h466z" />
    <glyph glyph-name="uniFEC4" unicode="&#x637;" horiz-adv-x="1066" arabic-form="medial" 
d="M1081 135.5q5 -20.5 5 -56.5q0 -37 -5 -58t-15 -21h-1066q-10 0 -15 21t-5 58q0 36 5 56.5t15 20.5h116v597h178v-410q46 95 124 153t194 58q99 0 176.5 -43.5t121 -121.5t43.5 -177v-56h113q10 0 15 -20.5zM775 156v56q0 91 -44.5 138.5t-128.5 47.5q-105 0 -184 -67.5
t-109 -174.5h466z" />
    <glyph glyph-name="uniFEC6" unicode="&#x638;" horiz-adv-x="1081" arabic-form="final" 
d="M1096 135.5q5 -20.5 5 -56.5q0 -37 -5 -58t-15 -21h-1041v156h80v597h178v-410q46 95 124 153t194 58q99 0 176.5 -43.5t121 -121.5t43.5 -177v-56h124q10 0 15 -20.5zM779 156v56q0 91 -44.5 138.5t-128.5 47.5q-105 0 -184 -67.5t-109 -174.5h466zM554 651
q-25 25 -25 64t25 64t63 25t63 -25t25 -64t-25 -64t-63 -25t-63 25z" />
    <glyph glyph-name="uniFEC7" unicode="&#x638;" horiz-adv-x="1007" arabic-form="initial" 
d="M788.5 510.5q77.5 -43.5 121 -121.5t43.5 -177v-212h-953q-10 0 -15 21t-5 58q0 36 5 56.5t15 20.5h116v597h178v-410q46 95 124 153t194 58q99 0 176.5 -43.5zM775 156v56q0 91 -44.5 138.5t-128.5 47.5q-105 0 -184 -67.5t-109 -174.5h466zM550 651q-25 25 -25 64
t25 64t63 25t63 -25t25 -64t-25 -64t-63 -25t-63 25z" />
    <glyph glyph-name="uniFEC8" unicode="&#x638;" horiz-adv-x="1066" arabic-form="medial" 
d="M1081 135.5q5 -20.5 5 -56.5q0 -37 -5 -58t-15 -21h-1066q-10 0 -15 21t-5 58q0 36 5 56.5t15 20.5h116v597h178v-410q46 95 124 153t194 58q99 0 176.5 -43.5t121 -121.5t43.5 -177v-56h113q10 0 15 -20.5zM775 156v56q0 91 -44.5 138.5t-128.5 47.5q-105 0 -184 -67.5
t-109 -174.5h466zM550 651q-25 25 -25 64t25 64t63 25t63 -25t25 -64t-25 -64t-63 -25t-63 25z" />
    <glyph glyph-name="uniFECA" unicode="&#x639;" horiz-adv-x="788" arabic-form="final" 
d="M803 135.5q5 -20.5 5 -56.5q0 -37 -5 -58t-15 -21h-199q-68 0 -136 17q-37 -12 -82 -15q-72 -7 -112.5 -30.5t-40.5 -71.5q0 -51 46 -82t118 -31q24 0 50 4.5t44 11.5l29 -150q-25 -10 -59 -16.5t-64 -6.5q-95 0 -173.5 35t-123.5 96.5t-45 138.5q0 86 53.5 145.5
t141.5 88.5q-74 70 -108 162l146 236q65 15 132 15q93 0 162.5 -25.5t107 -72t37.5 -108.5q0 -42 -17 -91t-49 -94h142q10 0 15 -20.5zM501.5 376q-32.5 15 -99.5 15q-59 0 -113 -17q21 -66 63 -114t100 -75q44 25 63 66t19 87q0 23 -32.5 38z" />
    <glyph glyph-name="uniFECB" unicode="&#x639;" horiz-adv-x="619" arabic-form="initial" 
d="M589 156v-156h-589q-10 0 -15 21t-5 58q0 36 5 56.5t15 20.5h91q-22 50 -22 105q0 77 39 139.5t106 98t148 35.5q97 0 216 -57l-83 -137q-86 38 -131 38q-52 0 -84.5 -32.5t-32.5 -83.5q0 -40 22 -69t59 -37h261z" />
    <glyph glyph-name="uniFECC" unicode="&#x639;" horiz-adv-x="725" arabic-form="medial" 
d="M740 135.5q5 -20.5 5 -56.5q0 -37 -5 -58t-15 -21h-210q-111 0 -202 35q-102 -35 -186 -35h-127q-10 0 -15 21t-5 58q0 36 5 56.5t15 20.5h127h8q-54 62 -82 140l146 236q67 15 131 15q91 0 161.5 -25t110 -70t39.5 -102q0 -50 -30 -99.5t-82 -94.5h196q10 0 15 -20.5z
M322 212q61 31 101 68t40 66q0 17 -36.5 31t-99.5 14q-60 0 -115 -17q30 -105 110 -162z" />
    <glyph glyph-name="uniFECE" unicode="&#x63a;" horiz-adv-x="788" arabic-form="final" 
d="M803 135.5q5 -20.5 5 -56.5q0 -37 -5 -58t-15 -21h-199q-68 0 -136 17q-37 -12 -82 -15q-72 -7 -112.5 -30.5t-40.5 -71.5q0 -51 46 -82t118 -31q24 0 50 4.5t44 11.5l29 -150q-25 -10 -59 -16.5t-64 -6.5q-95 0 -173.5 35t-123.5 96.5t-45 138.5q0 86 53.5 145.5
t141.5 88.5q-74 70 -108 162l146 236q65 15 132 15q93 0 162.5 -25.5t107 -72t37.5 -108.5q0 -42 -17 -91t-49 -94h142q10 0 15 -20.5zM501.5 376q-32.5 15 -99.5 15q-59 0 -113 -17q21 -66 63 -114t100 -75q44 25 63 66t19 87q0 23 -32.5 38zM344 638q-25 25 -25 64t25 64
t63 25t63 -25t25 -64t-25 -64t-63 -25t-63 25z" />
    <glyph glyph-name="uniFECF" unicode="&#x63a;" horiz-adv-x="619" arabic-form="initial" 
d="M589 156v-156h-589q-10 0 -15 21t-5 58q0 36 5 56.5t15 20.5h91q-22 50 -22 105q0 77 39 139.5t106 98t148 35.5q97 0 216 -57l-83 -137q-86 38 -131 38q-52 0 -84.5 -32.5t-32.5 -83.5q0 -40 22 -69t59 -37h261zM263 638q-25 25 -25 64t25 64t63 25t63 -25t25 -64
t-25 -64t-63 -25t-63 25z" />
    <glyph glyph-name="uniFED0" unicode="&#x63a;" horiz-adv-x="725" arabic-form="medial" 
d="M740 135.5q5 -20.5 5 -56.5q0 -37 -5 -58t-15 -21h-210q-111 0 -202 35q-102 -35 -186 -35h-127q-10 0 -15 21t-5 58q0 36 5 56.5t15 20.5h127h8q-54 62 -82 140l146 236q67 15 131 15q91 0 161.5 -25t110 -70t39.5 -102q0 -50 -30 -99.5t-82 -94.5h196q10 0 15 -20.5z
M322 212q61 31 101 68t40 66q0 17 -36.5 31t-99.5 14q-60 0 -115 -17q30 -105 110 -162zM266 638q-25 25 -25 64t25 64t63 25t63 -25t25 -64t-25 -64t-63 -25t-63 25z" />
    <glyph glyph-name="uniFED2" unicode="&#x641;" horiz-adv-x="1176" arabic-form="final" 
d="M1191 135.5q5 -20.5 5 -56.5q0 -37 -5 -58t-15 -21h-901q-111 0 -173 65t-62 180q0 139 99 235l137 -95q-58 -65 -58 -139q0 -43 21 -66.5t61 -23.5h249q-22 50 -22 105q0 77 39 139t106 98t147 36q109 0 242 -70v-308h115q10 0 15 -20.5zM726 194q21 -28 57 -37h101v212
q-28 9 -62 9q-52 0 -84.5 -32.5t-32.5 -83.5q0 -40 21 -68zM756 637q-25 25 -25 64t25 64t63 25t63 -25t25 -64t-25 -64t-63 -25t-63 25z" />
    <glyph glyph-name="uniFED3" unicode="&#x641;" horiz-adv-x="655" arabic-form="initial" 
d="M615 464v-464h-615q-10 0 -15 21t-5 58q0 36 5 56.5t15 20.5h103q-22 50 -22 105q0 77 39 139t106 98t147 36q109 0 242 -70zM281 193.5q22 -28.5 59 -36.5h98v212q-28 9 -62 9q-52 0 -84.5 -32.5t-32.5 -83.5q0 -40 22 -68.5zM310 637q-25 25 -25 64t25 64t63 25t63 -25
t25 -64t-25 -64t-63 -25t-63 25z" />
    <glyph glyph-name="uniFED4" unicode="&#x641;" horiz-adv-x="728" arabic-form="medial" 
d="M743 135.5q5 -20.5 5 -56.5q0 -37 -5 -58t-15 -21h-728q-10 0 -15 21t-5 58q0 36 5 56.5t15 20.5h103q-22 50 -22 105q0 77 39 139t106 98t147 36q109 0 242 -70v-308h113q10 0 15 -20.5zM281 193.5q22 -28.5 59 -36.5h98v212q-28 9 -62 9q-52 0 -84.5 -32.5t-32.5 -83.5
q0 -40 22 -68.5zM311 637q-25 25 -25 64t25 64t63 25t63 -25t25 -64t-25 -64t-63 -25t-63 25z" />
    <glyph glyph-name="uniFED6" unicode="&#x642;" horiz-adv-x="1074" arabic-form="final" 
d="M1089 135.5q5 -20.5 5 -56.5q0 -37 -5 -58t-15 -21h-125q-15 -155 -126 -246.5t-327 -91.5q-234 0 -345 107.5t-111 284.5q0 85 27 178l166 -66q-15 -63 -15 -114q0 -121 64 -177t214 -56q134 0 198.5 44t76.5 137h-89q-79 0 -146 35.5t-106.5 96t-39.5 133.5t39.5 134.5
t106.5 98t146 36.5q68 0 142 -26.5t124 -70.5l4 -1v-280h122q10 0 15 -20.5zM601 187q33 -31 84 -31h89v200q-47 22 -88 22q-55 0 -86.5 -34t-31.5 -80t33 -77zM716.939 632.755q-20.7461 20.7451 -20.7461 53.1094q0 32.3633 20.7461 53.1094
q20.7461 20.7451 52.2793 20.7451t52.2793 -20.7451q20.7461 -20.7461 20.7461 -53.1094q0 -32.3643 -20.7461 -53.1094q-20.7461 -20.7461 -52.2793 -20.7461t-52.2793 20.7461zM544.939 632.755q-20.7461 20.7451 -20.7461 53.1094q0 32.3633 20.7461 53.1094
q20.7461 20.7451 52.2793 20.7451t52.2793 -20.7451q20.7461 -20.7461 20.7461 -53.1094q0 -32.3643 -20.7461 -53.1094q-20.7461 -20.7461 -52.2793 -20.7461t-52.2793 20.7461z" />
    <glyph glyph-name="uniFED7" unicode="&#x642;" horiz-adv-x="655" arabic-form="initial" 
d="M615 464v-464h-615q-10 0 -15 21t-5 58q0 36 5 56.5t15 20.5h103q-22 50 -22 105q0 77 39 139t106 98t147 36q109 0 242 -70zM281 193.5q22 -28.5 59 -36.5h98v212q-28 9 -62 9q-52 0 -84.5 -32.5t-32.5 -83.5q0 -40 22 -68.5zM408.939 632.755
q-20.7461 20.7451 -20.7461 53.1094q0 32.3633 20.7461 53.1094q20.7461 20.7451 52.2793 20.7451t52.2793 -20.7451q20.7461 -20.7461 20.7461 -53.1094q0 -32.3643 -20.7461 -53.1094q-20.7461 -20.7461 -52.2793 -20.7461t-52.2793 20.7461zM236.939 632.755
q-20.7461 20.7451 -20.7461 53.1094q0 32.3633 20.7461 53.1094q20.7461 20.7451 52.2793 20.7451t52.2793 -20.7451q20.7461 -20.7461 20.7461 -53.1094q0 -32.3643 -20.7461 -53.1094q-20.7461 -20.7461 -52.2793 -20.7461t-52.2793 20.7461z" />
    <glyph glyph-name="uniFED8" unicode="&#x642;" horiz-adv-x="728" arabic-form="medial" 
d="M743 135.5q5 -20.5 5 -56.5q0 -37 -5 -58t-15 -21h-728q-10 0 -15 21t-5 58q0 36 5 56.5t15 20.5h103q-22 50 -22 105q0 77 39 139t106 98t147 36q109 0 242 -70v-308h113q10 0 15 -20.5zM281 193.5q22 -28.5 59 -36.5h98v212q-28 9 -62 9q-52 0 -84.5 -32.5t-32.5 -83.5
q0 -40 22 -68.5zM408.939 632.755q-20.7461 20.7451 -20.7461 53.1094q0 32.3633 20.7461 53.1094q20.7461 20.7451 52.2793 20.7451t52.2793 -20.7451q20.7461 -20.7461 20.7461 -53.1094q0 -32.3643 -20.7461 -53.1094q-20.7461 -20.7461 -52.2793 -20.7461
t-52.2793 20.7461zM236.939 632.755q-20.7461 20.7451 -20.7461 53.1094q0 32.3633 20.7461 53.1094q20.7461 20.7451 52.2793 20.7451t52.2793 -20.7451q20.7461 -20.7461 20.7461 -53.1094q0 -32.3643 -20.7461 -53.1094q-20.7461 -20.7461 -52.2793 -20.7461
t-52.2793 20.7461z" />
    <glyph glyph-name="uniFEDA" unicode="&#x643;" horiz-adv-x="989" arabic-form="final" 
d="M1004 135.5q5 -20.5 5 -56.5q0 -37 -5 -58t-15 -21h-714q-111 0 -173 65t-62 180q0 139 99 235l137 -95q-58 -65 -58 -139q0 -43 21 -66.5t61 -23.5l378 1v596h178v-597h133q10 0 15 -20.5zM586.387 454.61v-83.2686h-241.387v83.2686h17.7764
q-4.67773 18.7129 -4.67773 35.5537q0 53.3291 37.4238 87.0117q37.4248 33.6816 95.4326 33.6816q45.8447 0 87.0117 -19.6475l-37.4248 -81.3984q-8.4209 4.67773 -21.9863 7.95312q-13.5664 3.27441 -26.665 3.27441q-23.3906 0 -36.957 -9.35645
q-13.5664 -9.35547 -13.5664 -25.2607q0 -10.292 6.5498 -19.1807q6.54883 -8.8877 17.7764 -12.6309h120.693z" />
    <glyph glyph-name="uniFEDB" unicode="&#x643;" horiz-adv-x="560" arabic-form="initial" 
d="M444 359.5q52 -80.5 52 -203.5v-156h-496q-10 0 -15 21t-5 58q0 36 5 56.5t15 20.5h317v9q0 83 -39 126.5t-114 43.5l-109 111l275 276l109 -110l-140 -141q93 -31 145 -111.5z" />
    <glyph glyph-name="uniFEDC" unicode="&#x643;" horiz-adv-x="635" arabic-form="medial" 
d="M650 135.5q5 -20.5 5 -56.5q0 -37 -5 -58t-15 -21h-635q-10 0 -15 21t-5 58q0 36 5 56.5t15 20.5h317v9q0 83 -39 126.5t-114 43.5l-109 111l275 276l109 -110l-140 -141q93 -31 145 -111.5t52 -203.5h139q10 0 15 -20.5z" />
    <glyph glyph-name="uniFEDE" unicode="&#x644;" horiz-adv-x="874" arabic-form="final" 
d="M889 135.5q5 -20.5 5 -56.5q0 -37 -5 -58t-15 -21h-19q-66 0 -117 27q-38 -107 -125 -171t-211 -64q-111 0 -193 52.5t-125.5 142.5t-43.5 198q0 35 7 86l176 -23q-5 -38 -5 -64q0 -72 23 -125t64.5 -82t96.5 -29q85 0 135 64t50 174v567h178v-565v-6q20 -26 62 -26h47
q10 0 15 -20.5z" />
    <glyph glyph-name="uniFEDF" unicode="&#x644;" horiz-adv-x="333" arabic-form="initial" 
d="M258 753v-753h-258q-10 0 -15 21t-5 58q0 36 5 56.5t15 20.5h80v597h178z" />
    <glyph glyph-name="uniFEE0" unicode="&#x644;" horiz-adv-x="363" arabic-form="medial" 
d="M378 135.5q5 -20.5 5 -56.5q0 -37 -5 -58t-15 -21h-363q-10 0 -15 21t-5 58q0 36 5 56.5t15 20.5h80v597h178v-597h105q10 0 15 -20.5z" />
    <glyph glyph-name="uniFEE2" unicode="&#x645;" horiz-adv-x="905" arabic-form="final" 
d="M920 135.5q5 -20.5 5 -56.5q0 -37 -5 -58t-15 -21h-12q-94 0 -162 41q-61 -20 -125 -30.5t-115 -10.5q-124 0 -243 70q-29 -7 -45 -39.5t-16 -74.5q0 -55 30.5 -128t77.5 -126l-142 -72q-52 63 -82.5 150t-30.5 175q0 94 34.5 165.5t100.5 99.5q17 84 36 143t74.5 115
t152.5 56q83 0 155 -43.5t121.5 -120.5t68.5 -173q13 -23 31.5 -32t55.5 -9h35q10 0 15 -20.5zM605 171q-11 56 -36 103.5t-58 75.5t-65 28q-40 0 -58 -39.5t-31 -108.5q-2 -11 -4 -19t-3 -14q42 -22 74.5 -31.5t68.5 -9.5q47 0 112 15z" />
    <glyph glyph-name="uniFEE3" unicode="&#x645;" horiz-adv-x="742" arabic-form="initial" 
d="M527.5 477q82.5 -64 128.5 -173t43 -238q-71 -32 -154 -49t-150 -17q-98 0 -195 44q-47 -44 -124 -44h-76q-10 0 -15 21t-5 58q0 36 5 56.5t15 20.5h14q28 0 43.5 13.5t20.5 40.5l4 21q12 71 34 136t77.5 119.5t150.5 54.5q101 0 183.5 -64zM329.5 165q32.5 -9 68.5 -9
q54 0 115 15q-12 59 -38 107.5t-58.5 77t-64.5 28.5q-46 0 -67 -54t-29 -134q41 -22 73.5 -31z" />
    <glyph glyph-name="uniFEE4" unicode="&#x645;" horiz-adv-x="810" arabic-form="medial" 
d="M825 135.5q5 -20.5 5 -56.5q0 -37 -5 -58t-15 -21h-12q-94 0 -163 41q-60 -20 -124 -30.5t-116 -10.5q-98 0 -195 44q-47 -44 -124 -44h-76q-10 0 -15 21t-5 58q0 36 5 56.5t15 20.5h14q28 0 43.5 13.5t20.5 40.5l4 21q12 71 34 136t77.5 119.5t150.5 54.5
q83 0 154.5 -44t121 -122t68.5 -177q13 -23 31.5 -32.5t54.5 -9.5h36q10 0 15 -20.5zM329.5 165q32.5 -9 68.5 -9q54 0 115 15q-12 59 -38 107.5t-58.5 77t-64.5 28.5q-46 0 -67 -54t-29 -134q41 -22 73.5 -31z" />
    <glyph glyph-name="uniFEE6" unicode="&#x646;" horiz-adv-x="903" arabic-form="final" 
d="M918 135.5q5 -20.5 5 -56.5q0 -37 -5 -58t-15 -21h-40q-70 0 -119 29q-36 -108 -127 -172.5t-215 -64.5q-105 0 -187.5 47.5t-128.5 130.5t-46 185q0 80 30 175l161 -76q-13 -54 -13 -100q0 -59 22 -105.5t64 -73.5t98 -27t98 27t64.5 74t22.5 106q0 44 -12 95t-31 86
l153 82q31 -52 48.5 -114.5t19.5 -127.5q20 -20 56 -20h82q10 0 15 -20.5zM338 489q-25 25 -25 64t25 64t63 25t63 -25t25 -64t-25 -64t-63 -25t-63 25z" />
    <glyph glyph-name="uniFEE7" unicode="&#x646;" horiz-adv-x="349" arabic-form="initial" 
d="M284 515v-515h-284q-10 0 -15 21t-5 58q0 36 5 56.5t15 20.5h107v359h177zM133 611q-25 25 -25 64t25 64t63 25t63 -25t25 -64t-25 -64t-63 -25t-63 25z" />
    <glyph glyph-name="uniFEE8" unicode="&#x646;" horiz-adv-x="436" arabic-form="medial" 
d="M451 135.5q5 -20.5 5 -56.5q0 -37 -5 -58t-15 -21h-52q-93 0 -149 51q-57 -51 -158 -51h-77q-10 0 -15 21t-5 58q0 36 5 56.5t15 20.5h52q41 0 57.5 19.5t16.5 63.5v276h178v-277q0 -30 -5 -62q20 -20 57 -20h80q10 0 15 -20.5zM153 611q-25 25 -25 64t25 64t63 25
t63 -25t25 -64t-25 -64t-63 -25t-63 25z" />
    <glyph glyph-name="uniFEEA" unicode="&#x647;" horiz-adv-x="717" arabic-form="final" 
d="M732 135.5q5 -20.5 5 -56.5q0 -37 -5 -58t-15 -21h-53q-118 0 -176 70q-96 -41 -177 -41q-78 0 -143 35.5t-103 97.5t-38 136t38 135.5t103.5 96.5t143.5 35h125v28h178v-354q0 -44 17 -63.5t57 -19.5h28q10 0 15 -20.5zM437 221v17v171h-113q-50 0 -84.5 -32.5
t-34.5 -78.5q0 -48 34.5 -80.5t86.5 -32.5q50 0 111 36z" />
    <glyph glyph-name="uniFEEB" unicode="&#x647;" horiz-adv-x="903" arabic-form="initial" 
d="M751.5 430.5q51.5 -45.5 76 -110.5t20.5 -158l-6 -162h-842q-10 0 -15 21t-5 58q0 36 5 56.5t15 20.5h153q-18 69 -18 133q0 59 17 108t48 82l-105 26l43 152q226 -57 315.5 -82.5t162.5 -59.5q84 -39 135.5 -84.5zM302 156h117v162q0 41 -17 69t-48 28q-33 0 -53 -33
t-20 -91q0 -64 21 -135zM649.5 289.5q-23.5 41.5 -88.5 74.5q4 -20 4 -46v-162h105v21q3 71 -20.5 112.5z" />
    <glyph glyph-name="uniFEEC" unicode="&#x647;" horiz-adv-x="761" arabic-form="medial" 
d="M776 135.5q5 -20.5 5 -56.5q0 -37 -5 -58t-15 -21h-11q-42 0 -63 -24t-27 -66t-6 -114v-68l-150 -86q-87 0 -167 44.5t-140.5 126t-89.5 187.5h-107q-10 0 -15 21t-5 58q0 36 5 56.5t15 20.5h84v22q0 117 35.5 206.5t95.5 138t132 48.5q73 0 133 -49t95.5 -138.5
t35.5 -205.5q0 -19 -2 -53q57 31 141 31h11q10 0 15 -20.5zM262 156h171v18q0 64 -14.5 119.5t-35 88.5t-36.5 33t-36.5 -32.5t-34.5 -88t-14 -119.5v-19zM364.5 -128.5q45.5 -52.5 97.5 -68.5l13 8q2 115 31 189h-214q27 -76 72.5 -128.5z" />
    <glyph glyph-name="uniFEEE" unicode="&#x648;" horiz-adv-x="696" arabic-form="final" 
d="M711 135.5q5 -20.5 5 -56.5q0 -37 -5 -58t-15 -21h-95q-10 -113 -89 -175t-204 -57l-23 158q28 -2 39 -2q47 0 70 17.5t28 58.5h-90q-79 0 -146 34t-106.5 94t-39.5 134q0 75 39.5 137t106.5 98.5t146 36.5q67 0 140 -26t123 -69l7 -3v-280h94q10 0 15 -20.5zM250 184.5
q32 -28.5 83 -28.5h91v200q-47 22 -91 22q-50 0 -82.5 -33t-32.5 -83q0 -49 32 -77.5z" />
    <glyph glyph-name="uniFEF0" unicode="&#x649;" horiz-adv-x="992" arabic-form="final" 
d="M1001 135.5q5 -20.5 5 -56.5q0 -37 -5 -58t-15 -21h-60q-7 -121 -111 -178.5t-332 -57.5q-214 0 -328.5 69.5t-114.5 220.5q0 33 5 78.5t15 85.5l173 -37q-7 -26 -11 -62t-4 -66q0 -47 20 -75t77 -42.5t164 -14.5q143 0 197.5 20.5t57.5 59.5q-142 11 -216 85l125 111
q23 -23 51 -32t82 -9h210q10 0 15 -20.5z" />
    <glyph glyph-name="uniFEF2" unicode="&#x64a;" horiz-adv-x="992" arabic-form="final" 
d="M1001 135.5q5 -20.5 5 -56.5q0 -37 -5 -58t-15 -21h-60q-7 -121 -111 -178.5t-332 -57.5q-214 0 -328.5 69.5t-114.5 220.5q0 33 5 78.5t15 85.5l173 -37q-7 -26 -11 -62t-4 -66q0 -47 20 -75t77 -42.5t164 -14.5q143 0 197.5 20.5t57.5 59.5q-142 11 -216 85l125 111
q23 -23 51 -32t82 -9h210q10 0 15 -20.5zM528.939 -427.245q-20.7461 20.7451 -20.7461 53.1094q0 32.3633 20.7461 53.1094q20.7461 20.7451 52.2793 20.7451t52.2793 -20.7451q20.7461 -20.7461 20.7461 -53.1094q0 -32.3643 -20.7461 -53.1094
q-20.7461 -20.7461 -52.2793 -20.7461t-52.2793 20.7461zM356.939 -427.245q-20.7461 20.7451 -20.7461 53.1094q0 32.3633 20.7461 53.1094q20.7461 20.7451 52.2793 20.7451t52.2793 -20.7451q20.7461 -20.7461 20.7461 -53.1094q0 -32.3643 -20.7461 -53.1094
q-20.7461 -20.7461 -52.2793 -20.7461t-52.2793 20.7461z" />
    <glyph glyph-name="uniFEF3" unicode="&#x64a;" horiz-adv-x="349" arabic-form="initial" 
d="M284 515v-515h-284q-10 0 -15 21t-5 58q0 36 5 56.5t15 20.5h107v359h177zM229.939 -205.245q-20.7461 20.7451 -20.7461 53.1094q0 32.3633 20.7461 53.1094q20.7461 20.7451 52.2793 20.7451t52.2793 -20.7451q20.7461 -20.7461 20.7461 -53.1094
q0 -32.3643 -20.7461 -53.1094q-20.7461 -20.7461 -52.2793 -20.7461t-52.2793 20.7461zM57.9395 -205.245q-20.7461 20.7451 -20.7461 53.1094q0 32.3633 20.7461 53.1094q20.7461 20.7451 52.2793 20.7451t52.2793 -20.7451q20.7461 -20.7461 20.7461 -53.1094
q0 -32.3643 -20.7461 -53.1094q-20.7461 -20.7461 -52.2793 -20.7461t-52.2793 20.7461z" />
    <glyph glyph-name="uniFEF4" unicode="&#x64a;" horiz-adv-x="436" arabic-form="medial" 
d="M451 135.5q5 -20.5 5 -56.5q0 -37 -5 -58t-15 -21h-52q-93 0 -149 51q-57 -51 -158 -51h-77q-10 0 -15 21t-5 58q0 36 5 56.5t15 20.5h52q41 0 57.5 19.5t16.5 63.5v276h178v-277q0 -30 -5 -62q20 -20 57 -20h80q10 0 15 -20.5zM249.939 -205.245
q-20.7461 20.7451 -20.7461 53.1094q0 32.3633 20.7461 53.1094q20.7461 20.7451 52.2793 20.7451t52.2793 -20.7451q20.7461 -20.7461 20.7461 -53.1094q0 -32.3643 -20.7461 -53.1094q-20.7461 -20.7461 -52.2793 -20.7461t-52.2793 20.7461zM77.9395 -205.245
q-20.7461 20.7451 -20.7461 53.1094q0 32.3633 20.7461 53.1094q20.7461 20.7451 52.2793 20.7451t52.2793 -20.7451q20.7461 -20.7461 20.7461 -53.1094q0 -32.3643 -20.7461 -53.1094q-20.7461 -20.7461 -52.2793 -20.7461t-52.2793 20.7461z" />
    <glyph glyph-name=".notdef" horiz-adv-x="587" 
d="M40 700h507v-700h-507v700zM467 70v560h-347v-560h347z" />
    <glyph glyph-name=".null" 
 />
    <glyph glyph-name="nonmarkingreturn" unicode="&#xd;" horiz-adv-x="300" 
 />
    <glyph glyph-name="space" unicode=" " horiz-adv-x="270" 
 />
    <glyph glyph-name="exclam" unicode="!" horiz-adv-x="258" 
d="M220 697v-179l-31 -275h-107l-31 275v179h169zM194 141q24 -24 24 -62t-24 -62.5t-62 -24.5q-37 0 -61 24.5t-24 62.5t23.5 62t61.5 24t62 -24z" />
    <glyph glyph-name="quotedbl" unicode="&#x22;" horiz-adv-x="446" 
d="M194 701v-278h-134v278h134zM386 701v-278h-134v278h134z" />
    <glyph glyph-name="numbersign" unicode="#" horiz-adv-x="736" 
d="M573 415l-18 -138h134l-14 -124h-135l-19 -153h-128l19 153h-136l-19 -153h-128l19 153h-134l14 124h135l18 138h-134l14 125h135l20 161h128l-20 -161h136l20 161h128l-20 -161h134l-14 -125h-135zM445 415h-136l-18 -138h136z" />
    <glyph glyph-name="dollar" unicode="$" horiz-adv-x="646" 
d="M560.5 62.5q-60.5 -55.5 -159.5 -69.5v-148h-133v149q-71 11 -136.5 39t-115.5 70l71 143q53 -47 125.5 -77t128.5 -30q41 0 64.5 15t23.5 44q0 24 -17.5 40t-44 25.5t-74.5 22.5q-72 20 -119 40.5t-80.5 62t-33.5 110.5q0 84 55.5 139.5t152.5 70.5v142h133v-140
q60 -7 117 -26.5t102 -48.5l-69 -146q-56 33 -119.5 54t-106.5 21q-34 0 -53.5 -12.5t-19.5 -36.5q0 -23 17 -38.5t42 -25t74 -24.5q73 -21 120.5 -42t81.5 -64.5t34 -113.5q0 -90 -60.5 -145.5z" />
    <glyph glyph-name="percent" unicode="%" horiz-adv-x="994" 
d="M362 646.5q53 -57.5 53 -154.5q0 -98 -53 -155.5t-143 -57.5t-143.5 57.5t-53.5 155.5q0 97 53.5 154.5t143.5 57.5t143 -57.5zM158 577q-22 -31 -22 -85t22 -85t61 -31t61 31t22 85t-22 85t-61 31t-61 -31zM806 701l-498 -701h-124l499 701h123zM919 363.5
q53 -57.5 53 -154.5q0 -98 -53 -155.5t-143 -57.5t-143.5 57.5t-53.5 155.5q0 97 53.5 154.5t143.5 57.5t143 -57.5zM715 294q-22 -31 -22 -85t22 -85t61 -31t61 31t22 85t-22 85t-61 31t-61 -31z" />
    <glyph glyph-name="ampersand" unicode="&#x26;" horiz-adv-x="688" 
d="M591 -31l-37 36q-22 20 -61 59q-91 -72 -198 -72q-68 0 -123 26t-86 72.5t-31 105.5q0 65 37 108.5t101 78.5q-31 44 -44.5 80.5t-13.5 74.5q0 78 54.5 124t146.5 46q59 0 105 -20t71.5 -56t25.5 -82q0 -66 -43 -109t-120 -83q39 -44 106 -110q27 48 46 111l113 -82
q-26 -69 -63 -122l37 -35l67 -63zM308 443q44 24 67.5 48t23.5 57q0 26 -16.5 42.5t-44.5 16.5q-30 0 -47.5 -19t-17.5 -49q0 -42 35 -96zM401 154q-80 78 -139 144q-30 -19 -46 -40.5t-16 -47.5q0 -41 29 -66.5t73 -25.5q50 0 99 36z" />
    <glyph glyph-name="quotesingle" unicode="'" horiz-adv-x="254" 
d="M194 701v-278h-134v278h134z" />
    <glyph glyph-name="parenleft" unicode="(" horiz-adv-x="345" 
d="M256 539q-32 -112 -32 -230t32 -230t89 -203h-160q-62 88 -95 199.5t-33 233.5t33 233.5t95 199.5h160q-57 -91 -89 -203z" />
    <glyph glyph-name="parenright" unicode=")" horiz-adv-x="345" 
d="M160 742q62 -88 95 -199.5t33 -233.5t-33 -233.5t-95 -199.5h-160q57 91 89 203t32 230t-32 230t-89 203h160z" />
    <glyph glyph-name="asterisk" unicode="*" horiz-adv-x="381" 
d="M235 719l-2 -94l81 48l45 -78l-84 -45l84 -46l-45 -79l-81 49l2 -94h-89l2 95l-81 -49l-45 78l83 46l-83 45l45 79l81 -49l-2 94h89z" />
    <glyph glyph-name="plus" unicode="+" horiz-adv-x="511" 
d="M478 270h-166v-166h-113v166h-167v114h167v167h113v-167h166v-114z" />
    <glyph glyph-name="comma" unicode="," horiz-adv-x="243" 
d="M183.5 141.5q24.5 -22.5 24.5 -62.5q0 -30 -23 -68l-80 -133h-85l52 133q-34 24 -34 68q0 37 24 61t61 24q36 0 60.5 -22.5z" />
    <glyph glyph-name="hyphen" unicode="-" horiz-adv-x="375" 
d="M320 364v-114h-265v114h265z" />
    <glyph glyph-name="period" unicode="." horiz-adv-x="245" 
d="M184 141q24 -24 24 -62t-24 -62.5t-62 -24.5q-37 0 -61 24.5t-24 62.5t23.5 62t61.5 24t62 -24z" />
    <glyph glyph-name="slash" unicode="/" horiz-adv-x="355" 
d="M436 810l-324 -920h-150l324 920h150z" />
    <glyph glyph-name="zero" unicode="0" horiz-adv-x="703" 
d="M582.5 615q80.5 -92 80.5 -264t-80.5 -264.5t-229.5 -92.5q-151 0 -231.5 92.5t-80.5 264.5t80.5 264t231.5 92q149 0 229.5 -92zM258 519.5q-29 -51.5 -29 -168.5q0 -118 29 -169.5t95 -51.5q64 0 93.5 52t29.5 169t-29.5 168.5t-93.5 51.5q-66 0 -95 -51.5z" />
    <glyph glyph-name="one" unicode="1" horiz-adv-x="404" 
d="M303 701v-701h-183v551h-135v150h318z" />
    <glyph glyph-name="two" unicode="2" horiz-adv-x="605" 
d="M572 147v-147h-534l-1 121l255 262q30 31 49 62t19 53q0 29 -21 44.5t-59 15.5q-42 0 -93.5 -23.5t-99.5 -65.5l-70 135q145 105 291 105q70 0 125.5 -23t87 -65t31.5 -96t-35.5 -111.5t-100.5 -122.5l-143 -144h299z" />
    <glyph glyph-name="three" unicode="3" horiz-adv-x="603" 
d="M518.5 350.5q51.5 -50.5 51.5 -129.5q0 -67 -35 -119t-99 -81t-150 -29q-77 0 -151.5 23.5t-125.5 62.5l68 129q44 -37 94 -56t100 -19q58 0 89 22.5t31 64.5t-31 64t-90 22h-118v100l162 156h-268v140h490v-106l-191 -175l37 -7q85 -12 136.5 -62.5z" />
    <glyph glyph-name="four" unicode="4" horiz-adv-x="607" 
d="M574 151h-90v-151h-168v151h-317v124l199 426h174l-187 -411h131v149h168v-149h90v-139z" />
    <glyph glyph-name="five" unicode="5" horiz-adv-x="625" 
d="M462.5 420q61.5 -27 95 -75t33.5 -110q0 -73 -35 -128t-100 -85t-151 -30q-70 0 -144.5 24t-132.5 63l68 132q97 -78 189 -78q52 0 81 23.5t29 64.5t-28.5 62.5t-85.5 21.5q-133 0 -192 -4v400h471v-147h-303v-107h63q81 0 142.5 -27z" />
    <glyph glyph-name="six" unicode="6" horiz-adv-x="630" 
d="M432.5 558.5q-37.5 11.5 -77.5 11.5q-81 0 -121.5 -48.5t-38.5 -135.5q53 75 163 75q67 0 117.5 -28.5t78 -80t27.5 -119.5q0 -73 -32 -127.5t-90.5 -84t-135.5 -29.5q-92 0 -159 42t-103 120.5t-36 184.5q0 111 39.5 195t111.5 129.5t168 45.5q58 0 118.5 -16t104.5 -42
l-68 -126q-29 22 -66.5 33.5zM241.5 302.5q-27.5 -27.5 -27.5 -70.5q0 -42 26 -69t76 -27q47 0 74 25.5t27 72.5q0 45 -26 70.5t-72 25.5q-50 0 -77.5 -27.5z" />
    <glyph glyph-name="seven" unicode="7" horiz-adv-x="589" 
d="M572 701v-127l-264 -574h-194l255 554h-194l-1 -99h-161v246h559z" />
    <glyph glyph-name="eight" unicode="8" horiz-adv-x="631" 
d="M482 657.5q67 -51.5 67 -138.5q0 -44 -22.5 -82.5t-60.5 -61.5q55 -25 87 -72.5t32 -105.5q0 -62 -34.5 -108.5t-98.5 -71.5t-149 -25t-148.5 25t-98.5 70.5t-35 106.5q0 59 35 107.5t93 73.5q-42 25 -67 65t-25 84q0 56 30 98t85.5 64.5t129.5 22.5q113 0 180 -51.5z
M233.5 566q-24.5 -20 -24.5 -57q0 -36 24.5 -55.5t69.5 -19.5q46 0 70 19.5t24 55.5q0 37 -24 57t-70 20q-45 0 -69.5 -20zM221.5 277.5q-28.5 -22.5 -28.5 -64.5t28.5 -64.5t81.5 -22.5t82 22.5t29 64.5t-29 64.5t-82 22.5t-81.5 -22.5z" />
    <glyph glyph-name="nine" unicode="9" horiz-adv-x="629" 
d="M172 142.5q37 -11.5 77 -11.5q80 0 121 48.5t39 136.5q-53 -76 -163 -76q-67 0 -117 28.5t-77.5 80t-27.5 119.5q0 73 32 127.5t90 84t135 29.5q92 0 159 -42t103 -120t36 -185q0 -111 -39.5 -195t-111.5 -129.5t-168 -45.5q-58 0 -118 16t-104 42l67 126
q30 -22 67 -33.5zM215 539.5q-26 -25.5 -26 -72.5q0 -45 25 -70.5t71 -25.5q50 0 77.5 27.5t27.5 71.5q0 41 -26 68t-76 27q-47 0 -73 -25.5z" />
    <glyph glyph-name="colon" unicode=":" horiz-adv-x="245" 
d="M184 438q24 -24 24 -62t-24 -62.5t-62 -24.5q-37 0 -61 24.5t-24 62.5t23.5 62t61.5 24t62 -24zM184 141q24 -24 24 -62t-24 -62.5t-62 -24.5q-37 0 -61 24.5t-24 62.5t23.5 62t61.5 24t62 -24z" />
    <glyph glyph-name="semicolon" unicode=";" horiz-adv-x="244" 
d="M184 438q24 -24 24 -62t-24 -62.5t-62 -24.5q-37 0 -61 24.5t-24 62.5t23.5 62t61.5 24t62 -24zM183.5 141.5q24.5 -22.5 24.5 -62.5q0 -30 -23 -68l-80 -133h-85l52 133q-34 24 -34 68q0 37 24 61t61 24q36 0 60.5 -22.5z" />
    <glyph glyph-name="less" unicode="&#x3c;" horiz-adv-x="511" 
d="M478 455l-331 -131l331 -131v-127l-446 185v146l446 185v-127z" />
    <glyph glyph-name="equal" unicode="=" horiz-adv-x="511" 
d="M478 492v-114h-446v114h446zM478 276v-114h-446v114h446z" />
    <glyph glyph-name="greater" unicode="&#x3e;" horiz-adv-x="511" 
d="M33 201l331 131l-331 131v127l446 -185v-146l-446 -185v127z" />
    <glyph glyph-name="question" unicode="?" horiz-adv-x="474" 
d="M84 643q61 61 168 61q101 0 159 -46t58 -129q0 -53 -24 -88t-70 -75q-40 -36 -59 -62.5t-19 -63.5h-133q0 40 11.5 70t28 49.5t42.5 44.5q29 27 43 47.5t14 48.5q0 61 -68 61q-75 0 -76 -89l-137 1q1 109 62 170zM289 141q24 -24 24 -62t-24 -62.5t-62 -24.5
q-37 0 -61 24.5t-24 62.5t23.5 62t61.5 24t62 -24z" />
    <glyph glyph-name="at" unicode="@" horiz-adv-x="912" 
d="M709 110q21 0 40 20.5t30.5 57.5t11.5 83q0 96 -39.5 172.5t-114 121t-175.5 44.5q-92 0 -170.5 -46t-124 -124t-45.5 -171q0 -92 43 -166t118 -116t167 -42q46 0 97 15.5t91 45.5l46 -80q-43 -33 -109 -53.5t-125 -20.5q-120 0 -217.5 54.5t-153.5 149.5t-56 213
q0 120 58.5 218.5t159 156t221.5 57.5t218.5 -55t153 -152.5t55.5 -218.5q0 -73 -24.5 -128.5t-68.5 -86t-99 -30.5q-47 0 -77.5 19t-39.5 58l-2 12q-28 -40 -66.5 -59.5t-82.5 -19.5q-56 0 -106.5 29t-81 82t-30.5 120q0 64 25.5 118t72 85.5t106.5 31.5q46 0 83 -20.5
t51 -41.5v51h123v-335q0 -49 37 -49zM372.5 357q-26.5 -34 -26.5 -82q0 -51 26.5 -87.5t69.5 -36.5q45 0 72 35.5t27 87.5q0 50 -27.5 83.5t-73.5 33.5q-41 0 -67.5 -34z" />
    <glyph glyph-name="A" unicode="A" horiz-adv-x="773" 
d="M535 124h-303l-49 -124h-188l301 701h188l294 -701h-195zM481 264l-96 250l-98 -250h194z" />
    <glyph glyph-name="B" unicode="B" horiz-adv-x="716" 
d="M538.5 679.5q58.5 -21.5 90.5 -61.5t32 -94q0 -55 -32.5 -96t-88.5 -56q67 -13 105.5 -61t38.5 -116q0 -59 -33 -103.5t-94 -68t-143 -23.5h-346v701h333q79 0 137.5 -21.5zM451 440.5q22 18.5 22 51.5q0 32 -22 49.5t-60 16.5h-140v-136h140q38 0 60 18.5zM467 162
q28 20 28 56q0 33 -28 52.5t-76 18.5h-140v-147h140q48 0 76 20z" />
    <glyph glyph-name="C" unicode="C" horiz-adv-x="692" 
d="M494 531.5q-47 25.5 -93 25.5q-53 0 -96.5 -26.5t-68.5 -73t-25 -103.5t25 -103.5t68.5 -73t96.5 -26.5q43 0 90 22t84 60l107 -115q-57 -60 -135.5 -95.5t-155.5 -35.5q-104 0 -188 48t-132 131t-48 186q0 102 49 184t134.5 129t191.5 47q78 0 154 -32.5t129 -88.5
l-106 -128q-34 43 -81 68.5z" />
    <glyph glyph-name="D" unicode="D" horiz-adv-x="766" 
d="M564.5 657q84.5 -44 131.5 -123.5t47 -182.5t-47.5 -183t-134 -124t-198.5 -44h-295v701h302q110 0 194.5 -44zM469 173q41 25 64 71t23 105q0 60 -24.5 106t-67.5 71.5t-98 25.5h-115v-404h124q53 0 94 25z" />
    <glyph glyph-name="E" unicode="E" horiz-adv-x="675" 
d="M621 701v-146h-370v-131h334v-145l-334 -1v-132h380v-146h-563v701h553z" />
    <glyph glyph-name="F" unicode="F" horiz-adv-x="607" 
d="M592 701l-1 -146h-340v-156h314v-146h-314v-253h-183v701h524z" />
    <glyph glyph-name="G" unicode="G" horiz-adv-x="743" 
d="M532 358h158v-279q-56 -41 -137.5 -66.5t-154.5 -25.5q-106 0 -191.5 47.5t-134.5 130.5t-49 186q0 102 50.5 184.5t139 129.5t197.5 47q78 0 156 -28.5t132 -76.5l-104 -128q-38 36 -87.5 57t-97.5 21q-56 0 -101 -27t-71 -74t-26 -105q0 -59 26 -106.5t72 -74.5
t102 -27q53 0 121 34v181z" />
    <glyph glyph-name="H" unicode="H" horiz-adv-x="785" 
d="M251 701v-286h283v286h183v-701h-183v269h-283v-269h-183v701h183z" />
    <glyph glyph-name="I" unicode="I" horiz-adv-x="319" 
d="M251 701v-701h-183v701h183z" />
    <glyph glyph-name="J" unicode="J" horiz-adv-x="539" 
d="M417.5 54q-65.5 -62 -178.5 -62q-147 0 -244 113l84 125q37 -38 76 -58.5t71 -20.5q34 0 53.5 21t19.5 60v318h-240v151h424v-473q0 -112 -65.5 -174z" />
    <glyph glyph-name="K" unicode="K" horiz-adv-x="749" 
d="M523 0l-184 272l-88 -98v-174h-183v701h183v-304l263 304h212l-260 -289l276 -412h-219z" />
    <glyph glyph-name="L" unicode="L" horiz-adv-x="563" 
d="M251 701v-545h297v-156h-480v701h183z" />
    <glyph glyph-name="M" unicode="M" horiz-adv-x="939" 
d="M267 701l203 -410l202 410h199v-701h-162l-1 444l-179 -374h-118l-180 374v-444h-163v701h199z" />
    <glyph glyph-name="N" unicode="N" horiz-adv-x="786" 
d="M717 701v-701h-160l-318 419v-419h-171v701h161l319 -422l-1 422h170z" />
    <glyph glyph-name="O" unicode="O" horiz-adv-x="804" 
d="M595.5 665q86.5 -47 136 -129t49.5 -184q0 -103 -49.5 -186t-136 -131t-193.5 -48t-193.5 47.5t-136 131t-49.5 186.5q0 102 49.5 184t136 129t193.5 47t193.5 -47zM307.5 530q-44.5 -27 -70.5 -74.5t-26 -104.5q0 -58 26.5 -105.5t70.5 -75t96 -27.5t95.5 27.5t68.5 75
t25 105.5q0 57 -25 104.5t-68.5 74.5t-95.5 27t-96.5 -27z" />
    <glyph glyph-name="P" unicode="P" horiz-adv-x="680" 
d="M584 636.5q74 -64.5 74 -181.5q0 -124 -74 -192.5t-208 -68.5h-125v-194h-183v701h308q134 0 208 -64.5zM453.5 368q30.5 28 30.5 81q0 51 -30.5 78.5t-86.5 27.5h-116v-215h116q56 0 86.5 28z" />
    <glyph glyph-name="Q" unicode="Q" horiz-adv-x="808" 
d="M816 -89q-40 -36 -95.5 -57t-108.5 -21q-71 0 -130 41t-94 113q-104 3 -187 51.5t-130.5 130.5t-47.5 183q0 102 49.5 184t136 129t193.5 47t193.5 -47t136 -129t49.5 -184q0 -116 -62 -206t-166 -131q37 -43 79 -43q24 0 55.5 14t64.5 38zM237.5 245.5
q26.5 -47.5 70.5 -75t96 -27.5t95.5 27.5t68.5 75t25 105.5q0 57 -25 104.5t-68.5 74.5t-95.5 27t-96.5 -27t-70.5 -74.5t-26 -104.5q0 -58 26.5 -105.5z" />
    <glyph glyph-name="R" unicode="R" horiz-adv-x="724" 
d="M489 0l-102 194h-4h-132v-194h-183v701h315q139 0 215.5 -64.5t76.5 -181.5q0 -79 -32 -136.5t-93 -89.5l146 -229h-207zM251 340h133q56 0 86.5 28t30.5 81q0 51 -30.5 78.5t-86.5 27.5h-133v-215z" />
    <glyph glyph-name="S" unicode="S" horiz-adv-x="646" 
d="M431.5 544q-63.5 21 -106.5 21q-34 0 -53.5 -12.5t-19.5 -36.5q0 -23 17 -38.5t42 -25t74 -24.5q73 -21 120.5 -42t81.5 -64.5t34 -113.5t-37 -119.5t-101.5 -74.5t-143.5 -25q-87 0 -173.5 30.5t-149.5 83.5l71 143q53 -47 125.5 -77t128.5 -30q41 0 64.5 15t23.5 44
q0 24 -17.5 40t-44 25.5t-74.5 22.5q-72 20 -119 40.5t-80.5 62t-33.5 110.5q0 65 34.5 114t98 75.5t147.5 26.5q76 0 150 -21.5t130 -57.5l-69 -146q-56 33 -119.5 54z" />
    <glyph glyph-name="T" unicode="T" horiz-adv-x="614" 
d="M608 701v-151h-210v-550h-183v550h-208v151h601z" />
    <glyph glyph-name="U" unicode="U" horiz-adv-x="749" 
d="M278 183q39 -40 99 -40q59 0 95.5 39.5t36.5 106.5v412h183v-412q0 -91 -38.5 -159.5t-110 -105.5t-167.5 -37t-168.5 37t-112 105.5t-39.5 159.5v412h183v-412q0 -66 39 -106z" />
    <glyph glyph-name="V" unicode="V" horiz-adv-x="732" 
d="M195 701l175 -507l176 507h188l-274 -701h-190l-272 701h197z" />
    <glyph glyph-name="W" unicode="W" horiz-adv-x="1113" 
d="M1115 701l-237 -701h-188l-133 477l-135 -477h-188l-236 701h197l138 -512l138 512h179l140 -512l137 512h188z" />
    <glyph glyph-name="X" unicode="X" horiz-adv-x="738" 
d="M233 701l131 -199l132 199h216l-231 -335l251 -366h-219l-149 217l-146 -217h-214l249 357l-233 344h213z" />
    <glyph glyph-name="Y" unicode="Y" horiz-adv-x="684" 
d="M436 224v-224h-183v219l-258 482h183l166 -301l162 301h183z" />
    <glyph glyph-name="Z" unicode="Z" horiz-adv-x="676" 
d="M642 701v-120l-370 -434h376v-147h-621v119l370 435h-357v147h602z" />
    <glyph glyph-name="bracketleft" unicode="[" horiz-adv-x="359" 
d="M344 742v-134h-120v-598h120v-134h-278v866h278z" />
    <glyph glyph-name="backslash" unicode="\" horiz-adv-x="355" 
d="M393 -110h-150l-324 920h150z" />
    <glyph glyph-name="bracketright" unicode="]" horiz-adv-x="359" 
d="M293 -124h-278v134h120v598h-120v134h278v-866z" />
    <glyph glyph-name="asciicircum" unicode="^" horiz-adv-x="578" 
d="M420 137.922l-131 286.736l-131 -286.736h-127l185 386.357h146l185 -386.357h-127z" />
    <glyph glyph-name="underscore" unicode="_" horiz-adv-x="585" 
d="M585 -106v-98h-585v98h585z" />
    <glyph glyph-name="grave" unicode="`" horiz-adv-x="360" 
d="M296 609l-123 -10l-131 115l148 56z" />
    <glyph glyph-name="a" unicode="a" horiz-adv-x="601" 
d="M486 496.5q62 -51.5 63 -144.5v-352h-175v61q-54 -69 -163 -69q-86 0 -135.5 46.5t-49.5 122.5q0 77 53.5 120t153.5 44h141v6q0 39 -26.5 60t-76.5 21q-34 0 -76.5 -11t-85.5 -32l-49 120q66 30 126.5 44.5t125.5 14.5q112 0 174 -51.5zM336 132.5q30 19.5 38 50.5v47
h-106q-75 0 -75 -56q0 -28 19.5 -44.5t53.5 -16.5q40 0 70 19.5z" />
    <glyph glyph-name="b" unicode="b" horiz-adv-x="686" 
d="M542 512.5q57 -34.5 88.5 -98t31.5 -146.5q0 -82 -30.5 -144t-87 -96t-130.5 -34q-51 0 -92.5 19.5t-70.5 56.5v-70h-178v742h178v-271q59 76 159 76q75 0 132 -34.5zM450.5 175q32.5 37 32.5 97t-32.5 97.5t-84.5 37.5q-51 0 -83 -37.5t-32 -97.5t32 -97t83 -37
q52 0 84.5 37z" />
    <glyph glyph-name="c" unicode="c" horiz-adv-x="562" 
d="M311 400q-48 0 -78 -36.5t-30 -94.5q0 -59 30 -95t78 -36q74 0 106 61l131 -75q-32 -62 -96 -96t-150 -34q-83 0 -146 34t-97.5 96t-34.5 144q0 83 35 146.5t98.5 98t146.5 34.5q81 0 144 -33.5t98 -94.5l-129 -75q-38 56 -106 56z" />
    <glyph glyph-name="d" unicode="d" horiz-adv-x="687" 
d="M614 742v-742h-178v70q-28 -38 -68.5 -57.5t-91.5 -19.5q-75 0 -132 35t-88.5 98.5t-31.5 146.5q0 82 31 144t87 96t130 34q52 0 93.5 -20t70.5 -57v272h178zM404 170.5q32 37.5 32 97.5q0 61 -32 98t-84 37t-84.5 -37.5t-32.5 -97.5t32.5 -97.5t84.5 -37.5t84 37.5z" />
    <glyph glyph-name="e" unicode="e" horiz-adv-x="603" 
d="M509 469q71 -78 71 -214q0 -21 -1 -32h-376q13 -46 45 -70.5t78 -24.5q35 0 67.5 14t59.5 41l93 -93q-42 -47 -101.5 -71.5t-134.5 -24.5q-87 0 -152 34t-99.5 96t-34.5 144q0 83 35 146.5t99 98t148 34.5q132 0 203 -78zM407 318q0 47 -27.5 75.5t-72.5 28.5
q-42 0 -70.5 -28t-37.5 -76h208z" />
    <glyph glyph-name="f" unicode="f" horiz-adv-x="396" 
d="M294 593q-17 -15 -17 -43v-35h120v-118h-120v-397h-177v397h-73v118h73v50q0 86 57.5 135.5t147.5 49.5q59 0 116 -21l-23 -135q-40 14 -60 14q-27 0 -44 -15z" />
    <glyph glyph-name="g" unicode="g" horiz-adv-x="648" 
d="M586 541v-493q0 -75 -37 -131.5t-103.5 -87t-153.5 -30.5q-68 0 -131 19t-111 51l62 123q37 -25 80 -39t87 -14q60 0 95 28t35 76v58q-54 -71 -154 -71q-67 0 -119.5 32.5t-82 92t-29.5 136.5q0 76 28.5 134t80.5 90t118 32q50 0 90.5 -18.5t67.5 -53.5v66h177zM379 195
q30 35 30 91q0 57 -30 92t-79 35t-79.5 -35.5t-30.5 -91.5t30.5 -91t79.5 -35t79 35z" />
    <glyph glyph-name="h" unicode="h" horiz-adv-x="679" 
d="M573.5 492q53.5 -56 53.5 -151v-341h-178v290q0 46 -24.5 72.5t-67.5 26.5q-49 -1 -77.5 -34.5t-28.5 -87.5v-267h-178v742h178v-289q29 47 74.5 71t104.5 24q90 0 143.5 -56z" />
    <glyph glyph-name="i" unicode="i" horiz-adv-x="313" 
d="M245 541v-541h-177v541h177zM224.5 763.5q26.5 -26.5 26.5 -68.5q0 -41 -26.5 -68t-67.5 -27t-67.5 27t-26.5 68q0 42 26.5 68.5t67.5 26.5t67.5 -26.5z" />
    <glyph glyph-name="j" unicode="j" horiz-adv-x="312" 
d="M16 -60q26 0 40 17t14 50v534h178v-561q0 -84 -51.5 -132.5t-139.5 -48.5q-63 0 -120 21l35 127q26 -7 44 -7zM225.5 763.5q26.5 -26.5 26.5 -68.5q0 -41 -26.5 -68t-67.5 -27t-67.5 27t-26.5 68q0 42 26.5 68.5t67.5 26.5t67.5 -26.5z" />
    <glyph glyph-name="k" unicode="k" horiz-adv-x="633" 
d="M306 204l-55 -57v-147h-178v742h178v-384l173 183h202l-198 -209l202 -332h-210z" />
    <glyph glyph-name="l" unicode="l" horiz-adv-x="324" 
d="M251 742v-742h-178v742h178z" />
    <glyph glyph-name="m" unicode="m" horiz-adv-x="1037" 
d="M931 492q53 -56 53 -151v-341h-178v290q0 46 -24 72.5t-65 26.5q-47 -1 -74.5 -34.5t-27.5 -87.5v-267h-178v290q0 46 -24 72.5t-65 26.5q-47 -1 -75 -34.5t-28 -87.5v-267h-177v541h177v-89q28 47 72.5 71.5t103.5 24.5q66 0 113 -32t67 -89q26 60 74.5 90.5t114.5 30.5
q88 0 141 -56z" />
    <glyph glyph-name="n" unicode="n" horiz-adv-x="674" 
d="M567.5 492q53.5 -56 53.5 -151v-341h-177v290q0 46 -25 72.5t-67 26.5q-44 -1 -72.5 -29t-33.5 -74v-286h-178v541h178v-88q29 47 74.5 71t104.5 24q89 0 142.5 -56z" />
    <glyph glyph-name="o" unicode="o" horiz-adv-x="638" 
d="M474 512.5q67 -34.5 104 -97t37 -144.5q0 -83 -37 -145.5t-104 -97t-155 -34.5t-155 34.5t-103.5 97t-36.5 145.5q0 82 36.5 144.5t103.5 97t155 34.5t155 -34.5zM235 366q-32 -37 -32 -97q0 -61 32 -98t84 -37q53 0 85 37t32 98q0 60 -32.5 97t-84.5 37t-84 -37z" />
    <glyph glyph-name="p" unicode="p" horiz-adv-x="686" 
d="M542 512.5q57 -34.5 88.5 -98t31.5 -146.5q0 -82 -30.5 -144t-87 -96t-130.5 -34q-51 0 -92.5 19.5t-70.5 56.5v-264h-178v735h178v-70q59 76 159 76q75 0 132 -34.5zM450.5 175q32.5 37 32.5 97t-32.5 97.5t-84.5 37.5q-51 0 -83 -37.5t-32 -97.5t32 -97t83 -37
q52 0 84.5 37z" />
    <glyph glyph-name="q" unicode="q" horiz-adv-x="687" 
d="M614 541v-735h-178v264q-28 -38 -68.5 -57.5t-91.5 -19.5q-75 0 -132 35t-88.5 98.5t-31.5 146.5q0 82 31 144t87 96t130 34q52 0 93.5 -20t70.5 -57v71h178zM404 170.5q32 37.5 32 97.5q0 61 -32 98t-84 37t-84.5 -37.5t-32.5 -97.5t32.5 -97.5t84.5 -37.5t84 37.5z" />
    <glyph glyph-name="r" unicode="r" horiz-adv-x="430" 
d="M318.5 523q44.5 25 101.5 25v-163q-9 1 -27 1q-63 0 -102 -29.5t-45 -80.5v-276h-178v541h178v-90q28 47 72.5 72z" />
    <glyph glyph-name="s" unicode="s" horiz-adv-x="517" 
d="M257 425q-23 0 -37 -8.5t-14 -25.5q0 -18 22 -29t70 -24q58 -17 96.5 -33.5t66.5 -50t28 -87.5q0 -82 -63.5 -128.5t-165.5 -46.5q-69 0 -132 19.5t-112 57.5l56 115q46 -32 96.5 -49.5t95.5 -17.5q26 0 41.5 8.5t15.5 24.5q0 20 -22.5 31t-70.5 24q-57 17 -94 33.5
t-64.5 49.5t-27.5 86q0 82 62 128.5t160 46.5q59 0 116.5 -16t108.5 -47l-60 -116q-105 55 -172 55z" />
    <glyph glyph-name="t" unicode="t" horiz-adv-x="437" 
d="M420 28q-30 -17 -69 -26.5t-79 -9.5q-80 0 -129.5 46t-49.5 127v232h-75v118h75v150h177v-150h140v-118h-140v-204q0 -57 47 -57q29 0 69 18z" />
    <glyph glyph-name="u" unicode="u" horiz-adv-x="664" 
d="M596 541v-541h-178v88q-55 -94 -173 -96q-88 0 -140.5 56.5t-52.5 150.5v342h178v-291q0 -46 23.5 -72t63.5 -26q47 1 74 34.5t27 87.5v267h178z" />
    <glyph glyph-name="v" unicode="v" horiz-adv-x="575" 
d="M178 541l113 -376l114 376h178l-203 -541h-183l-202 541h183z" />
    <glyph glyph-name="w" unicode="w" horiz-adv-x="941" 
d="M176 541l108 -366l106 366h170l107 -366l108 366h174l-198 -541h-176l-103 334l-104 -334h-176l-197 541h181z" />
    <glyph glyph-name="x" unicode="x" horiz-adv-x="611" 
d="M219 541l87 -152l94 152h195l-171 -264l183 -277h-205l-96 165l-107 -165h-196l184 277l-172 264h204z" />
    <glyph glyph-name="y" unicode="y" horiz-adv-x="584" 
d="M277 -165.5q-52 -36.5 -129 -36.5q-45 0 -84 13.5t-76 42.5l74 123q19 -16 36 -23t36 -7q44 0 65 41l13 25l-224 528h183l129 -352l115 352h177l-232 -594q-31 -76 -83 -112.5z" />
    <glyph glyph-name="z" unicode="z" horiz-adv-x="555" 
d="M517 540v-108l-260 -296h270v-136h-493v108l260 296h-251v137z" />
    <glyph glyph-name="braceleft" unicode="{" horiz-adv-x="363" 
d="M235.5 350q-22.5 -25 -79.5 -41q57 -16 79.5 -41t22.5 -82v-114q0 -36 18.5 -50t68.5 -14v-134h-68q-66 0 -104.5 13.5t-55.5 44.5t-17 84v182q0 23 -8.5 32.5t-28.5 9.5h-39v138h39q20 0 28.5 9.5t8.5 32.5v181q0 54 17 85t55.5 44.5t104.5 13.5h68v-134
q-50 0 -68.5 -14.5t-18.5 -49.5v-115q0 -56 -22.5 -81z" />
    <glyph glyph-name="bar" unicode="|" horiz-adv-x="302" 
d="M217 802v-911h-132v911h132z" />
    <glyph glyph-name="braceright" unicode="}" horiz-adv-x="363" 
d="M339 378v-138h-39q-20 0 -28.5 -9.5t-8.5 -32.5v-182q0 -53 -17 -84t-55.5 -44.5t-104.5 -13.5h-68v134q50 0 68.5 14t18.5 50v114q0 57 22.5 82t79.5 41q-57 16 -79.5 41t-22.5 81v115q0 35 -18.5 49.5t-68.5 14.5v134h68q66 0 104.5 -13.5t55.5 -44.5t17 -85v-181
q0 -23 8.5 -32.5t28.5 -9.5h39z" />
    <glyph glyph-name="asciitilde" unicode="~" horiz-adv-x="511" 
d="M428 278q-28 -43 -86 -43q-27 0 -48 8.5t-45 23.5q-29 18 -43 18q-31 0 -31 -45h-120q0 88 28.5 131.5t86.5 43.5q26 0 47 -8.5t45 -23.5q3 -2 12.5 -7.5t17.5 -8t14 -2.5q31 0 31 45h119q0 -89 -28 -132z" />
    <glyph glyph-name="uni00A0" unicode="&#xa0;" horiz-adv-x="300" 
 />
    <glyph glyph-name="exclamdown" unicode="&#xa1;" horiz-adv-x="258" 
d="M51 -157v179l31 275h107l31 -275v-179h-169zM77 399q-24 24 -24 62t24 62.5t62 24.5q37 0 61 -24.5t24 -62.5t-23.5 -62t-61.5 -24t-62 24z" />
    <glyph glyph-name="cent" unicode="&#xa2;" horiz-adv-x="600" 
d="M478.5 44.5q-44.5 -31.5 -103.5 -43.5v-156h-132v154q-101 17 -160 89t-59 180q0 110 59 183t160 91v159h132v-161q56 -12 100 -43t71 -78l-129 -75q-38 56 -106 56q-48 0 -78 -36.5t-30 -94.5q0 -59 30 -95t78 -36q74 0 106 61l131 -75q-25 -48 -69.5 -79.5z" />
    <glyph glyph-name="sterling" unicode="&#xa3;" horiz-adv-x="564" 
d="M287 140h256v-140h-516v140h76v171h-76v66h76v95q0 113 62.5 175t177.5 62q61 0 117 -22.5t97 -63.5l-68 -136q-66 66 -126 66q-76 0 -76 -85v-91h166v-66h-166v-171z" />
    <glyph glyph-name="currency" unicode="&#xa4;" horiz-adv-x="701" 
d="M576 192l101 -101l-99 -101l-105 104q-58 -30 -123 -30q-66 0 -122 31l-105 -105l-99 101l101 101q-35 60 -35 129q0 66 32 125l-98 98l99 101l99 -99q59 34 128 34q70 0 129 -34l99 99l99 -101l-98 -98q32 -59 32 -125q0 -69 -35 -129zM436 239.5q36 33.5 36 81.5
q0 49 -36 83.5t-86 34.5t-85.5 -34.5t-35.5 -83.5q0 -48 35.5 -81.5t85.5 -33.5t86 33.5z" />
    <glyph glyph-name="yen" unicode="&#xa5;" horiz-adv-x="694" 
d="M495 326h135v-66h-170l-19 -36v-15h189v-66h-189v-143h-183v143h-191v66h191v10l-22 41h-169v66h134l-201 375h183l166 -301l162 301h183z" />
    <glyph glyph-name="brokenbar" unicode="&#xa6;" horiz-adv-x="302" 
d="M217 802v-342h-132v342h132zM217 233v-342h-132v342h132z" />
    <glyph glyph-name="section" unicode="&#xa7;" horiz-adv-x="549" 
d="M286 575q-29 0 -45 -9.5t-16 -25.5q0 -21 25.5 -34t78.5 -29q60 -19 99.5 -36.5t68 -50.5t28.5 -83q0 -43 -27 -78.5t-72 -55.5q34 -20 49 -41.5t15 -57.5q0 -47 -28 -84t-79.5 -57.5t-119.5 -20.5q-67 0 -131 19.5t-116 57.5l50 112q50 -33 99.5 -50.5t92.5 -17.5
q32 0 49.5 10t17.5 26q0 20 -24 32.5t-77 28.5q-59 19 -98 36.5t-67 50t-28 82.5q0 46 27 80t77 53q-40 21 -55 44t-15 56q0 47 27 84t76.5 57.5t115.5 20.5q114 0 226 -62l-53 -111q-106 54 -171 54zM208 339q-18 -10 -18 -28q0 -23 28 -37.5t71 -14.5q35 0 53.5 10.5
t18.5 28.5q0 22 -29 36.5t-72 14.5q-34 0 -52 -10z" />
    <glyph glyph-name="dieresis" unicode="&#xa8;" horiz-adv-x="426" 
d="M178.5 744q21.5 -22 21.5 -56q0 -33 -21.5 -54.5t-54.5 -21.5t-54.5 21.5t-21.5 54.5q0 34 21.5 56t54.5 22t54.5 -22zM370.5 744q21.5 -22 21.5 -56q0 -33 -21.5 -54.5t-54.5 -21.5q-34 0 -55 21.5t-21 54.5q0 35 21 56.5t55 21.5q33 0 54.5 -22z" />
    <glyph glyph-name="copyright" unicode="&#xa9;" horiz-adv-x="723" 
d="M189.5 55q-77.5 46 -122 124t-44.5 169t45 169.5t122.5 125t171.5 46.5q93 0 170.5 -45.5t122.5 -123.5t45 -170q0 -91 -45 -169.5t-123 -125t-172 -46.5q-93 0 -170.5 46zM491 127q59 35 93.5 94t34.5 129t-34 128.5t-93 93t-130 34.5q-72 0 -130.5 -35t-92.5 -94
t-34 -129t33.5 -128.5t92 -93t129.5 -34.5q72 0 131 35zM277.5 203.5q-39.5 21.5 -62 60t-22.5 85.5t23 84.5t63 59t89 21.5q36 0 72 -15t60 -41l-49 -59q-17 20 -38.5 31.5t-42.5 11.5q-38 0 -64 -26t-26 -65q0 -40 26 -66.5t64 -26.5q20 0 42 10t39 28l49 -54
q-26 -28 -62 -44t-73 -16q-48 0 -87.5 21.5z" />
    <glyph glyph-name="ordfeminine" unicode="&#xaa;" horiz-adv-x="394" 
d="M316.5 756q40.5 -31 40.5 -88v-210h-119v40q-34 -45 -104 -45q-53 0 -83.5 27.5t-30.5 73.5t34 71t98 26h85v3q0 44 -61 44q-44 0 -106 -24l-28 80q91 33 162 33q72 0 112.5 -31zM237 561v34h-60q-42 0 -42 -32q0 -16 10.5 -25t29.5 -9q42 0 62 32z" />
    <glyph glyph-name="guillemotleft" unicode="&#xab;" horiz-adv-x="506" 
d="M265 452l-107 -185l107 -186h-144l-121 186l121 185h144zM490 452l-107 -185l107 -186h-144l-121 186l121 185h144z" />
    <glyph glyph-name="logicalnot" unicode="&#xac;" horiz-adv-x="579" 
d="M517 136h-128v180h-357v114h485v-294z" />
    <glyph glyph-name="uni00AD" unicode="&#xad;" horiz-adv-x="375" 
d="M320 364v-114h-265v114h265z" />
    <glyph glyph-name="registered" unicode="&#xae;" horiz-adv-x="723" 
d="M532.5 643.5q77.5 -45.5 122.5 -123.5t45 -170q0 -91 -45 -169.5t-123 -125t-172 -46.5q-93 0 -170.5 46t-122 124t-44.5 169t45 169.5t122.5 125t171.5 46.5q93 0 170.5 -45.5zM491 127q59 35 93.5 94t34.5 129t-34 128.5t-93 93t-130 34.5q-72 0 -130.5 -35t-92.5 -94
t-34 -129t33.5 -128.5t92 -93t129.5 -34.5q72 0 131 35zM489.5 345.5q-14.5 -26.5 -42.5 -39.5l67 -104h-93l-47 88h-3h-57v-88h-81v317h138q64 0 98.5 -29t34.5 -82q0 -36 -14.5 -62.5zM314 354h57q26 0 40.5 13.5t14.5 37.5q0 25 -14.5 37.5t-40.5 12.5h-57v-101z" />
    <glyph glyph-name="macron" unicode="&#xaf;" horiz-adv-x="344" 
d="M330 744v-105h-309v105h309z" />
    <glyph glyph-name="degree" unicode="&#xb0;" horiz-adv-x="377" 
d="M287 783.5q35 -34.5 35 -83.5t-35 -84t-84 -35t-84 35t-35 84t35 83.5t84 34.5t84 -34.5zM167 734.5q-15 -14.5 -15 -34.5t15 -34.5t36 -14.5t35.5 14.5t14.5 34.5t-14.5 34.5t-35.5 14.5t-36 -14.5z" />
    <glyph glyph-name="plusminus" unicode="&#xb1;" horiz-adv-x="511" 
d="M478 347.618h-166v-159.617h-113v159.617h-167v109.616h167v160.578h113v-160.578h166v-109.616zM478 113v-114h-446v114h446z" />
    <glyph glyph-name="uni00B2" unicode="&#xb2;" horiz-adv-x="380" 
d="M214 654q0 14 -11 22t-30 8q-25 0 -56.5 -14.5t-61.5 -39.5l-48 88q94 65 186 65q66 0 109 -30.5t43 -80.5q0 -34 -22 -68t-62 -73l-80 -77h174v-94h-333v77l154 155q38 38 38 62z" />
    <glyph glyph-name="uni00B3" unicode="&#xb3;" horiz-adv-x="370" 
d="M320 568.5q28 -29.5 28 -76.5q0 -61 -46.5 -99t-123.5 -38q-47 0 -92.5 14.5t-76.5 38.5l51 93q48 -55 108 -55q28 0 42.5 11.5t14.5 33.5q0 45 -58 45h-73v64l92 88h-155v88h297v-69l-103 -96l20 -4q47 -9 75 -38.5z" />
    <glyph glyph-name="acute" unicode="&#xb4;" horiz-adv-x="350" 
d="M309 714l-145 -115l-122 10l120 161z" />
    <glyph glyph-name="uni00B5" unicode="&#xb5;" horiz-adv-x="685" 
d="M617 541v-541h-178v88q-55 -94 -173 -96h-15v-186h-178v735h178v-291q0 -46 23.5 -72t63.5 -26q47 1 74 34.5t27 87.5v267h178z" />
    </font>
</defs>
</svg>
